<svg width="5140" height="3199" viewBox="0 0 5140 3199" fill="none" xmlns="http://www.w3.org/2000/svg">
<g id="bus pieces">
<rect width="5140" height="3199" fill="white"/>
<g id="bus">
<path id="Vector 41" d="M4183.06 580C4313.1 580 4438.11 739.902 4484.36 819.853C4514.15 865.048 4523.87 927.225 4525 952.664V2429.44H3904.55C3906.14 2350.95 3882.09 2304.23 3869.86 2290.69C3850.7 2261.61 3793.55 2195.34 3718.22 2162.83C3642.9 2130.32 3542.79 2149.29 3502.16 2162.83C3466.15 2184.31 3398.09 2219.33 3362.41 2290.69C3337.03 2341.43 3328.05 2404.34 3326.73 2429.44H1440.61C1442.92 2400.37 1431.29 2324.19 1366.28 2252.03C1301.26 2179.88 1230.82 2161.18 1203.73 2160.85C1160.78 2151.6 1054.67 2147.57 973.789 2205.45C892.913 2263.33 860.14 2378.9 853.863 2429.44H615.001V978.433C615.001 715.19 826.441 603.126 932.162 580H4183.06Z" fill="#EC7281" stroke="#294766" stroke-width="42.8676"/>
<path id="Vector 42" d="M3035.34 1418.49V2433.41" stroke="#294766" stroke-width="42.8676"/>
<path id="Vector 46" d="M4010.61 1418.49V2433.41" stroke="#294766" stroke-width="42.8676"/>
<path id="Vector 49" d="M1390.06 2272.85H3367.36" stroke="#294766" stroke-width="42.8676"/>
<path id="Vector 51" d="M615 1418.49L4518.06 1418.49" stroke="#294766" stroke-width="42.8676"/>
<path id="Vector 52" d="M615 1251.98L4518.06 1251.98" stroke="#294766" stroke-width="42.8676"/>
<path id="Vector 53" d="M615 1101.33L4518.06 1101.33" stroke="#294766" stroke-width="42.8676"/>
<path id="Vector 47" d="M615 2060.75L4518.06 2060.75" stroke="#294766" stroke-width="47.1543"/>
<path id="Vector 43" d="M2167.11 1418.49V2433.41" stroke="#294766" stroke-width="42.8676"/>
<path id="Vector 44" d="M1286.98 1418.49V2056.78" stroke="#294766" stroke-width="42.8676"/>
<path id="Vector 45" d="M922.25 1418.49V2056.78" stroke="#294766" stroke-width="42.8676"/>
<path id="Vector 54" d="M907.98 771.288H1218C1236.94 771.288 1252.3 786.642 1252.3 805.582V966.935C1252.3 985.875 1236.94 1001.23 1218 1001.23H907.98C889.04 1001.23 873.686 985.875 873.686 966.935V805.582C873.686 786.642 889.04 771.288 907.98 771.288Z" fill="#DBE2E5" stroke="#294766" stroke-width="42.8676"/>
<path id="Vector 55" d="M3903.17 771.288H4213.19C4232.13 771.288 4247.48 786.642 4247.48 805.582V966.935C4247.48 985.875 4232.13 1001.23 4213.19 1001.23H3903.17C3884.23 1001.23 3868.87 985.875 3868.87 966.935V805.582C3868.87 786.642 3884.23 771.288 3903.17 771.288Z" fill="#DBE2E5" stroke="#294766" stroke-width="42.8676"/>
<path id="Vector 56" d="M3061.05 771.288H3742.06C3756.26 771.288 3767.78 782.803 3767.78 797.008V988.393C3767.78 1002.6 3756.26 1014.11 3742.06 1014.11H3061.05C3046.85 1014.11 3035.33 1002.6 3035.33 988.393V797.008C3035.33 782.803 3046.85 771.288 3061.05 771.288Z" fill="#DBE2E5" stroke="#294766" stroke-width="42.8676"/>
<path id="Vector 58" d="M2229.5 771.288H2910.5C2924.71 771.288 2936.22 782.803 2936.22 797.008V988.393C2936.22 1002.6 2924.71 1014.11 2910.5 1014.11H2229.5C2215.29 1014.11 2203.78 1002.6 2203.78 988.393V797.008C2203.78 782.803 2215.29 771.288 2229.5 771.288Z" fill="#DBE2E5" stroke="#294766" stroke-width="42.8676"/>
<path id="Vector 60" d="M1397.95 771.288H2078.95C2093.15 771.288 2104.67 782.803 2104.67 797.008V988.393C2104.67 1002.6 2093.15 1014.11 2078.95 1014.11H1397.95C1383.74 1014.11 1372.22 1002.6 1372.22 988.393V797.008C1372.22 782.803 1383.74 771.288 1397.95 771.288Z" fill="#DBE2E5" stroke="#294766" stroke-width="42.8676"/>
<path id="Vector 62" d="M1397.95 1494.81H2078.95C2093.15 1494.81 2104.67 1506.33 2104.67 1520.53V1761.47C2104.67 1775.68 2093.15 1787.19 2078.95 1787.19H1397.95C1383.74 1787.19 1372.22 1775.68 1372.22 1761.47V1520.53C1372.22 1506.33 1383.74 1494.81 1397.95 1494.81Z" fill="#DBE2E6" stroke="#294766" stroke-width="42.8676"/>
<path id="Vector 64" d="M2261.22 1494.81H2942.22C2956.43 1494.81 2967.94 1506.33 2967.94 1520.53V1761.47C2967.94 1775.68 2956.43 1787.19 2942.22 1787.19H2261.22C2247.01 1787.19 2235.5 1775.68 2235.5 1761.47V1520.53C2235.5 1506.33 2247.01 1494.81 2261.22 1494.81Z" fill="#DBE2E6" stroke="#294766" stroke-width="42.8676"/>
<path id="Vector 66" d="M3150.26 1494.81H3831.26C3845.46 1494.81 3856.98 1506.33 3856.98 1520.53V1761.47C3856.98 1775.68 3845.46 1787.19 3831.26 1787.19H3150.26C3136.05 1787.19 3124.54 1775.68 3124.54 1761.47V1520.53C3124.54 1506.33 3136.05 1494.81 3150.26 1494.81Z" fill="#DBE2E6" stroke="#294766" stroke-width="42.8676"/>
<path id="Vector 57" d="M3765.8 888.241H3039.3" stroke="#294766" stroke-width="42.8676"/>
<path id="Vector 59" d="M2934.24 888.241H2207.74" stroke="#294766" stroke-width="42.8676"/>
<path id="Vector 61" d="M2102.68 888.241H1376.19" stroke="#294766" stroke-width="42.8676"/>
<path id="Vector 63" d="M2102.68 1611.76H1376.19" stroke="#294766" stroke-width="42.8676"/>
<path id="Vector 65" d="M2965.96 1611.76H2239.46" stroke="#294766" stroke-width="42.8676"/>
<path id="Vector 67" d="M3855 1611.76H3128.5" stroke="#294766" stroke-width="42.8676"/>
<rect id="Rectangle 56" width="3861.43" height="270.578" transform="matrix(-1 0 0 1 4500.22 1125.12)" fill="#1D2632"/>
<rect id="Rectangle 57" width="317.161" height="591.703" transform="matrix(-1 0 0 1 1263.2 1443.27)" fill="#DBE2E5"/>
<path id="Vector 68" d="M868.73 1765.03V1438.91C868.73 1419.97 853.377 1404.62 834.436 1404.62H650.287C631.347 1404.62 615.993 1419.97 615.993 1438.91V1790.17C615.993 1798.93 623.093 1806.03 631.851 1806.03H827.945C837.226 1806.03 846.112 1802.26 852.571 1795.6L859.063 1788.9C865.263 1782.5 868.73 1773.94 868.73 1765.03Z" fill="#F2F2F4" stroke="#294766" stroke-width="17.147"/>
<path id="Vector 69" d="M755.74 1503.24V1700.47C755.74 1717.16 769.275 1730.7 785.97 1730.7C802.665 1730.7 816.199 1717.16 816.199 1700.47V1503.24C816.199 1486.54 802.665 1473.01 785.97 1473.01C769.275 1473.01 755.74 1486.54 755.74 1503.24Z" fill="#4D77A3" stroke="#294766" stroke-width="17.147"/>
<path id="Vector 70" d="M746.82 1586.99H720.656C701.716 1586.99 686.362 1571.63 686.362 1552.69V1412.55" stroke="#294766" stroke-width="17.147"/>
<rect id="Rectangle 60" x="-12.8603" y="12.8603" width="120.966" height="77.3568" rx="30.0073" transform="matrix(-1 0 0 1 1511.03 2103.36)" stroke="#294766" stroke-width="25.7205"/>
<rect id="Rectangle 61" x="-12.8603" y="12.8603" width="120.966" height="77.3568" rx="30.0073" transform="matrix(-1 0 0 1 2356.46 2103.36)" stroke="#294766" stroke-width="25.7205"/>
<path id="Vector 48" d="M3854.01 2272.85H4518.06" stroke="#294766" stroke-width="42.8676"/>
<path id="Vector 50" d="M615 2272.85H914.321" stroke="#294766" stroke-width="42.8676"/>
</g>
<g id="wheel 1">
<circle id="Ellipse 42" r="310.223" transform="matrix(-1 0 0 1 3627.04 2429.44)" fill="#294766"/>
<path id="Vector 71" d="M3644.28 2373.62C3674.62 2367.81 3709.73 2338.58 3669.46 2318.44C3629.19 2298.3 3638.48 2356.19 3644.28 2373.62Z" fill="#9DCEE0"/>
<path id="Vector 73" d="M3610.04 2497.37C3579.7 2503.18 3544.59 2532.41 3584.87 2552.55C3625.14 2572.69 3615.85 2514.8 3610.04 2497.37Z" fill="#9DCEE0"/>
<path id="Vector 75" d="M3564.77 2412.2C3558.97 2381.86 3529.73 2346.75 3509.59 2387.02C3489.45 2427.29 3547.35 2418 3564.77 2412.2Z" fill="#9DCEE0"/>
<path id="Vector 77" d="M3695.11 2446.44C3700.91 2476.78 3730.15 2511.89 3750.29 2471.62C3770.43 2431.34 3712.53 2440.63 3695.11 2446.44Z" fill="#9DCEE0"/>
<path id="Vector 72" d="M3610.04 2373.62C3579.7 2367.81 3544.59 2338.58 3584.87 2318.44C3625.14 2298.3 3615.85 2356.19 3610.04 2373.62Z" fill="#9DCEE0"/>
<path id="Vector 74" d="M3644.28 2497.37C3674.62 2503.18 3709.73 2532.41 3669.46 2552.55C3629.19 2572.69 3638.48 2514.8 3644.28 2497.37Z" fill="#9DCEE0"/>
<path id="Vector 76" d="M3564.77 2446.44C3558.97 2476.78 3529.73 2511.89 3509.59 2471.62C3489.45 2431.34 3547.35 2440.63 3564.77 2446.44Z" fill="#9DCEE0"/>
<path id="Vector 78" d="M3695.11 2412.2C3700.91 2381.86 3730.15 2346.75 3750.29 2387.02C3770.43 2427.29 3712.53 2418 3695.11 2412.2Z" fill="#9DCEE0"/>
</g>
<g id="wheel 2">
<circle id="Ellipse 43" r="310.223" transform="matrix(-1 0 0 1 1153.18 2429.44)" fill="#294766"/>
<path id="Vector 79" d="M1179.72 2373.62C1210.06 2367.81 1245.16 2338.58 1204.89 2318.44C1164.62 2298.3 1173.91 2356.19 1179.72 2373.62Z" fill="#9DCEE0"/>
<path id="Vector 80" d="M1145.47 2497.37C1115.13 2503.18 1080.02 2532.41 1120.29 2552.55C1160.56 2572.69 1151.27 2514.8 1145.47 2497.37Z" fill="#9DCEE0"/>
<path id="Vector 81" d="M1100.2 2412.2C1094.4 2381.86 1065.16 2346.75 1045.02 2387.02C1024.88 2427.29 1082.78 2418 1100.2 2412.2Z" fill="#9DCEE0"/>
<path id="Vector 82" d="M1230.54 2446.44C1236.35 2476.78 1265.58 2511.89 1285.72 2471.62C1305.86 2431.34 1247.97 2440.63 1230.54 2446.44Z" fill="#9DCEE0"/>
<path id="Vector 83" d="M1145.47 2373.62C1115.13 2367.81 1080.02 2338.58 1120.29 2318.44C1160.56 2298.3 1151.27 2356.19 1145.47 2373.62Z" fill="#9DCEE0"/>
<path id="Vector 84" d="M1179.72 2497.37C1210.06 2503.18 1245.16 2532.41 1204.89 2552.55C1164.62 2572.69 1173.91 2514.8 1179.72 2497.37Z" fill="#9DCEE0"/>
<path id="Vector 85" d="M1100.2 2446.44C1094.4 2476.78 1065.16 2511.89 1045.02 2471.62C1024.88 2431.34 1082.78 2440.63 1100.2 2446.44Z" fill="#9DCEE0"/>
<path id="Vector 86" d="M1230.54 2412.2C1236.35 2381.86 1265.58 2346.75 1285.72 2387.02C1305.86 2427.29 1247.97 2418 1230.54 2412.2Z" fill="#9DCEE0"/>
</g>
</g>
</svg>
