<svg width="5140" height="3199" viewBox="0 0 5140 3199" fill="none" xmlns="http://www.w3.org/2000/svg">
<g id="buspieces">
<rect width="5140" height="3199" fill="white"/>
<g id="bus">
<path id="Vector 41" d="M4266.4 463C4403.15 463 4534.62 631.163 4583.26 715.244C4614.59 762.775 4624.81 828.164 4626 854.917V2407.99H3973.5C3975.17 2325.44 3949.87 2276.31 3937.02 2262.06C3916.87 2231.49 3856.76 2161.79 3777.54 2127.6C3698.32 2093.42 3593.05 2113.36 3550.31 2127.6C3512.44 2150.19 3440.87 2187.02 3403.34 2262.06C3376.66 2315.43 3367.21 2381.59 3365.82 2407.99H1382.26C1384.7 2377.42 1372.47 2297.3 1304.09 2221.41C1235.71 2145.53 1161.64 2125.87 1133.15 2125.52C1087.98 2115.79 976.379 2111.55 891.325 2172.42C806.271 2233.3 771.804 2354.83 765.203 2407.99H514.001V882.017C514.001 605.174 736.365 487.321 847.547 463H4266.4Z" fill="#EC7281" stroke="#294766" stroke-width="42.8676"/>
<path id="Vector 42" d="M3059.38 1344.81V2412.16" stroke="#294766" stroke-width="42.8676"/>
<path id="Vector 46" d="M4085.03 1344.81V2412.16" stroke="#294766" stroke-width="42.8676"/>
<path id="Vector 49" d="M1329.11 2243.3H3408.56" stroke="#294766" stroke-width="42.8676"/>
<path id="Vector 51" d="M514 1344.81L4618.7 1344.81" stroke="#294766" stroke-width="42.8676"/>
<path id="Vector 52" d="M514 1169.7L4618.7 1169.7" stroke="#294766" stroke-width="42.8676"/>
<path id="Vector 53" d="M514 1011.27L4618.7 1011.27" stroke="#294766" stroke-width="42.8676"/>
<path id="Vector 47" d="M514 2020.24L4618.7 2020.24" stroke="#294766" stroke-width="47.1543"/>
<path id="Vector 43" d="M2146.29 1344.81V2412.16" stroke="#294766" stroke-width="42.8676"/>
<path id="Vector 44" d="M1220.7 1344.81V2016.07" stroke="#294766" stroke-width="42.8676"/>
<path id="Vector 45" d="M837.121 1344.81V2016.07" stroke="#294766" stroke-width="42.8676"/>
<path id="Vector 54" d="M820.342 664.17H1149.92C1168.86 664.17 1184.22 679.524 1184.22 698.464V871.697C1184.22 890.637 1168.86 905.991 1149.92 905.991H820.342C801.402 905.991 786.048 890.637 786.048 871.697V698.464C786.048 679.524 801.402 664.17 820.342 664.17Z" fill="#DBE2E5" stroke="#294766" stroke-width="42.8676"/>
<path id="Vector 55" d="M3970.27 664.17H4299.85C4318.79 664.17 4334.15 679.524 4334.15 698.464V871.697C4334.15 890.637 4318.79 905.991 4299.85 905.991H3970.27C3951.33 905.991 3935.98 890.637 3935.98 871.697V698.464C3935.98 679.524 3951.33 664.17 3970.27 664.17Z" fill="#DBE2E5" stroke="#294766" stroke-width="42.8676"/>
<path id="Vector 56" d="M3073.29 663.868H3792.13C3806.34 663.868 3817.85 675.383 3817.85 689.588V893.518C3817.85 907.724 3806.34 919.239 3792.13 919.239H3073.29C3059.08 919.239 3047.57 907.723 3047.57 893.518V689.588C3047.57 675.383 3059.08 663.868 3073.29 663.868Z" fill="#DBE2E5" stroke="#294766" stroke-width="42.8676"/>
<path id="Vector 58" d="M2198.78 663.868H2917.62C2931.82 663.868 2943.34 675.383 2943.34 689.588V893.518C2943.34 907.724 2931.82 919.239 2917.62 919.239H2198.78C2184.57 919.239 2173.06 907.723 2173.06 893.518V689.588C2173.06 675.383 2184.57 663.868 2198.78 663.868Z" fill="#DBE2E5" stroke="#294766" stroke-width="42.8676"/>
<path id="Vector 60" d="M1324.26 663.868H2043.1C2057.31 663.868 2068.82 675.383 2068.82 689.588V893.518C2068.82 907.724 2057.31 919.239 2043.1 919.239H1324.26C1310.06 919.239 1298.54 907.723 1298.54 893.518V689.588C1298.54 675.383 1310.06 663.868 1324.26 663.868Z" fill="#DBE2E5" stroke="#294766" stroke-width="42.8676"/>
<path id="Vector 62" d="M1324.26 1425.27H2043.1C2057.31 1425.27 2068.82 1436.79 2068.82 1450.99V1707.04C2068.82 1721.24 2057.31 1732.76 2043.1 1732.76H1324.26C1310.06 1732.76 1298.54 1721.24 1298.54 1707.04V1450.99C1298.54 1436.79 1310.06 1425.27 1324.26 1425.27Z" fill="#DBE2E6" stroke="#294766" stroke-width="42.8676"/>
<path id="Vector 64" d="M2243.94 1425.07H2962.78C2976.98 1425.07 2988.5 1436.59 2988.5 1450.79V1706.84C2988.5 1721.04 2976.98 1732.56 2962.78 1732.56H2243.94C2229.73 1732.56 2218.22 1721.04 2218.22 1706.84V1450.79C2218.22 1436.59 2229.73 1425.07 2243.94 1425.07Z" fill="#DBE2E6" stroke="#294766" stroke-width="42.8676"/>
<path id="Vector 66" d="M3213.05 1425.07H3931.89C3946.09 1425.07 3957.61 1436.59 3957.61 1450.79V1706.84C3957.61 1721.04 3946.09 1732.56 3931.89 1732.56H3213.05C3198.84 1732.56 3187.33 1721.04 3187.33 1706.84V1450.79C3187.33 1436.59 3198.84 1425.07 3213.05 1425.07Z" fill="#DBE2E6" stroke="#294766" stroke-width="42.8676"/>
<path id="Vector 57" d="M3815.77 786.862H3051.74" stroke="#294766" stroke-width="42.8676"/>
<path id="Vector 59" d="M2941.25 786.862H2177.22" stroke="#294766" stroke-width="42.8676"/>
<path id="Vector 61" d="M2066.74 786.862H1302.71" stroke="#294766" stroke-width="42.8676"/>
<path id="Vector 63" d="M2066.74 1548.27H1302.71" stroke="#294766" stroke-width="42.8676"/>
<path id="Vector 65" d="M2986.41 1548.07H2222.38" stroke="#294766" stroke-width="42.8676"/>
<path id="Vector 67" d="M3955.52 1548.07H3191.49" stroke="#294766" stroke-width="42.8676"/>
<rect id="Rectangle 57" width="342.842" height="633.101" transform="matrix(-1 0 0 1 1200.74 1365.33)" fill="#DBE2E5"/>
<path id="Vector 68" d="M780.84 1709.97V1364.51C780.84 1345.57 765.486 1330.22 746.546 1330.22H549.339C530.399 1330.22 515.045 1345.57 515.045 1364.51V1735.69C515.045 1744.9 522.512 1752.36 531.723 1752.36H738.697C747.979 1752.36 756.864 1748.6 763.324 1741.94L771.172 1733.84C777.373 1727.44 780.84 1718.88 780.84 1709.97Z" fill="#F2F2F4" stroke="#294766" stroke-width="17.147"/>
<path id="Vector 69" d="M662.012 1433.93V1641.36C662.012 1658.91 676.245 1673.15 693.803 1673.15C711.36 1673.15 725.594 1658.91 725.594 1641.36V1433.93C725.594 1416.37 711.36 1402.14 693.803 1402.14C676.245 1402.14 662.012 1416.37 662.012 1433.93Z" fill="#4D77A3" stroke="#294766" stroke-width="17.147"/>
<path id="Vector 70" d="M652.629 1522.01H623.341C604.401 1522.01 589.047 1506.66 589.047 1487.71V1338.56" stroke="#294766" stroke-width="17.147"/>
<rect id="Rectangle 60" x="-12.8603" y="12.8603" width="128.545" height="82.682" rx="30.0073" transform="matrix(-1 0 0 1 1457.65 2065.06)" stroke="#294766" stroke-width="25.7205"/>
<rect id="Rectangle 61" x="-12.8603" y="12.8603" width="128.545" height="82.682" rx="30.0073" transform="matrix(-1 0 0 1 2346.76 2065.06)" stroke="#294766" stroke-width="25.7205"/>
<path id="Vector 48" d="M3920.34 2243.3H4618.71" stroke="#294766" stroke-width="42.8676"/>
<path id="Vector 50" d="M514 2243.3H828.784" stroke="#294766" stroke-width="42.8676"/>
<rect id="Rectangle 56" width="4069.93" height="294.465" transform="matrix(-1 0 0 1 4604.96 1027.74)" fill="#1D2632"/>
<g id="wheel1">
<circle id="Ellipse 43" r="301.25" transform="matrix(-1 0 0 1 1079.98 2407.99)" fill="#294766" stroke="#294766" stroke-width="50"/>
<circle id="Ellipse 43_2" r="189.607" transform="matrix(-1 0 0 1 1072.5 2407.59)" fill="#D9D9D9" stroke="#1D2632" stroke-width="50"/>
<circle id="Ellipse 44" r="57.7704" transform="matrix(-1 0 0 1 1219.07 2524.72)" fill="#D9D9D9" stroke="#1D2632" stroke-width="20"/>
</g>
<g id="wheel2">
<circle id="Ellipse 43_3" r="301.25" transform="matrix(-1 0 0 1 3665.02 2407.76)" fill="#294766" stroke="#294766" stroke-width="50"/>
<circle id="Ellipse 43_4" r="189.607" transform="matrix(-1 0 0 1 3657.54 2407.36)" fill="#D9D9D9" stroke="#1D2632" stroke-width="50"/>
<circle id="Ellipse 44_2" r="57.7704" transform="matrix(-1 0 0 1 3804.07 2311.24)" fill="#D9D9D9" stroke="#1D2632" stroke-width="20"/>
</g>
</g>
</g>
</svg>
