<svg width="4755" height="2927" viewBox="0 0 4755 2927" fill="none" xmlns="http://www.w3.org/2000/svg">
<g id="Frame 3" clip-path="url(#clip0_41_95)">
<rect width="4755" height="2927" fill="white"/>
<path id="line7" d="M-193.001 2265.52L3461.85 2265.52L3885.41 1841.97L4969.98 2926.54" stroke="#347636" stroke-width="80" stroke-linecap="square"/>
<path id="line6" d="M-100 147.539H1296V701.034V2206.03L1586.5 2496.53H4907" stroke="#8E1D56" stroke-width="80" stroke-linecap="square"/>
<path id="line4" d="M2058 2942.04V1283.54H3487.5L3782.5 1578.54H4987.5" stroke="#F9D348" stroke-width="80" stroke-linecap="square"/>
<path id="line3" d="M4944 1268.04H3899L3484.5 853.539H717C717 1876.34 717 2785.54 717 2936.54" stroke="#D2392A" stroke-width="80"/>
<path id="line2" d="M-135.5 526.539H1744V1672.04L2485.5 2413.54V2743.04H3221.5L4985.5 979.039" stroke="#E8ACBB" stroke-width="80"/>
<path id="line1" d="M2774.88 1654.54L2774.88 228.311L5365.5 228.307" stroke="#A86726" stroke-width="80"/>
<path id="line5" d="M4795 -422.461L4795 496.318L4253.8 1039.69L3937.64 1039.69L3325.24 1654.54L-102 1654.54" stroke="#A1CBBB" stroke-width="80" stroke-linecap="square"/>
<path id="F2" d="M2058 1654.54H2442.5" stroke="#004FA3" stroke-width="80" stroke-linecap="square"/>
<path id="F1" d="M2549.5 1283.54H2058V2186" stroke="#004FA3" stroke-width="80" stroke-linecap="square"/>
<path id="T2" d="M1453 854H2034" stroke="#004FA3" stroke-width="80" stroke-linecap="square"/>
<path id="T1" d="M1744 855.539V1653" stroke="#004FA3" stroke-width="80" stroke-linecap="square"/>
<path id="L" d="M2775 853.5V1654.54H3258" stroke="#004FA3" stroke-width="80" stroke-linecap="square"/>
</g>
<defs>
<clipPath id="clip0_41_95">
<rect width="4755" height="2927" fill="white"/>
</clipPath>
</defs>
</svg>
