<svg width="5140" height="3199" viewBox="0 0 5140 3199" fill="none" xmlns="http://www.w3.org/2000/svg">
<g id="LOGO-TYPE">
<rect width="5140" height="3199" fill="white"/>
<g id="for London">
<path d="M2448.69 1682.35C2455.85 1682.35 2463.18 1683.02 2470.68 1684.35C2478.34 1685.68 2484.51 1687.43 2489.17 1689.6V1739.57C2480.68 1737.24 2471.43 1736.07 2461.43 1736.07C2446.61 1736.07 2435.53 1739.91 2428.2 1747.57C2421.04 1755.23 2417.46 1767.98 2417.46 1785.8V1802.54H2457.44V1849.02H2417.46V2035.93H2355.98V1849.02H2322.75V1802.54H2355.98V1785.05C2355.98 1753.57 2364.4 1728.58 2381.22 1710.09C2398.21 1691.59 2420.7 1682.35 2448.69 1682.35Z" fill="#004FA3"/>
<path d="M2606.12 1798.04C2630.44 1798.04 2652.51 1803.13 2672.34 1813.29C2692.16 1823.45 2707.49 1837.69 2718.31 1856.02C2729.14 1874.34 2734.56 1895.08 2734.56 1918.24C2734.56 1942.39 2729.31 1963.55 2718.81 1981.71C2708.49 1999.87 2693.16 2014.19 2672.84 2024.69C2652.68 2035.18 2630.44 2040.43 2606.12 2040.43C2581.63 2040.43 2559.39 2035.18 2539.4 2024.69C2519.41 2014.19 2504.16 1999.87 2493.67 1981.71C2483.34 1963.55 2478.18 1942.39 2478.18 1918.24C2478.18 1894.75 2483.67 1873.93 2494.67 1855.77C2505.66 1837.44 2520.99 1823.28 2540.65 1813.29C2560.31 1803.13 2582.13 1798.04 2606.12 1798.04ZM2542.65 1918.24C2542.65 1941.56 2548.31 1960.22 2559.64 1974.21C2571.13 1988.04 2586.46 1994.95 2605.62 1994.95C2625.61 1994.95 2641.35 1988.29 2652.85 1974.96C2664.34 1961.63 2670.09 1942.56 2670.09 1917.74C2670.09 1894.08 2664.26 1875.84 2652.6 1863.01C2641.1 1850.02 2625.44 1843.52 2605.62 1843.52C2586.96 1843.52 2571.8 1850.35 2560.14 1864.01C2548.48 1877.67 2542.65 1895.75 2542.65 1918.24Z" fill="#004FA3"/>
<path d="M2917.22 1798.04C2925.38 1798.04 2933.38 1799.88 2941.21 1803.54C2949.21 1807.21 2958.45 1813.37 2968.95 1822.03L2946.96 1875.76C2929.13 1862.43 2914.81 1855.77 2903.98 1855.77C2894.48 1855.77 2885.07 1859.35 2875.74 1866.51C2866.58 1873.51 2859.17 1882.84 2853.5 1894.5C2848 1906.16 2845.26 1917.82 2845.26 1929.48V2035.93H2783.78V1802.54H2845.26V1862.01H2846.25C2857.42 1839.53 2868.66 1823.28 2879.99 1813.29C2891.32 1803.13 2903.73 1798.04 2917.22 1798.04Z" fill="#004FA3"/>
<path d="M3215.33 1686.85V1983.21H3384.75V2035.93H3147.86V1686.85H3215.33Z" fill="#004FA3"/>
<path d="M3539.18 1798.04C3563.5 1798.04 3585.57 1803.13 3605.4 1813.29C3625.22 1823.45 3640.55 1837.69 3651.38 1856.02C3662.21 1874.34 3667.62 1895.08 3667.62 1918.24C3667.62 1942.39 3662.37 1963.55 3651.88 1981.71C3641.55 1999.87 3626.22 2014.19 3605.9 2024.69C3585.74 2035.18 3563.5 2040.43 3539.18 2040.43C3514.69 2040.43 3492.45 2035.18 3472.46 2024.69C3452.47 2014.19 3437.23 1999.87 3426.73 1981.71C3416.4 1963.55 3411.24 1942.39 3411.24 1918.24C3411.24 1894.75 3416.74 1873.93 3427.73 1855.77C3438.73 1837.44 3454.05 1823.28 3473.71 1813.29C3493.37 1803.13 3515.19 1798.04 3539.18 1798.04ZM3475.71 1918.24C3475.71 1941.56 3481.37 1960.22 3492.7 1974.21C3504.2 1988.04 3519.52 1994.95 3538.68 1994.95C3558.67 1994.95 3574.41 1988.29 3585.91 1974.96C3597.4 1961.63 3603.15 1942.56 3603.15 1917.74C3603.15 1894.08 3597.32 1875.84 3585.66 1863.01C3574.16 1850.02 3558.5 1843.52 3538.68 1843.52C3520.02 1843.52 3504.86 1850.35 3493.2 1864.01C3481.54 1877.67 3475.71 1895.75 3475.71 1918.24Z" fill="#004FA3"/>
<path d="M3852.03 1798.04C3877.02 1798.04 3896.93 1806.29 3911.75 1822.78C3926.75 1839.11 3934.24 1860.68 3934.24 1887.5V2035.93H3873.02V1893.75C3873.02 1878.59 3869.36 1866.6 3862.03 1857.77C3854.86 1848.94 3845.04 1844.52 3832.54 1844.52C3823.05 1844.52 3814.13 1847.36 3805.8 1853.02C3797.48 1858.52 3788.31 1867.76 3778.32 1880.76V2035.93H3716.85V1802.54H3778.32V1835.28C3789.65 1821.95 3801.22 1812.45 3813.05 1806.79C3825.05 1800.96 3838.04 1798.04 3852.03 1798.04Z" fill="#004FA3"/>
<path d="M4151.39 1807.79V1686.85H4212.61V2035.93H4104.66C4067.35 2035.93 4037.45 2025.19 4014.96 2003.7C3992.63 1982.21 3981.47 1952.89 3981.47 1915.74C3981.47 1893.75 3986.64 1873.76 3996.97 1855.77C4007.46 1837.78 4021.79 1823.7 4039.94 1813.54C4058.27 1803.21 4078.01 1798.04 4099.17 1798.04C4115.49 1798.04 4132.9 1801.29 4151.39 1807.79ZM4119.16 1988.96H4151.39V1853.77C4138.73 1847.27 4125.57 1844.02 4111.91 1844.02C4091.42 1844.02 4075.01 1850.44 4062.68 1863.26C4050.52 1876.09 4044.44 1892.92 4044.44 1913.74C4044.44 1963.88 4069.35 1988.96 4119.16 1988.96Z" fill="#004FA3"/>
<path d="M4389.78 1798.04C4414.1 1798.04 4436.18 1803.13 4456 1813.29C4475.82 1823.45 4491.15 1837.69 4501.98 1856.02C4512.81 1874.34 4518.22 1895.08 4518.22 1918.24C4518.22 1942.39 4512.97 1963.55 4502.48 1981.71C4492.15 1999.87 4476.82 2014.19 4456.5 2024.69C4436.34 2035.18 4414.1 2040.43 4389.78 2040.43C4365.29 2040.43 4343.05 2035.18 4323.06 2024.69C4303.07 2014.19 4287.83 1999.87 4277.33 1981.71C4267.01 1963.55 4261.84 1942.39 4261.84 1918.24C4261.84 1894.75 4267.34 1873.93 4278.33 1855.77C4289.33 1837.44 4304.65 1823.28 4324.31 1813.29C4343.97 1803.13 4365.79 1798.04 4389.78 1798.04ZM4326.31 1918.24C4326.31 1941.56 4331.97 1960.22 4343.3 1974.21C4354.8 1988.04 4370.12 1994.95 4389.28 1994.95C4409.27 1994.95 4425.01 1988.29 4436.51 1974.96C4448 1961.63 4453.75 1942.56 4453.75 1917.74C4453.75 1894.08 4447.92 1875.84 4436.26 1863.01C4424.76 1850.02 4409.11 1843.52 4389.28 1843.52C4370.62 1843.52 4355.46 1850.35 4343.8 1864.01C4332.14 1877.67 4326.31 1895.75 4326.31 1918.24Z" fill="#004FA3"/>
<path d="M4702.63 1798.04C4727.62 1798.04 4747.53 1806.29 4762.36 1822.78C4777.35 1839.11 4784.85 1860.68 4784.85 1887.5V2035.93H4723.62V1893.75C4723.62 1878.59 4719.96 1866.6 4712.63 1857.77C4705.47 1848.94 4695.64 1844.52 4683.14 1844.52C4673.65 1844.52 4664.74 1847.36 4656.41 1853.02C4648.08 1858.52 4638.91 1867.76 4628.92 1880.76V2035.93H4567.45V1802.54H4628.92V1835.28C4640.25 1821.95 4651.82 1812.45 4663.65 1806.79C4675.65 1800.96 4688.64 1798.04 4702.63 1798.04Z" fill="#004FA3"/>
</g>
<g id="Transport">
<path d="M2596.23 1155.71V1208.43H2472.29V1504.79H2404.82V1208.43H2280.88V1155.71H2596.23Z" fill="#004FA3"/>
<path d="M2732.16 1266.9C2740.33 1266.9 2748.32 1268.74 2756.15 1272.4C2764.15 1276.07 2773.39 1282.23 2783.89 1290.89L2761.9 1344.62C2744.07 1331.29 2729.75 1324.63 2718.92 1324.63C2709.42 1324.63 2700.01 1328.21 2690.68 1335.37C2681.52 1342.37 2674.11 1351.7 2668.44 1363.36C2662.95 1375.02 2660.2 1386.68 2660.2 1398.34V1504.79H2598.73V1271.4H2660.2V1330.87H2661.2C2672.36 1308.39 2683.6 1292.14 2694.93 1282.15C2706.26 1271.99 2718.67 1266.9 2732.16 1266.9Z" fill="#004FA3"/>
<path d="M2896.59 1266.9C2926.57 1266.9 2949.48 1273.32 2965.3 1286.15C2981.13 1298.81 2989.04 1316.55 2989.04 1339.37V1453.57C2989.04 1462.4 2989.04 1467.05 2989.04 1467.05V1462.81V1468.31V1507.46H2966.63H2929.32V1484.3C2905.83 1500.96 2882.26 1509.29 2858.6 1509.29C2841.78 1509.29 2827.29 1503.63 2815.12 1492.3C2803.13 1480.97 2797.13 1467.39 2797.13 1451.57C2797.13 1431.41 2803.13 1415.5 2815.12 1403.84C2827.12 1392.18 2848.11 1382.02 2878.1 1373.35L2927.82 1358.86V1348.12C2927.82 1325.29 2913.99 1313.88 2886.34 1313.88C2872.18 1313.88 2858.1 1317.13 2844.11 1323.63C2830.12 1330.13 2824.36 1330.87 2810.03 1340.96L2820.27 1299C2845.76 1278.84 2861.6 1266.9 2896.59 1266.9ZM2859.1 1442.32C2859.1 1450.82 2861.77 1457.65 2867.1 1462.81C2872.6 1467.98 2879.34 1470.56 2887.34 1470.56C2900.83 1470.56 2914.33 1464.4 2927.82 1452.07V1390.6C2910.66 1396.43 2897.17 1401.92 2887.34 1407.09C2877.68 1412.25 2870.52 1417.5 2865.85 1422.83C2861.35 1428.16 2859.1 1434.66 2859.1 1442.32Z" fill="#004FA3"/>
<path d="M3195.2 1266.9C3220.18 1266.9 3240.09 1275.15 3254.92 1291.64C3269.91 1307.97 3277.41 1329.54 3277.41 1356.36V1504.79H3216.19V1362.61C3216.19 1347.45 3212.52 1335.46 3205.19 1326.63C3198.03 1317.8 3188.2 1313.38 3175.71 1313.38C3166.21 1313.38 3157.3 1316.22 3148.97 1321.88C3140.64 1327.38 3131.48 1336.62 3121.48 1349.62V1504.79H3060.01V1271.4H3121.48V1304.14C3132.81 1290.81 3144.39 1281.31 3156.21 1275.65C3168.21 1269.82 3181.2 1266.9 3195.2 1266.9Z" fill="#004FA3"/>
<path d="M3412.59 1266.9C3425.42 1266.9 3437.5 1268.4 3448.83 1271.4C3460.16 1274.23 3472.15 1278.82 3484.81 1285.15V1334.37C3473.15 1326.88 3460.66 1320.88 3447.33 1316.38C3434 1311.72 3422.09 1309.38 3411.59 1309.38C3402.77 1309.38 3395.85 1311.05 3390.85 1314.38C3385.86 1317.71 3383.36 1322.46 3383.36 1328.63C3383.36 1332.12 3385.44 1335.62 3389.61 1339.12C3393.77 1342.62 3405.18 1349.03 3423.84 1358.36C3450.49 1371.86 3469.15 1384.35 3479.81 1395.84C3490.64 1407.17 3496.06 1420.83 3496.06 1436.83C3496.06 1459.31 3488.23 1477.06 3472.57 1490.05C3456.91 1502.88 3435.75 1509.29 3409.1 1509.29C3392.44 1509.29 3376.86 1507.46 3362.37 1503.79C3348.04 1500.13 3336.13 1495.71 3326.63 1490.55V1439.32C3356.62 1455.98 3381.86 1464.31 3402.35 1464.31C3412.84 1464.31 3421.34 1462.48 3427.84 1458.81C3434.33 1454.98 3437.58 1449.99 3437.58 1443.82C3437.58 1440.16 3436.42 1436.83 3434.08 1433.83C3431.75 1430.83 3428.25 1427.75 3423.59 1424.58C3418.92 1421.42 3404.35 1413.84 3379.86 1401.84C3361.04 1392.85 3347.13 1383.1 3338.13 1372.61C3329.13 1361.94 3324.64 1349.37 3324.64 1334.87C3324.64 1314.22 3332.72 1297.72 3348.87 1285.4C3365.03 1273.07 3386.27 1266.9 3412.59 1266.9Z" fill="#004FA3"/>
<path d="M3663.98 1266.9C3697.29 1266.9 3724.12 1278.07 3744.44 1300.39C3764.93 1322.71 3775.17 1351.78 3775.17 1387.6C3775.17 1411.09 3770.34 1432.08 3760.68 1450.57C3751.19 1469.06 3737.61 1483.47 3719.95 1493.8C3702.29 1504.13 3682.3 1509.29 3659.98 1509.29C3641.82 1509.29 3623.58 1504.71 3605.25 1495.55V1622.49H3543.78V1271.4H3604.75V1286.4C3623.25 1273.4 3642.99 1266.9 3663.98 1266.9ZM3605.25 1450.57C3620.58 1459.4 3634.91 1463.81 3648.23 1463.81C3667.56 1463.81 3683.05 1456.9 3694.71 1443.07C3706.37 1429.25 3712.2 1411.42 3712.2 1389.6C3712.2 1365.78 3706.96 1347.12 3696.46 1333.62C3686.13 1320.13 3671.39 1313.38 3652.23 1313.38C3645.07 1313.38 3638.16 1314.63 3631.49 1317.13C3624.83 1319.46 3616.08 1324.54 3605.25 1332.37V1450.57Z" fill="#004FA3"/>
<path d="M3939.85 1266.9C3964.17 1266.9 3986.24 1271.99 4006.07 1282.15C4025.89 1292.31 4041.22 1306.55 4052.04 1324.88C4062.87 1343.2 4068.29 1363.94 4068.29 1387.1C4068.29 1411.25 4063.04 1432.41 4052.54 1450.57C4042.22 1468.73 4026.89 1483.05 4006.57 1493.55C3986.41 1504.04 3964.17 1509.29 3939.85 1509.29C3915.36 1509.29 3893.12 1504.04 3873.13 1493.55C3853.14 1483.05 3837.9 1468.73 3827.4 1450.57C3817.07 1432.41 3811.91 1411.25 3811.91 1387.1C3811.91 1363.61 3817.4 1342.79 3828.4 1324.63C3839.39 1306.3 3854.72 1292.14 3874.38 1282.15C3894.04 1271.99 3915.86 1266.9 3939.85 1266.9ZM3876.38 1387.1C3876.38 1410.42 3882.04 1429.08 3893.37 1443.07C3904.86 1456.9 3920.19 1463.81 3939.35 1463.81C3959.34 1463.81 3975.08 1457.15 3986.58 1443.82C3998.07 1430.49 4003.82 1411.42 4003.82 1386.6C4003.82 1362.94 3997.99 1344.7 3986.33 1331.87C3974.83 1318.88 3959.17 1312.38 3939.35 1312.38C3920.69 1312.38 3905.53 1319.21 3893.87 1332.87C3882.21 1346.53 3876.38 1364.61 3876.38 1387.1Z" fill="#004FA3"/>
<path d="M4250.95 1266.9C4259.11 1266.9 4267.11 1268.74 4274.94 1272.4C4282.94 1276.07 4292.18 1282.23 4302.68 1290.89L4280.69 1344.62C4262.86 1331.29 4248.54 1324.63 4237.71 1324.63C4228.21 1324.63 4218.8 1328.21 4209.47 1335.37C4200.31 1342.37 4192.9 1351.7 4187.23 1363.36C4181.73 1375.02 4178.99 1386.68 4178.99 1398.34V1504.79H4117.51V1271.4H4178.99V1330.87H4179.98C4191.15 1308.39 4202.39 1292.14 4213.72 1282.15C4225.05 1271.99 4237.46 1266.9 4250.95 1266.9Z" fill="#004FA3"/>
<path d="M4395.38 1209.43H4400.38V1271.4H4480.34V1317.88H4400.38V1425.58C4400.38 1436.08 4403.55 1444.57 4409.88 1451.07C4416.21 1457.57 4424.87 1460.81 4435.86 1460.81C4450.19 1460.81 4466.68 1455.65 4485.34 1445.32V1494.55C4463.19 1504.38 4442.36 1509.29 4422.87 1509.29C4396.55 1509.29 4375.98 1502.13 4361.15 1487.8C4346.49 1473.47 4339.16 1454.07 4339.16 1429.58V1317.88H4302.68V1307.89L4395.38 1209.43Z" fill="#004FA3"/>
</g>
</g>
</svg>
