<svg width="4755" height="2927" viewBox="0 0 4755 2927" fill="none" xmlns="http://www.w3.org/2000/svg">
<g id="TFL text">
<rect width="4755" height="2927" fill="white"/>
<g id="text">
<path id="Vector" d="M2073.88 1055.17V1348.98H1996.4V1055.17H1893V982H2177.18V1055.17H2073.88Z" fill="#004FA3"/>
<path id="Vector_2" d="M2331.69 1158.26C2313.13 1158.26 2295.06 1166.32 2281.19 1178.24V1348.98H2206.27V1100.43H2277.48V1124.72C2292.33 1110.69 2312.55 1096.12 2340.19 1096.12C2355.62 1096.12 2365.68 1099.33 2376.33 1105.84V1171.18C2363.54 1164.12 2349.76 1158.17 2331.69 1158.17V1158.26Z" fill="#004FA3"/>
<path id="Vector_3" d="M2547.53 1349.63V1325.99C2524.7 1341.91 2494.89 1353.45 2471.07 1353.45C2427.7 1353.45 2387.53 1327.67 2387.53 1278.25C2387.53 1256.84 2396.7 1231.06 2429.3 1212.35C2454.82 1197.56 2496.59 1188.25 2543.74 1185.46C2542.64 1148.69 2515.03 1145.44 2492.8 1145.44C2462.99 1145.44 2428.8 1158.65 2404.37 1175.59L2419.03 1111.37C2447.24 1098.71 2481.43 1089.41 2514.43 1089.41C2576.24 1089.41 2618.01 1120.12 2618.01 1190.95V1349.54H2547.53V1349.63ZM2543.74 1231.06C2507.95 1234.32 2492.2 1238.23 2479.24 1244.74C2465.18 1251.35 2458.61 1261.77 2458.61 1275.46C2458.61 1286.44 2465.68 1301.24 2493.89 1301.24C2499.88 1301.24 2524.8 1295.19 2543.74 1280.95V1230.97V1231.06Z" fill="#004FA3"/>
<path id="Vector_4" d="M2867.74 1348.98V1215.34C2867.74 1172.06 2845.47 1155.62 2820.66 1155.62C2800.52 1155.62 2787.29 1162.77 2770.94 1176.42V1348.88H2696.32V1097.11H2767.24V1121.17C2785.73 1104.73 2809.08 1089.41 2845.08 1089.41C2888.47 1089.41 2942.46 1116.8 2942.46 1203.26V1348.88H2867.84L2867.74 1348.98Z" fill="#004FA3"/>
<path id="Vector_5" d="M3116.29 1357.93C3076.59 1357.93 3029.29 1344.21 3013.99 1337.58V1268.23C3040.09 1282.51 3079.79 1299.59 3115.69 1299.59C3138.59 1299.59 3151.59 1292.41 3151.59 1281.39C3151.59 1273.18 3147.19 1269.82 3127.69 1263.75C3062.39 1243.41 3044.99 1234.07 3029.19 1218.67C3017.79 1207.66 3009.59 1191.14 3009.59 1171.35C3009.59 1121.79 3053.69 1089.41 3113.99 1089.41C3155.29 1089.41 3183.09 1097.62 3206.99 1107.05V1172.01C3179.29 1156.61 3141.69 1146.71 3119.99 1146.71C3095.49 1146.71 3087.39 1154.93 3087.39 1164.35C3087.39 1173.13 3092.79 1177.61 3125.49 1188.53C3188.59 1209.99 3196.19 1214.94 3208.19 1224.27C3222.29 1235.85 3228.88 1255.07 3228.88 1275.42C3228.88 1304.54 3203.89 1357.93 3116.29 1357.93V1357.93Z" fill="#004FA3"/>
<path id="Vector_6" d="M3422.07 1358.47C3394.21 1358.47 3369.01 1343.6 3351.39 1329.77V1467.57H3275.88V1097.17H3347.65V1122.5C3363.69 1105.39 3388.9 1089.41 3418.33 1089.41C3497.09 1089.41 3539.92 1157.75 3539.92 1222.82C3539.92 1303.87 3483.7 1358.38 3422.07 1358.38V1358.47ZM3400.61 1156.72C3379.15 1156.72 3362.61 1170.46 3351.39 1183.18V1264.23C3368.52 1282.46 3385.16 1291.25 3403.37 1291.25C3443.54 1291.25 3460.67 1252.64 3460.67 1222.91C3460.67 1175.51 3426.41 1156.72 3400.71 1156.72H3400.61Z" fill="#004FA3"/>
<path id="Vector_7" d="M3730.12 1357.93C3645.49 1357.93 3591.38 1292.43 3591.38 1223.67C3591.38 1154.9 3645.49 1089.41 3730.12 1089.41C3814.74 1089.41 3868.85 1154.9 3868.85 1223.67C3868.85 1292.43 3814.74 1357.93 3730.12 1357.93ZM3730.12 1159.38C3692.47 1159.38 3670.59 1188.49 3670.59 1223.76C3670.59 1259.03 3692.47 1288.14 3730.12 1288.14C3767.76 1288.14 3789.65 1259.03 3789.65 1223.76C3789.65 1188.49 3767.76 1159.38 3730.12 1159.38Z" fill="#004FA3"/>
<path id="Vector_8" d="M4044.57 1158.26C4025.52 1158.26 4006.97 1166.32 3992.74 1178.24V1348.98H3915.84V1100.43H3988.93V1124.72C4004.17 1110.69 4024.92 1096.12 4053.29 1096.12C4069.13 1096.12 4079.45 1099.33 4090.38 1105.84V1171.18C4077.25 1164.12 4063.11 1158.17 4044.57 1158.17V1158.26Z" fill="#004FA3"/>
<path id="Vector_9" d="M4245.43 1353.45C4193.64 1353.45 4146.25 1325.11 4146.25 1265.28V1157.99H4101.57V1098.07H4146.25V1031.23H4223.09V1098.17H4304.84V1158.09H4223.09V1250.6C4223.09 1282.73 4239.42 1291.96 4265.06 1291.96C4286.9 1291.96 4304.84 1282.17 4314.15 1275.07V1339.88C4295.12 1348.56 4273.78 1353.45 4245.53 1353.45H4245.43Z" fill="#004FA3"/>
<path id="Vector_10" d="M2049.43 1627.28C2022.17 1627.28 2010.75 1642.96 2010.75 1664.08V1688.45H2086.51V1747.98H2010.75V1937.48H1933.89V1747.98H1893V1688.45H1933.89V1657C1933.89 1602.82 1970.36 1566.03 2033.59 1566.03C2064.16 1566.03 2085.9 1571.48 2103.34 1577.97V1640.76C2092.42 1634.83 2071.67 1627.19 2049.33 1627.19L2049.43 1627.28Z" fill="#004FA3"/>
<path id="Vector_11" d="M2255.5 1944.2C2170.87 1944.2 2116.77 1880.36 2116.77 1813.29C2116.77 1746.23 2170.87 1682.39 2255.5 1682.39C2340.13 1682.39 2394.24 1746.23 2394.24 1813.29C2394.24 1880.36 2340.13 1944.2 2255.5 1944.2V1944.2ZM2255.5 1750.49C2217.86 1750.49 2195.97 1778.91 2195.97 1813.29C2195.97 1847.68 2217.86 1876.09 2255.5 1876.09C2293.15 1876.09 2315.03 1847.68 2315.03 1813.29C2315.03 1778.91 2293.15 1750.49 2255.5 1750.49Z" fill="#004FA3"/>
<path id="Vector_12" d="M2585.03 1745.03C2565.73 1745.03 2546.95 1753.21 2532.53 1765.24V1937.48H2454.65V1686.72H2528.67V1711.26C2544.11 1697.11 2565.12 1682.39 2593.86 1682.39C2609.9 1682.39 2620.36 1685.66 2631.43 1692.21V1758.22C2618.23 1751.1 2603.81 1745.13 2585.03 1745.13V1745.03Z" fill="#004FA3"/>
<path id="Vector_13" d="M2810.45 1937.48V1572.74H2887.84V1864.76H3045.4V1937.48H2810.45Z" fill="#004FA3"/>
<path id="Vector_14" d="M3222.17 1944.2C3137.55 1944.2 3083.44 1880.36 3083.44 1813.29C3083.44 1746.23 3137.55 1682.39 3222.17 1682.39C3306.8 1682.39 3360.91 1746.23 3360.91 1813.29C3360.91 1880.36 3306.8 1944.2 3222.17 1944.2V1944.2ZM3222.17 1750.49C3184.53 1750.49 3162.64 1778.91 3162.64 1813.29C3162.64 1847.68 3184.53 1876.09 3222.17 1876.09C3259.82 1876.09 3281.7 1847.68 3281.7 1813.29C3281.7 1778.91 3259.82 1750.49 3222.17 1750.49Z" fill="#004FA3"/>
<path id="Vector_15" d="M3608.61 1937.48V1803.93C3608.61 1760.63 3585.72 1744.21 3560.23 1744.21C3539.55 1744.21 3525.95 1751.36 3509.16 1764.98V1937.48H3432.51V1685.64H3505.37V1709.71C3524.36 1693.28 3548.34 1677.91 3585.32 1677.91C3629.9 1677.91 3685.36 1705.26 3685.36 1791.75V1937.38H3608.71L3608.61 1937.48Z" fill="#004FA3"/>
<path id="Vector_16" d="M3940.3 1933.69V1905.25C3924.25 1921.93 3899.05 1937.48 3869.61 1937.48C3790.85 1937.48 3748.02 1871.4 3748.02 1808.06C3748.02 1733.35 3802.66 1679.12 3865.87 1679.12C3893.73 1679.12 3916.77 1689.36 3936.56 1704.34V1572.74H4012.07V1933.69H3940.3ZM3936.56 1770.9C3919.43 1753.17 3902.79 1744.54 3884.57 1744.54C3844.41 1744.54 3827.28 1778.96 3827.28 1807.97C3827.28 1854.14 3861.54 1871.87 3887.23 1871.87C3908.69 1871.87 3925.23 1858.41 3936.46 1846.08V1770.9H3936.56Z" fill="#004FA3"/>
<path id="Vector_17" d="M4197.79 1944.2C4113.17 1944.2 4059.06 1880.36 4059.06 1813.29C4059.06 1746.23 4113.17 1682.39 4197.79 1682.39C4282.42 1682.39 4336.53 1746.23 4336.53 1813.29C4336.53 1880.36 4282.42 1944.2 4197.79 1944.2V1944.2ZM4197.79 1750.49C4160.15 1750.49 4138.26 1778.91 4138.26 1813.29C4138.26 1847.68 4160.15 1876.09 4197.79 1876.09C4235.44 1876.09 4257.32 1847.68 4257.32 1813.29C4257.32 1778.91 4235.44 1750.49 4197.79 1750.49Z" fill="#004FA3"/>
<path id="Vector_18" d="M4575.28 1937.48V1803.93C4575.28 1760.63 4552.39 1744.21 4526.91 1744.21C4506.22 1744.21 4492.63 1751.36 4475.84 1764.98V1937.48H4399.18V1685.64H4472.04V1709.71C4491.03 1693.28 4515.01 1677.91 4551.99 1677.91C4596.57 1677.91 4652.04 1705.26 4652.04 1791.75V1937.38H4575.38L4575.28 1937.48Z" fill="#004FA3"/>
<circle id="round" cx="901.5" cy="1463.5" r="514.824" stroke="#004FA3" stroke-width="253.352"/>
<rect id="bar" x="114" y="1330" width="1578" height="264" fill="#004FA3"/>
</g>
</g>
</svg>
