<svg width="2668" height="1724" viewBox="0 0 2668 1724" fill="none" xmlns="http://www.w3.org/2000/svg">
<g id="vori logo text">
<rect width="2668" height="1724" fill="black"/>
<path id="o" d="M1710.57 1052.26C1686.3 1052.26 1665.22 1047.01 1647.33 1036.48C1629.45 1025.97 1615.54 1011.79 1605.63 993.982C1595.72 976.177 1590.76 956.188 1590.76 934.014C1590.76 910.181 1596.12 889.473 1606.8 871.944C1617.49 854.415 1631.93 840.813 1650.05 831.136C1668.2 821.459 1688.35 816.621 1710.55 816.621C1735.09 816.621 1756.27 821.818 1774.16 832.186C1792.04 842.554 1805.87 856.6 1815.65 874.267C1825.43 891.934 1830.33 911.868 1830.33 934.014C1830.33 958.151 1824.97 979.052 1814.29 996.719C1803.58 1014.39 1789.16 1028.07 1771.04 1037.75C1752.89 1047.43 1732.74 1052.26 1710.55 1052.26H1710.57ZM1710.57 988.729C1723.1 988.729 1733.68 984.112 1742.28 974.85C1750.89 965.588 1755.21 951.985 1755.21 934.042C1755.21 916.098 1750.89 902.965 1742.28 893.841C1733.68 884.718 1723.1 880.156 1710.57 880.156C1698.05 880.156 1687.47 884.718 1678.86 893.841C1670.25 902.965 1665.94 916.347 1665.94 934.042C1665.94 951.736 1670.25 965.615 1678.86 974.85C1687.47 984.112 1698.05 988.729 1710.57 988.729Z" fill="white"/>
<g id="v">
<path id="stem" d="M1404.21 742H1309.95L1409.12 1045.39H1511L1547.5 951.134H1465.08L1404.21 742Z" fill="white"/>
<path id="vdraw" d="M1499.5 965L1588 728" stroke="white" stroke-width="80"/>
<rect id="hide" x="1539" y="714" width="88" height="28" fill="black"/>
</g>
<path id="i" d="M2081 824.5V1045.5" stroke="white" stroke-width="75"/>
<g id="r">
<path id="stem_2" d="M1938.74 1045H1863.71V819H1935.19V846.096L1938.74 866.247V898.247L1948 906.747C1938.51 915.514 1938.74 921.438 1938.74 941.164V1045Z" fill="white"/>
<path id="rdraw" d="M1898.5 924.993C1941 851.247 1982 849.247 2007 849.247" stroke="white" stroke-width="60"/>
</g>
</g>
</svg>
