<svg width="2668" height="1724" viewBox="0 0 2668 1724" fill="none" xmlns="http://www.w3.org/2000/svg">
<g id="vori logo text">
<rect width="2668" height="1724" fill="black"/>
<path id="o" d="M1710.57 1029.4C1686.3 1029.4 1665.22 1024.14 1647.33 1013.61C1629.45 1003.1 1615.54 988.92 1605.63 971.114C1595.72 953.309 1590.76 933.319 1590.76 911.146C1590.76 887.313 1596.12 866.605 1606.8 849.076C1617.49 831.547 1631.93 817.945 1650.05 808.268C1668.2 798.591 1688.35 793.753 1710.55 793.753C1735.09 793.753 1756.27 798.95 1774.16 809.318C1792.04 819.686 1805.87 833.732 1815.65 851.399C1825.43 869.066 1830.33 889 1830.33 911.146C1830.33 935.282 1824.97 956.184 1814.29 973.851C1803.58 991.518 1789.16 1005.2 1771.04 1014.88C1752.89 1024.56 1732.74 1029.4 1710.55 1029.4H1710.57ZM1710.57 965.861C1723.1 965.861 1733.68 961.244 1742.28 951.982C1750.89 942.72 1755.21 929.117 1755.21 911.173C1755.21 893.23 1750.89 880.097 1742.28 870.973C1733.68 861.85 1723.1 857.288 1710.57 857.288C1698.05 857.288 1687.47 861.85 1678.86 870.973C1670.25 880.097 1665.94 893.479 1665.94 911.173C1665.94 928.868 1670.25 942.747 1678.86 951.982C1687.47 961.244 1698.05 965.861 1710.57 965.861Z" fill="white"/>
<path id="r" d="M1938.74 1023.51H1863.71V797.506H1935.19V824.602C1950.72 804.026 1974.67 793.753 2007.06 793.753V868.373C2000.21 867.551 1993.88 868.373 1989.39 868.373C1974.12 868.373 1962.55 872.397 1953.06 881.137C1943.57 889.904 1938.74 899.944 1938.74 919.67V1023.51Z" fill="white"/>
<path id="i" d="M2118.51 1023.51H2042.92V802.46H2118.51V1023.51Z" fill="white"/>
<path id="V" d="M1404.21 719.132H1309.95L1409.12 1022.52H1509.27L1607.45 719.132H1523.99L1465.08 928.266L1404.21 719.132Z" fill="white"/>
</g>
</svg>
