<svg width="2668" height="1724" viewBox="0 0 2668 1724" fill="none" xmlns="http://www.w3.org/2000/svg">
<g id="vori dots">
<rect width="2668" height="1724" fill="black"/>
<circle id="dot 1" cx="993.145" cy="546.164" r="45.1643" fill="#D9D9D9" fill-opacity="0.5"/>
<ellipse id="dot 13" cx="1220.51" cy="967.698" rx="44.7783" ry="45.1643" fill="#D9D9D9" fill-opacity="0.5"/>
<ellipse id="dot 8" cx="1220.51" cy="756.931" rx="44.7783" ry="45.1643" fill="#D9D9D9" fill-opacity="0.5"/>
<ellipse id="dot 18" cx="1220.51" cy="1178.46" rx="44.7783" ry="45.1643" fill="#D9D9D9" fill-opacity="0.5"/>
<ellipse id="dot 4" cx="1675.24" cy="546.164" rx="44.7783" ry="45.1643" fill="#D9D9D9" fill-opacity="0.5"/>
<ellipse id="dot 21" cx="1901.78" cy="546.164" rx="44.7783" ry="45.1643" fill="#D9D9D9" fill-opacity="0.5"/>
<ellipse id="dot 15" cx="1675.24" cy="967.698" rx="44.7783" ry="45.1643" fill="#D9D9D9" fill-opacity="0.5"/>
<ellipse id="dot 10 i" cx="1675.24" cy="756.931" rx="44.7783" ry="45.1643" fill="#D9D9D9" fill-opacity="0.8"/>
<ellipse id="dot 11" cx="1902.22" cy="756.931" rx="44.7783" ry="45.1643" fill="#D9D9D9" fill-opacity="0.5"/>
<ellipse id="dot 20" cx="1675.24" cy="1178.46" rx="44.7783" ry="45.1643" fill="#D9D9D9" fill-opacity="0.5"/>
<ellipse id="dot 2" cx="1220.51" cy="546.164" rx="44.7783" ry="45.1643" fill="#D9D9D9" fill-opacity="0.5"/>
<circle id="dot 12" cx="993.145" cy="967.698" r="45.1643" fill="#D9D9D9" fill-opacity="0.5"/>
<circle id="dot 7" cx="993.145" cy="756.931" r="45.1643" fill="#D9D9D9" fill-opacity="0.5"/>
<circle id="dot 6" cx="766.164" cy="756.931" r="45.1643" fill="#D9D9D9" fill-opacity="0.5"/>
<circle id="dot 17" cx="993.145" cy="1178.46" r="45.1643" fill="#D9D9D9" fill-opacity="0.5"/>
<circle id="dot 16" cx="766.164" cy="1178.46" r="45.1643" fill="#D9D9D9" fill-opacity="0.5"/>
<circle id=" dot 3" cx="1447.88" cy="546.164" r="45.1643" fill="#D9D9D9" fill-opacity="0.5"/>
<circle id="dot 14" cx="1447.88" cy="967.698" r="45.1643" fill="#D9D9D9" fill-opacity="0.5"/>
<circle id="dot 9" cx="1447.88" cy="756.931" r="45.1643" fill="#D9D9D9" fill-opacity="0.5"/>
<circle id="dot 19" cx="1447.88" cy="1178.46" r="45.1643" fill="#D9D9D9" fill-opacity="0.5"/>
</g>
</svg>
