<svg width="2668" height="1724" viewBox="0 0 2668 1724" fill="none" xmlns="http://www.w3.org/2000/svg">
<rect width="2668" height="1724" fill="black"/>
<circle cx="993.145" cy="546.164" r="45.1643" fill="#D9D9D9" fill-opacity="0.5"/>
<ellipse cx="1220.51" cy="967.698" rx="44.7783" ry="45.1643" fill="#D9D9D9" fill-opacity="0.5"/>
<ellipse cx="1220.51" cy="756.931" rx="44.7783" ry="45.1643" fill="#D9D9D9" fill-opacity="0.5"/>
<ellipse cx="1220.51" cy="1178.46" rx="44.7783" ry="45.1643" fill="#D9D9D9" fill-opacity="0.5"/>
<ellipse cx="1675.24" cy="546.164" rx="44.7783" ry="45.1643" fill="#D9D9D9" fill-opacity="0.5"/>
<ellipse cx="1675.24" cy="967.698" rx="44.7783" ry="45.1643" fill="#D9D9D9" fill-opacity="0.5"/>
<ellipse cx="1675.24" cy="756.931" rx="44.7783" ry="45.1643" fill="#D9D9D9" fill-opacity="0.8"/>
<ellipse cx="1902.22" cy="756.931" rx="44.7783" ry="45.1643" fill="#D9D9D9" fill-opacity="0.5"/>
<ellipse cx="1675.24" cy="1178.46" rx="44.7783" ry="45.1643" fill="#D9D9D9" fill-opacity="0.5"/>
<ellipse cx="1220.51" cy="546.164" rx="44.7783" ry="45.1643" fill="#D9D9D9" fill-opacity="0.5"/>
<circle cx="993.145" cy="967.698" r="45.1643" fill="#D9D9D9" fill-opacity="0.5"/>
<circle cx="993.145" cy="756.931" r="45.1643" fill="#D9D9D9" fill-opacity="0.5"/>
<circle cx="766.164" cy="756.931" r="45.1643" fill="#D9D9D9" fill-opacity="0.5"/>
<circle cx="993.145" cy="1178.46" r="45.1643" fill="#D9D9D9" fill-opacity="0.5"/>
<circle cx="766.164" cy="1178.46" r="45.1643" fill="#D9D9D9" fill-opacity="0.5"/>
<circle cx="1447.88" cy="546.164" r="45.1643" fill="#D9D9D9" fill-opacity="0.5"/>
<circle cx="1447.88" cy="967.698" r="45.1643" fill="#D9D9D9" fill-opacity="0.5"/>
<circle cx="1447.88" cy="756.931" r="45.1643" fill="#D9D9D9" fill-opacity="0.5"/>
<circle cx="1447.88" cy="1178.46" r="45.1643" fill="#D9D9D9" fill-opacity="0.5"/>
</svg>
