<svg width="623" height="535" viewBox="0 0 623 535" fill="none" xmlns="http://www.w3.org/2000/svg">
<g id="circle loader">
<rect width="623" height="535" fill="white"/>
<circle id="purple" cx="311" cy="279" r="189" stroke="#6400B3" stroke-width="8"/>
<circle id="blue" cx="311.5" cy="278.5" r="133.5" stroke="#00DBE9" stroke-width="8"/>
<circle id="red" cx="311.5" cy="278.5" r="63.5" stroke="#E90000" stroke-width="8"/>
<g id="gathering data">
<path d="M123.945 23.5625C122.461 23.1875 120.625 23 118.438 23C113.203 23 110.586 25.8359 110.586 31.5078C110.586 37.3359 113.062 40.25 118.016 40.25C120.266 40.25 122.242 39.8281 123.945 38.9844V23.5625ZM128.281 44C128.281 49.9375 124.508 52.9062 116.961 52.9062C113.93 52.9062 111.242 52.5156 108.898 51.7344V48.2188C111.289 49 113.992 49.3906 117.008 49.3906C121.633 49.3906 123.945 47.5938 123.945 44V42.8281C122.102 43.6094 120.117 44 117.992 44C110.211 44 106.32 39.8516 106.32 31.5547C106.32 23.4453 110.422 19.3906 118.625 19.3906C121.953 19.3906 125.172 19.7266 128.281 20.3984V44Z" fill="black"/>
<path d="M134.164 36.5703C134.164 31.5234 137.492 29 144.148 29C146.289 29 148.43 29.1562 150.57 29.4688V27.1484C150.57 24.3203 148.359 22.9062 143.938 22.9062C141.406 22.9062 138.812 23.2969 136.156 24.0781V20.5625C138.812 19.7812 141.406 19.3906 143.938 19.3906C151.25 19.3906 154.906 21.9375 154.906 27.0312V44H152.469L150.969 41.5625C148.516 43.1875 145.844 44 142.953 44C137.094 44 134.164 41.5234 134.164 36.5703ZM144.148 32.5156C140.383 32.5156 138.5 33.8438 138.5 36.5C138.5 39.1562 139.984 40.4844 142.953 40.4844C145.953 40.4844 148.492 39.6875 150.57 38.0938V32.9844C148.43 32.6719 146.289 32.5156 144.148 32.5156Z" fill="black"/>
<path d="M161.961 15.4062H164.68L165.617 19.3906H172.273V22.9062H166.297V37.0391C166.297 39.3359 167.289 40.4844 169.273 40.4844H172.273V44H168.148C164.023 44 161.961 41.7891 161.961 37.3672V15.4062Z" fill="black"/>
<path d="M177.805 44V10.4844H182.141V22.0625C184.234 20.2812 186.789 19.3906 189.805 19.3906C195.945 19.3906 199.016 22.4453 199.016 28.5547V44H194.68V28.4844C194.68 24.8281 192.859 23 189.219 23C186.734 23 184.375 24.0391 182.141 26.1172V44H177.805Z" fill="black"/>
<path d="M216.219 19.3906C223.219 19.3906 226.719 22.8516 226.719 29.7734C226.719 30.7578 226.648 31.8125 226.508 32.9375H209.234C209.234 37.9688 212.172 40.4844 218.047 40.4844C220.844 40.4844 223.328 40.1719 225.5 39.5469V43.0625C223.328 43.6875 220.688 44 217.578 44C209.125 44 204.898 39.8047 204.898 31.4141C204.898 23.3984 208.672 19.3906 216.219 19.3906ZM209.234 29.3281H222.547C222.453 25.0156 220.344 22.8594 216.219 22.8594C211.844 22.8594 209.516 25.0156 209.234 29.3281Z" fill="black"/>
<path d="M232.555 44V19.3906H235.484L236.258 22.5312C238.414 20.4375 241.008 19.3906 244.039 19.3906V23C241.102 23 238.719 24.0391 236.891 26.1172V44H232.555Z" fill="black"/>
<path d="M253.203 19.3906V44H248.867V19.3906H253.203ZM253.203 10.4844V14.5859H248.867V10.4844H253.203Z" fill="black"/>
<path d="M260.727 44V19.3906H263.656L264.43 22.5312C266.945 20.4375 269.711 19.3906 272.727 19.3906C278.867 19.3906 281.938 22.4453 281.938 28.5547V44H277.602V28.4844C277.602 24.8281 275.781 23 272.141 23C269.656 23 267.297 24.0391 265.062 26.1172V44H260.727Z" fill="black"/>
<path d="M305.445 23.5625C303.961 23.1875 302.125 23 299.938 23C294.703 23 292.086 25.8359 292.086 31.5078C292.086 37.3359 294.562 40.25 299.516 40.25C301.766 40.25 303.742 39.8281 305.445 38.9844V23.5625ZM309.781 44C309.781 49.9375 306.008 52.9062 298.461 52.9062C295.43 52.9062 292.742 52.5156 290.398 51.7344V48.2188C292.789 49 295.492 49.3906 298.508 49.3906C303.133 49.3906 305.445 47.5938 305.445 44V42.8281C303.602 43.6094 301.617 44 299.492 44C291.711 44 287.82 39.8516 287.82 31.5547C287.82 23.4453 291.922 19.3906 300.125 19.3906C303.453 19.3906 306.672 19.7266 309.781 20.3984V44Z" fill="black"/>
<path d="M345.078 24.4062C343.328 23.5625 341.328 23.1406 339.078 23.1406C334.125 23.1406 331.648 25.7734 331.648 31.0391C331.648 37.2734 334.125 40.3906 339.078 40.3906C341.328 40.3906 343.328 40.0859 345.078 39.4766V24.4062ZM349.414 42.5234C346.43 43.5078 342.75 44 338.375 44C331.047 44 327.383 39.7344 327.383 31.2031C327.383 23.3281 331.273 19.3906 339.055 19.3906C341.18 19.3906 343.188 19.7812 345.078 20.5625V10.4844H349.414V42.5234Z" fill="black"/>
<path d="M355.273 36.5703C355.273 31.5234 358.602 29 365.258 29C367.398 29 369.539 29.1562 371.68 29.4688V27.1484C371.68 24.3203 369.469 22.9062 365.047 22.9062C362.516 22.9062 359.922 23.2969 357.266 24.0781V20.5625C359.922 19.7812 362.516 19.3906 365.047 19.3906C372.359 19.3906 376.016 21.9375 376.016 27.0312V44H373.578L372.078 41.5625C369.625 43.1875 366.953 44 364.062 44C358.203 44 355.273 41.5234 355.273 36.5703ZM365.258 32.5156C361.492 32.5156 359.609 33.8438 359.609 36.5C359.609 39.1562 361.094 40.4844 364.062 40.4844C367.062 40.4844 369.602 39.6875 371.68 38.0938V32.9844C369.539 32.6719 367.398 32.5156 365.258 32.5156Z" fill="black"/>
<path d="M383.07 15.4062H385.789L386.727 19.3906H393.383V22.9062H387.406V37.0391C387.406 39.3359 388.398 40.4844 390.383 40.4844H393.383V44H389.258C385.133 44 383.07 41.7891 383.07 37.3672V15.4062Z" fill="black"/>
<path d="M397.742 36.5703C397.742 31.5234 401.07 29 407.727 29C409.867 29 412.008 29.1562 414.148 29.4688V27.1484C414.148 24.3203 411.938 22.9062 407.516 22.9062C404.984 22.9062 402.391 23.2969 399.734 24.0781V20.5625C402.391 19.7812 404.984 19.3906 407.516 19.3906C414.828 19.3906 418.484 21.9375 418.484 27.0312V44H416.047L414.547 41.5625C412.094 43.1875 409.422 44 406.531 44C400.672 44 397.742 41.5234 397.742 36.5703ZM407.727 32.5156C403.961 32.5156 402.078 33.8438 402.078 36.5C402.078 39.1562 403.562 40.4844 406.531 40.4844C409.531 40.4844 412.07 39.6875 414.148 38.0938V32.9844C412.008 32.6719 409.867 32.5156 407.727 32.5156Z" fill="black"/>
</g>
<rect id="dot1" x="428" y="35" width="9" height="9" fill="black"/>
<rect id="dot2" x="450" y="35" width="9" height="9" fill="black"/>
<rect id="dot3" x="472" y="35" width="9" height="9" fill="black"/>
</g>
</svg>
