<svg width="1384" height="440" viewBox="0 0 1384 440" fill="none" xmlns="http://www.w3.org/2000/svg">
<rect width="1383.78" height="439.32" fill="white"/>
<path d="M417.05 47H407.05V44H430.55V141H440.45V144H407V141H417L417.05 47Z" fill="black"/>
<path d="M513.5 114.95C513.5 131.74 499.7 145.54 483.2 145.54C466.2 145.54 452.75 131.74 452.75 114.49C452.75 97.55 466.4 83.6 483.05 83.6C500.15 83.6 513.5 97.4 513.5 114.95ZM470.5 93.35C469 96.35 468.85 98.45 468.85 114.49C468.85 131.89 469 133.54 471.25 136.84C473.65 140.44 477.4 142.09 483.25 142.09C489.4 142.09 493.6 139.99 495.85 135.64C497.35 132.79 497.5 130.54 497.5 114.79C497.5 97.25 497.35 95.45 495.1 92.3C492.7 88.7 488.95 87.05 482.95 87.05C476.95 87.05 472.75 89.15 470.45 93.35H470.5Z" fill="black"/>
<path d="M587.15 141.04C583.7 144.34 580.7 145.54 576.8 145.54C569.45 145.54 565.1 141.49 564.2 133.84C559.85 141.34 552.8 145.54 544.7 145.54C535.25 145.54 528.8 139.84 528.8 131.54C528.8 124.19 533.6 118.34 542.45 114.74C548 112.65 554.15 111.59 564.2 111.44V101.15C564.2 92.6 563.9 91.15 562.2 89.15C560.7 87.35 557.4 86.15 554.1 86.15C548.7 86.15 542.7 89.45 542.7 92.45C542.7 93.05 542.85 93.35 543.45 94.1C545.1 95.9 545.55 97.1 545.55 98.75C545.589 99.5822 545.459 100.414 545.168 101.194C544.877 101.975 544.43 102.688 543.855 103.291C543.28 103.894 542.589 104.374 541.823 104.702C541.057 105.03 540.233 105.2 539.4 105.2C538.533 105.228 537.669 105.075 536.864 104.751C536.059 104.427 535.33 103.939 534.723 103.319C534.117 102.698 533.646 101.958 533.341 101.146C533.035 100.333 532.902 99.4665 532.95 98.6C532.95 90.6 544.05 83.6 556.5 83.6C563.85 83.6 570.6 86 574.2 89.9C577.5 93.35 577.65 94.1 577.65 107.3V123.79C577.65 138.04 577.65 138.04 578.25 139.39C578.353 139.965 578.678 140.477 579.155 140.814C579.633 141.151 580.224 141.286 580.8 141.19C582.3 141.19 582.6 141.04 585.3 138.79L587.15 141.04ZM564.2 114.04C556.2 114.34 552.5 115.23 548.9 117.48C544.4 120.18 542.15 123.93 542.15 128.88C542.15 135.18 545.45 138.93 551.15 138.93C555.65 138.93 559.4 136.53 561.8 132.18C563.45 129.33 564.2 124.83 564.2 117.03V114.04Z" fill="black"/>
<path d="M655.75 141.04H665.75V144.04H642.2V132.64C638.9 140.89 632.6 145.54 624.65 145.54C610.85 145.54 599.45 131.44 599.45 114.35C599.45 97.26 610.7 83.6 624.35 83.6C631.85 83.6 637.25 87.35 642.2 95.75V47H632.15V44H655.75V141.04ZM617.95 91.7C616.15 94.7 615.55 100.25 615.55 116.44C615.55 130.24 615.85 133.24 617.35 136.24C618.14 137.938 619.386 139.383 620.948 140.416C622.51 141.449 624.328 142.028 626.2 142.09C635.2 142.09 641.95 130.24 641.95 114.35C641.95 98.75 635.2 87.05 626.05 87.05C624.415 87.0993 622.817 87.549 621.396 88.3597C619.975 89.1705 618.775 90.3174 617.9 91.7H617.95Z" fill="black"/>
<path d="M687.2 88.1H677.15V85.1H700.75V141.04H710.65V144.04H677.15V141.04H687.2V88.1ZM701.75 54.5C701.767 55.615 701.563 56.7222 701.149 57.7575C700.734 58.7928 700.119 59.7355 699.337 60.531C698.556 61.3264 697.624 61.9587 696.596 62.3911C695.569 62.8235 694.465 63.0475 693.35 63.05C688.55 63.05 685.1 59.3 685.1 54.35C685.056 53.2479 685.238 52.1484 685.635 51.1193C686.032 50.0902 686.636 49.1533 687.409 48.3664C688.182 47.5794 689.108 46.959 690.129 46.5435C691.151 46.1279 692.247 45.9259 693.35 45.95C694.465 45.9525 695.569 46.1765 696.596 46.6089C697.624 47.0414 698.556 47.6737 699.337 48.4691C700.119 49.2645 700.734 50.2072 701.149 51.2425C701.563 52.2778 701.767 53.3851 701.75 54.5V54.5Z" fill="black"/>
<path d="M732.2 88.1H722.15V85.1H745.75V92.95C750.7 86.5 756.55 83.65 764.5 83.65C770.65 83.65 776.64 85.9 779.94 89.5C783.24 93.25 784.14 96.7 784.14 107.8V141.09H794.04V144.09H761.6V141.09H770.6V117.95C770.6 100.11 770 94.71 767.75 91.71C766.897 90.5717 765.786 89.652 764.508 89.0262C763.23 88.4004 761.822 88.0864 760.4 88.11C758.237 88.2037 756.124 88.7935 754.226 89.8339C752.327 90.8743 750.693 92.3373 749.45 94.11C746.45 98.31 745.7 104.76 745.7 123.2V141.05H754.7V144.05H722.15V141.05H732.2V88.1Z" fill="black"/>
<path d="M847.39 140.74C853.84 140.74 856.54 141.34 859.54 143.29C863.14 145.84 865.09 150.49 865.09 156.64C865.09 173.29 852.19 184.84 833.44 184.84C818.44 184.84 806.44 176.74 806.44 166.84C806.44 160.84 810.79 156.04 818.29 153.64C811.09 151.69 807.04 147.04 807.04 140.44C807.04 133.69 811.39 127.39 820.24 121.69C813.79 116.6 810.94 111.35 810.94 104.6C810.94 92.75 821.14 83.6 834.64 83.6C841.69 83.6 847.39 85.7 851.74 89.75C855.94 85.25 858.94 83.6 862.54 83.6C866.59 83.6 869.44 86.3 869.44 90.35C869.474 91.0823 869.359 91.8138 869.104 92.5008C868.848 93.1879 868.456 93.8162 867.952 94.3484C867.448 94.8806 866.842 95.3055 866.17 95.5979C865.497 95.8903 864.773 96.0441 864.04 96.05C861.19 96.05 859.54 94.55 858.94 91.55C858.64 89.9 858.19 89.15 857.29 89.15C856.39 89.15 855.64 89.6 853.84 91.55C856.845 95.3517 858.483 100.054 858.49 104.9C858.49 117.19 848.59 125.59 834.19 125.59C830.351 125.692 826.544 124.869 823.09 123.19C816.49 127.39 813.04 131.59 813.04 135.49C813.04 139.69 815.59 141.04 823.24 141.04C824.74 141.04 824.74 141.04 834.94 140.89C835.54 140.74 838.69 140.74 843.04 140.74H847.39ZM815.59 165.34C815.59 174.64 822.94 181.09 833.89 181.09C848.89 181.09 860.44 171.94 860.44 159.94C860.44 155.29 858.19 153.64 852.04 153.64C851.44 153.64 848.59 153.64 844.84 153.79C841.84 153.94 830.84 154.09 829.09 154.09C826.282 154.177 823.472 154.026 820.69 153.64C817.09 157.39 815.59 160.84 815.59 165.34ZM826.54 90.95C825.54 93.35 825.19 98.3 825.19 108.35C825.19 119.29 827.29 122.44 834.49 122.44C838.24 122.44 840.94 121.24 842.49 118.69C843.84 116.44 844.29 112.85 844.29 103.1C844.29 94.1 843.99 91.4 842.64 89.6C841.29 87.5 838.89 86.6 834.64 86.6C830.39 86.6 827.59 87.95 826.54 90.95Z" fill="black"/>
<path d="M896.89 136.39C896.845 138.736 895.873 140.968 894.186 142.598C892.5 144.229 890.236 145.125 887.89 145.09C885.583 145.087 883.372 144.17 881.741 142.539C880.11 140.908 879.193 138.697 879.19 136.39C879.19 134.043 880.122 131.792 881.782 130.132C883.442 128.472 885.693 127.54 888.04 127.54C890.387 127.54 892.638 128.472 894.298 130.132C895.958 131.792 896.89 134.043 896.89 136.39Z" fill="black"/>
<path d="M937.09 136.39C937.045 138.736 936.073 140.968 934.386 142.598C932.7 144.229 930.436 145.125 928.09 145.09C925.783 145.087 923.572 144.17 921.941 142.539C920.31 140.908 919.393 138.697 919.39 136.39C919.39 134.043 920.322 131.792 921.982 130.132C923.642 128.472 925.893 127.54 928.24 127.54C930.587 127.54 932.838 128.472 934.498 130.132C936.158 131.792 937.09 134.043 937.09 136.39Z" fill="black"/>
<path d="M977.29 136.39C977.245 138.736 976.273 140.968 974.586 142.598C972.9 144.229 970.636 145.125 968.29 145.09C965.983 145.087 963.772 144.17 962.141 142.539C960.51 140.908 959.593 138.697 959.59 136.39C959.59 134.043 960.522 131.792 962.182 130.132C963.842 128.472 966.093 127.54 968.44 127.54C970.787 127.54 973.038 128.472 974.698 130.132C976.358 131.792 977.29 134.043 977.29 136.39V136.39Z" fill="black"/>
<rect x="96" y="207" width="1192" height="188" fill="#D6FACB"/>
<rect x="100" y="211" width="1184" height="180" stroke="black" stroke-width="8"/>
<path d="M137 337C193.594 341.154 245.927 343.269 301.111 329.222C312.39 326.351 328.718 320.7 330.556 307.222C331.149 302.873 334.31 285.916 331.889 282.111C324.623 270.693 312.749 290.664 313 297.444C313.305 305.671 323.257 311.975 330.111 315.222C353.55 326.325 384.203 327 409.667 327C441.355 327 473.207 322.795 504.333 317C516.825 314.674 544.532 312.52 549 298C550.818 292.093 560.341 277.18 544.889 279.111C530.6 280.897 522.908 295.801 532.333 307.111C546.679 324.325 574.754 331.424 595.889 333.444C632.148 336.91 668.9 340.185 705.222 335.889C740.009 331.774 788.039 321.623 810.556 291C819.355 279.032 797.185 273.806 789 277.444C784.444 279.469 784.024 285.024 785.444 289.444C790.058 303.798 801.928 307.022 815 311C848.779 321.28 889.689 321.23 924.778 318.111C968.859 314.193 1011.38 307.603 1054.22 296.222C1057.43 295.37 1099.42 281.292 1077.44 273.444C1066.77 269.632 1040.83 266.159 1036.56 279.444C1033.3 289.563 1033.03 293.032 1041 301C1054.05 314.054 1076.5 316.271 1093.67 319.444C1149.17 329.709 1210.91 331.032 1265 313" stroke="#006838" stroke-width="15" stroke-linecap="round"/>
</svg>
