<svg width="436" height="377" viewBox="0 0 436 377" fill="none" xmlns="http://www.w3.org/2000/svg">
<rect width="436" height="377" fill="white"/>
<path d="M161.723 256.306C176.316 270.9 176.316 294.561 161.723 309.154L135.299 282.73L108.875 256.306C123.468 241.713 147.129 241.713 161.723 256.306Z" fill="#A7E892"/>
<path d="M274.715 256.306C260.121 270.9 260.121 294.561 274.715 309.154L301.139 282.73L327.563 256.306C312.969 241.713 289.308 241.713 274.715 256.306Z" fill="#A7E892"/>
<path d="M276.152 136.128C261.558 121.534 261.558 97.8734 276.152 83.2798L302.576 109.704L329 136.128C314.406 150.721 290.746 150.721 276.152 136.128Z" fill="#A7E892"/>
<path d="M158.848 136.128C173.442 121.534 173.442 97.8734 158.848 83.2798L132.424 109.704L106 136.128C120.594 150.721 144.254 150.721 158.848 136.128Z" fill="#A7E892"/>
<path d="M218 307C197.565 307 181 290.435 181 270L218 270L255 270C255 290.435 238.435 307 218 307Z" fill="#47B588"/>
<path d="M327 191C327 211.435 310.435 228 290 228V191V154C310.435 154 327 170.565 327 191Z" fill="#47B588"/>
<path d="M218 66C238.435 66 255 82.5655 255 103L218 103L181 103C181 82.5655 197.565 66 218 66Z" fill="#47B588"/>
<path d="M109 189.5C109 168.789 125.565 152 146 152V189.5V227C125.565 227 109 210.211 109 189.5Z" fill="#47B588"/>
<path d="M218 218C238.435 218 255 235.013 255 256L218 256L181 256C181 235.013 197.565 218 218 218Z" fill="#374570"/>
<path d="M237 191C237 170.565 253.565 154 274 154V191V228C253.565 228 237 211.435 237 191Z" fill="#374570"/>
<path d="M218 155C197.565 155 181 138.435 181 118L218 118L255 118C255 138.435 238.435 155 218 155Z" fill="#374570"/>
<path d="M199 189.5C199 210.211 182.435 227 162 227V189.5V152C182.435 152 199 168.789 199 189.5Z" fill="#374570"/>
</svg>
