<svg width="436" height="377" viewBox="0 0 436 377" fill="none" xmlns="http://www.w3.org/2000/svg">
<path d="M161.848 245.424C176.442 260.018 176.442 283.679 161.848 298.272L135.424 271.848L109 245.424C123.594 230.83 147.254 230.83 161.848 245.424Z" fill="#A7E892"/>
<path d="M274.84 247.306C260.246 261.9 260.246 285.561 274.84 300.154L301.264 273.73L327.688 247.306C313.095 232.713 289.434 232.713 274.84 247.306Z" fill="#A7E892"/>
<path d="M276.152 136.128C261.558 121.534 261.558 97.8734 276.152 83.2798L302.576 109.704L329 136.128C314.406 150.721 290.746 150.721 276.152 136.128Z" fill="#A7E892"/>
<path d="M158.848 136.128C173.442 121.534 173.442 97.8734 158.848 83.2798L132.424 109.704L106 136.128C120.594 150.721 144.254 150.721 158.848 136.128Z" fill="#A7E892"/>
<path d="M218 296C197.565 296 181 279.435 181 259L218 259L255 259C255 279.435 238.435 296 218 296Z" fill="#47B588"/>
<path d="M324 191C324 211.435 307.435 228 287 228V191V154C307.435 154 324 170.565 324 191Z" fill="#47B588"/>
<path d="M218 85C238.435 85 255 101.565 255 122L218 122L181 122C181 101.565 197.565 85 218 85Z" fill="#47B588"/>
<path d="M112 189.5C112 168.789 128.565 152 149 152V189.5V227C128.565 227 112 210.211 112 189.5Z" fill="#47B588"/>
<path d="M218.125 209C238.56 209 255.125 226.013 255.125 247L218.125 247L181.125 247C181.125 226.013 197.691 209 218.125 209Z" fill="#374570"/>
<path d="M237 191C237 170.565 253.565 154 274 154V191V228C253.565 228 237 211.435 237 191Z" fill="#374570"/>
<path d="M218 171C197.565 171 181 154.435 181 134L218 134L255 134C255 154.435 238.435 171 218 171Z" fill="#374570"/>
<path d="M199 189.5C199 210.211 182.435 227 162 227V189.5V152C182.435 152 199 168.789 199 189.5Z" fill="#374570"/>
</svg>
