<svg xmlns="http://www.w3.org/2000/svg" viewBox="0 0 1658.45 638.89"><defs><style>.a{fill:#d6facb;}.b{fill:#231f20;}.c{fill:#ed1c24;}</style></defs><rect class="a" x="147.54" y="248.51" width="1373.94" height="270.83" rx="135.41"/><path class="b" d="M1386.07,514.33H284c-30.51-.07-60.4-10.15-84-29.74a131.91,131.91,0,0,1-46.82-114c4.19-43,30.87-81.85,68.93-102,19.77-10.47,41.47-15,63.73-15H1352.92c20.1,0,41.22-1.36,60.93,3,42,9.19,77.8,39.38,93.54,79.44a131.8,131.8,0,0,1-14.89,123.42c-24.29,34.46-64.45,54.71-106.43,55-6.43,0-6.45,10,0,10a140.4,140.4,0,0,0,57.73-268.41c-19.32-8.66-39.86-12.41-61-12.41H346.67q-30.56,0-61.13,0c-23.61,0-46.65,5-67.66,16C180.46,279,153,315.64,145.11,357.13a141.78,141.78,0,0,0,31.26,118.18c26.52,31.08,65.89,48.78,106.62,49,14.77.09,29.55,0,44.33,0H1386.07C1392.5,524.33,1392.51,514.33,1386.07,514.33Z"/><path class="c" d="M570.63,430.53c1.38-.59-.4.16-.67.27l-1.42.52c-1,.38-2.11.72-3.19,1a55.18,55.18,0,0,1-6.39,1.43c-.25,0-1.83.23-1,.16l-1,.11c-1.13.12-2.27.21-3.41.26a67,67,0,0,1-6.8,0c-1.13-.07-2.25-.15-3.38-.27l-1.43-.16c-.29,0-1.49-.06-.11,0a8.19,8.19,0,0,1-1.09-.16c-2.33-.36-4.65-.82-6.94-1.37a105.21,105.21,0,0,1-14.44-4.66l-1.72-.7c1,.41.1,0-.14-.06l-1-.42q-1.93-.86-3.84-1.77-3.72-1.79-7.34-3.78c-5.22-2.88-10.29-6.05-15.2-9.43q-3.78-2.61-7.43-5.37l-.78-.59-.56-.43-1.56-1.22q-2-1.56-3.9-3.15c-5.22-4.3-10.26-8.81-15.13-13.48Q453.18,380,446.1,372.2c-2.4-2.64-4.73-5.34-7.09-8-2-2.26-4.1-4.45-6-6.82.5.63,0,0-.08-.11l-.81-1.14c-.34-.51-.67-1-1-1.56s-.72-1.33-1.05-2c.39.79.05.13,0-.05-.14-.43-.3-.85-.42-1.28s-.21-.88-.31-1.32c-.06-.21-.09-.95,0,0a20.5,20.5,0,0,1-.06-2.22c0-.28.05-.57.06-.85,0,1-.06.34,0,.07a22.73,22.73,0,0,1,.63-2.46l.3-.79c-.33.9-.11.23,0,0,.33-.63.64-1.26,1-1.86.15-.24.31-.48.47-.72,0,0,.82-1.1.37-.53s.45-.52.43-.49c.28-.33.58-.65.88-.95.46-.47.94-.91,1.44-1.33.19-.16,1-.74.19-.18l.71-.51a24.19,24.19,0,0,1,3.82-2.13c-.9.4,0,0,.23-.07l1-.35c.62-.19,1.25-.35,1.89-.49a18.47,18.47,0,0,1,4.18-.36c.77,0,1.54,0,2.3.1-.12,0,1.54.18.87.09s1,.17.86.15a34.39,34.39,0,0,1,5,1.32,23.54,23.54,0,0,1,3.63,1.51,46.35,46.35,0,0,1,4.56,2.57c.74.47,1.46,1,2.16,1.46.25.18,1.57,1.2.84.61a46.82,46.82,0,0,1,3.56,3.19c1,1,2,2.14,2.92,3.25.1.12.58.74.07.07l.55.74q.81,1.11,1.53,2.28a36.38,36.38,0,0,1,2,3.57l.38.81c.59,1.29-.17-.56.09.25s.57,1.51.8,2.29a29.41,29.41,0,0,1,.87,3.8c-.17-1.07,0-.11,0,.16s.05.71.07,1.07c0,.71,0,1.42,0,2.12,0,.36-.06.71-.08,1.06,0,.83.24-1.18,0,.15-.12.63-.25,1.26-.41,1.88s-.39,1.24-.6,1.85c-.46,1.29.3-.49-.1.23-.24.41-.42.86-.66,1.28-.35.63-.73,1.25-1.14,1.84.06-.08-.88,1.17-.47.66s-.61.69-.53.61a31.83,31.83,0,0,1-3.49,3.38l-.76.62c.62-.5-.2.15-.36.26-.59.44-1.2.86-1.81,1.28-1.36.91-2.76,1.77-4.18,2.6q-4.6,2.7-9.43,5-2.36,1.14-4.74,2.17l-1,.44-.32.13c-1,.41-2,.82-3.06,1.21a134.71,134.71,0,0,1-19.94,5.94c-7,1.49-14.09,2.2-21,3.92-12.77,3.19-25.75,11.52-27.49,25.65-1.39,11.38,7.32,20.67,17.46,24.2a27.06,27.06,0,0,0,16,.61,27.68,27.68,0,0,0,13.64-9.23c7.51-9.29,9.9-21.92,7.33-33.5-2.83-12.76-11.33-23.69-20.8-32.33a147.52,147.52,0,0,0-32.09-22.07,160.34,160.34,0,0,0-75.67-17.66A148.27,148.27,0,0,0,284,339c-6.41,1-13.14,3.12-17.48,8.24a23.85,23.85,0,0,0-5.33,17.8,30,30,0,0,0,8.28,17.6,47.15,47.15,0,0,0,15.27,10.41c2.38,1.06,5.48.77,6.84-1.8,1.15-2.17.76-5.7-1.79-6.84a51.26,51.26,0,0,1-7.94-4.32c-.65-.44-1.3-.9-1.93-1.38.64.49,0,0-.1-.1l-.91-.76a33.47,33.47,0,0,1-3.3-3.33q-.39-.44-.75-.9c.13.17.49.69-.06-.11-.44-.64-.88-1.29-1.27-2s-.62-1.09-.9-1.66c0,0-.56-1.25-.27-.56s-.24-.67-.29-.81a22.18,22.18,0,0,1-.95-4c.15,1.07,0-.43,0-.81a22.05,22.05,0,0,1,0-2.57c0-.28.06-.56.07-.85-.06,1-.05.32,0,.07.14-.69.27-1.38.47-2.06.07-.26.15-.53.24-.8,0,0,.46-1.29.19-.57s.26-.54.26-.54c.19-.38.38-.74.6-1.1a15.75,15.75,0,0,1,.92-1.38c-.62.81,0,.08.15-.11s.48-.51.73-.76.42-.38.63-.56c1.13-1-.4.24.33-.25A18.76,18.76,0,0,1,278,351a17.66,17.66,0,0,1,3.36-1.19,43.92,43.92,0,0,1,4.82-1l1-.15c-.1,0,1.49-.21.8-.12s.93-.11.82-.1l1-.12c1.66-.2,3.31-.36,5-.5a149.59,149.59,0,0,1,18.94-.36c3.15.14,6.31.37,9.45.71l2.48.28,1,.13.4.05c1.64.24,3.29.5,4.93.78a157.85,157.85,0,0,1,18.44,4.38c3.1.95,6.18,2,9.22,3.12,3.28,1.22,5.24,2,8,3.28a152,152,0,0,1,16.77,8.8,146.83,146.83,0,0,1,14.91,10.38,97.73,97.73,0,0,1,13.43,12.85c.53.62,1,1.25,1.55,1.89l.11.14.72,1q1.42,2,2.69,4c.75,1.23,1.45,2.5,2.1,3.79.32.64.62,1.3.93,1.95.65,1.39-.19-.5.15.35.18.45.36.89.53,1.35a41.13,41.13,0,0,1,1.36,4.38c.14.53.26,1.06.37,1.6.07.34.13.68.19,1s.22,1.77.09.51a39.16,39.16,0,0,1,.07,7.88c0,.28-.06.55-.09.83.1-1.07.05-.33,0-.09-.12.68-.23,1.36-.37,2a36.47,36.47,0,0,1-1.1,4c-.2.58-.43,1.15-.65,1.73-.28.76.52-1.06-.05.12-.12.24-.23.49-.35.73a29.61,29.61,0,0,1-2,3.5q-.23.35-.45.66s-.81,1.06-.33.46-.36.42-.36.43l-.53.6a31.31,31.31,0,0,1-2.9,2.74c.87-.75-.51.34-.77.51-.51.34-1,.66-1.56.95s-1.15.61-1.75.88c1.14-.52-.45.13-.86.25a18.16,18.16,0,0,1-1.76.45l-.71.13c-1,.18.18,0,.24,0-.76.45-2.8.13-3.64.08-.33,0-2.29-.32-.86-.06-.49-.08-1-.16-1.45-.27a30.92,30.92,0,0,1-3.52-1.05c-1.13-.39.67.37,0,0-.27-.14-.56-.25-.83-.38-.49-.24-1-.5-1.45-.77s-.94-.56-1.39-.86l-.59-.42c-.83-.55.69.64-.27-.2a26.55,26.55,0,0,1-2.28-2.22l-.56-.67c.09.11.63.9.15.18-.36-.53-.71-1.05-1-1.61s-.46-.92-.69-1.39c.62,1.24-.1-.36-.22-.74s-.24-.9-.33-1.35c0-.16-.06-1.19-.07-.37s0-.4,0-.58a14.79,14.79,0,0,1,0-1.63s.17-1.41.05-.65.14-.64.14-.63q.18-.84.45-1.68c.11-.34.25-.68.36-1s.11-.27-.08.2c.12-.27.25-.53.38-.79.26-.52.55-1,.85-1.52.19-.31.39-.62.6-.92s.71-1,.13-.23a24.78,24.78,0,0,1,3.06-3.25c.44-.41.9-.79,1.37-1.17-.82.66.36-.24.44-.3q.36-.27.75-.51a32.77,32.77,0,0,1,3.91-2.22,30,30,0,0,1,3.68-1.43c1.73-.57,3.48-1,5.25-1.45,3.38-.79,6.8-1.35,10.23-1.91a149.72,149.72,0,0,0,40.67-12.41c11.54-5.51,25.56-12.95,28.78-26.47,2.93-12.35-3.47-25-12.28-33.4-9.75-9.26-24.62-15.84-38.14-12.1-12.27,3.39-22.51,16.08-18.78,29.17,1.79,6.29,6.34,11.22,10.63,16,4.62,5.1,9.09,10.32,13.85,15.29,17.5,18.25,37.4,35.14,60,46.68,17.88,9.11,38.27,15.16,58.41,11.37a60.3,60.3,0,0,0,12.72-4c2.42-1,3.14-4.77,1.8-6.84-1.62-2.51-4.26-2.9-6.84-1.8Z"/><path class="b" d="M572.3,88.05h-10v-3H585.8v97h9.9v3H562.25v-3h10Z"/><path class="b" d="M668.75,156c0,16.79-13.8,30.59-30.3,30.59-17,0-30.45-13.8-30.45-31.05,0-16.94,13.65-30.89,30.3-30.89C655.4,124.65,668.75,138.45,668.75,156Zm-43-21.6c-1.5,3-1.65,5.1-1.65,21.14,0,17.4.15,19.05,2.4,22.35,2.4,3.6,6.15,5.25,12,5.25,6.15,0,10.35-2.1,12.6-6.45,1.5-2.85,1.65-5.1,1.65-20.85,0-17.54-.15-19.34-2.4-22.49-2.4-3.6-6.15-5.25-12.15-5.25S628,130.2,625.7,134.4Z"/><path class="b" d="M742.4,182.09c-3.45,3.3-6.45,4.5-10.35,4.5-7.35,0-11.7-4.05-12.6-11.7-4.35,7.5-11.4,11.7-19.5,11.7-9.45,0-15.9-5.7-15.9-14,0-7.35,4.8-13.2,13.65-16.8,5.55-2.09,11.7-3.15,21.75-3.3V142.2c0-8.55-.3-10-2-12-1.5-1.8-4.8-3-8.1-3-5.4,0-11.4,3.3-11.4,6.3,0,.6.15.9.75,1.65,1.65,1.8,2.1,3,2.1,4.65a6.16,6.16,0,0,1-6.15,6.45,6.26,6.26,0,0,1-6.45-6.6c0-8,11.1-15,23.55-15,7.35,0,14.1,2.4,17.7,6.3,3.3,3.45,3.45,4.2,3.45,17.4v16.49c0,14.25,0,14.25.6,15.6a2.22,2.22,0,0,0,2.55,1.8c1.5,0,1.8-.15,4.5-2.4Zm-22.95-27c-8,.3-11.7,1.19-15.3,3.44-4.5,2.7-6.75,6.45-6.75,11.4,0,6.3,3.3,10.05,9,10.05,4.5,0,8.25-2.4,10.65-6.75,1.65-2.85,2.4-7.35,2.4-15.15Z"/><path class="b" d="M811,182.09h10v3H797.45v-11.4c-3.3,8.25-9.6,12.9-17.55,12.9-13.8,0-25.2-14.1-25.2-31.19s11.25-30.75,24.9-30.75c7.5,0,12.9,3.75,17.85,12.15V88.05H787.4v-3H811Zm-37.8-49.34c-1.8,3-2.4,8.55-2.4,24.74,0,13.8.3,16.8,1.8,19.8a10.13,10.13,0,0,0,8.85,5.85c9,0,15.75-11.85,15.75-27.74,0-15.6-6.75-27.3-15.9-27.3A10,10,0,0,0,773.15,132.75Z"/><path class="b" d="M842.45,129.15H832.4v-3H856v55.94h9.9v3H832.4v-3h10.05ZM857,95.55a8.42,8.42,0,0,1-8.4,8.55c-4.8,0-8.25-3.75-8.25-8.7A8.08,8.08,0,0,1,848.6,87,8.42,8.42,0,0,1,857,95.55Z"/><path class="b" d="M887.45,129.15H877.4v-3H901V134c4.95-6.45,10.8-9.3,18.75-9.3,6.15,0,12.14,2.25,15.44,5.85,3.3,3.75,4.2,7.2,4.2,18.3v33.29h9.9v3H916.85v-3h9V159c0-17.84-.6-23.24-2.85-26.24a9,9,0,0,0-7.35-3.6,14.12,14.12,0,0,0-10.95,6c-3,4.2-3.75,10.65-3.75,29.09v17.85h9v3H877.4v-3h10.05Z"/><path class="b" d="M1002.64,181.79c6.45,0,9.15.6,12.15,2.55,3.6,2.55,5.55,7.2,5.55,13.35,0,16.65-12.9,28.2-31.65,28.2-15,0-27-8.1-27-18,0-6,4.35-10.8,11.85-13.2-7.2-1.95-11.25-6.6-11.25-13.2,0-6.75,4.35-13.05,13.2-18.75-6.45-5.09-9.3-10.34-9.3-17.09,0-11.85,10.2-21,23.7-21,7.05,0,12.75,2.1,17.1,6.15,4.2-4.5,7.2-6.15,10.8-6.15,4.05,0,6.9,2.7,6.9,6.75a5.45,5.45,0,0,1-5.4,5.7c-2.85,0-4.5-1.5-5.1-4.5-.3-1.65-.75-2.4-1.65-2.4s-1.65.45-3.45,2.4a21.58,21.58,0,0,1,4.65,13.35c0,12.29-9.9,20.69-24.3,20.69a23.93,23.93,0,0,1-11.1-2.4c-6.6,4.2-10.05,8.4-10.05,12.3,0,4.2,2.55,5.55,10.2,5.55,1.5,0,1.5,0,11.7-.15.6-.15,3.75-.15,8.1-.15Zm-31.8,24.6c0,9.3,7.35,15.75,18.3,15.75,15,0,26.55-9.15,26.55-21.15,0-4.65-2.25-6.3-8.4-6.3-.6,0-3.45,0-7.2.15-3,.15-14,.3-15.75.3a49.84,49.84,0,0,1-8.4-.45C972.34,198.44,970.84,201.89,970.84,206.39ZM981.79,132c-1,2.4-1.35,7.35-1.35,17.4,0,10.94,2.1,14.09,9.3,14.09,3.75,0,6.45-1.2,8-3.75,1.35-2.25,1.8-5.84,1.8-15.59,0-9-.3-11.7-1.65-13.5-1.35-2.1-3.75-3-8-3S982.84,129,981.79,132Z"/><path class="b" d="M1052.14,177.44a8.87,8.87,0,0,1-9,8.7,8.71,8.71,0,0,1-8.7-8.7,8.85,8.85,0,1,1,17.7,0Z"/><path class="b" d="M1092.34,177.44a8.87,8.87,0,0,1-9,8.7,8.71,8.71,0,0,1-8.7-8.7,8.85,8.85,0,1,1,17.7,0Z"/><path class="b" d="M1132.54,177.44a8.87,8.87,0,0,1-9,8.7,8.71,8.71,0,0,1-8.7-8.7,8.85,8.85,0,1,1,17.7,0Z"/></svg>