<svg id="Layer_1" data-name="Layer 1" xmlns="http://www.w3.org/2000/svg" viewBox="0 0 1658.45 638.89"><defs><style>.cls-1{fill:#d6facb;}.cls-2{fill:#231f20;}.cls-3{fill:#006838;}</style></defs><rect class="cls-1" x="147.54" y="248.51" width="1373.94" height="270.83" rx="135.41"/><path class="cls-2" d="M1386.07,514.33H284c-30.51-.07-60.4-10.15-84-29.74a131.91,131.91,0,0,1-46.82-114c4.19-43,30.87-81.85,68.93-102,19.77-10.47,41.47-15,63.73-15H1352.92c20.1,0,41.22-1.36,60.93,3,42,9.19,77.8,39.38,93.54,79.44a131.8,131.8,0,0,1-14.89,123.42c-24.29,34.46-64.45,54.71-106.43,55-6.43,0-6.45,10,0,10a140.4,140.4,0,0,0,57.73-268.41c-19.32-8.66-39.86-12.41-61-12.41H346.67q-30.56,0-61.13,0c-23.61,0-46.65,5-67.66,16C180.46,279,153,315.64,145.11,357.13a141.78,141.78,0,0,0,31.26,118.18c26.52,31.08,65.89,48.78,106.62,49,14.77.09,29.55,0,44.33,0H1386.07C1392.5,524.33,1392.51,514.33,1386.07,514.33Z"/><path class="cls-3" d="M511.92,426.06c1.39-.6-.64.25-1,.38-.53.2-1.05.39-1.58.57-1.21.42-2.44.8-3.68,1.13s-2.28.57-3.43.8l-1.66.31-1,.16-.67.1.49-.07a77.84,77.84,0,0,1-15.49,0c-.37,0-2.3-.16-.83-.09a15.83,15.83,0,0,1-1.81-.28q-2.2-.36-4.38-.84c-2.75-.6-5.48-1.33-8.16-2.17s-5.58-1.88-8.31-3l-1.15-.47c-.19-.08-.87-.37.05,0l-2.29-1q-2.13-1-4.23-2a164.15,164.15,0,0,1-17.09-9.77q-4.38-2.85-8.6-5.93c-3.23-2.35-5-3.7-8-6.11A290.6,290.6,0,0,1,385,365c-2.53-2.82-5-5.68-7.54-8.5-1.06-1.18-2.11-2.38-3.1-3.63.62.79-.31-.43-.35-.49-.27-.37-.54-.76-.79-1.14-.5-.77-1-1.56-1.39-2.37,0,0-.61-1.29-.32-.63s-.25-.7-.24-.66c-.27-.79-.42-1.59-.62-2.4s0,1.13,0-.27c0-.44,0-.88,0-1.33s.06-.71.05-1.07,0-.28-.05.28c0-.28.09-.56.14-.84a17.39,17.39,0,0,1,.56-2c.05-.17.6-1.44.11-.38.18-.39.36-.77.56-1.14a21.21,21.21,0,0,1,1.11-1.83s.82-1.09.37-.53.62-.7.72-.81a20.2,20.2,0,0,1,1.54-1.53l1-.85c-.86.69.28-.19.39-.26.6-.42,1.23-.8,1.86-1.16.39-.21.78-.42,1.17-.61.21-.1,1.4-.59.41-.2a18.88,18.88,0,0,1,9.52-1.37c.51,0,1,.08,1.53.14-.84-.11.25,0,.45.09.93.16,1.85.37,2.77.61s1.66.48,2.48.76c1,.35,1.77.64,2.21.83a49.61,49.61,0,0,1,5.1,2.69c.74.46,1.47.93,2.19,1.42.43.29.86.59,1.28.9.2.15,1.08.85.41.31a43.77,43.77,0,0,1,3.72,3.35c.54.55,1.07,1.11,1.57,1.68q.46.51.9,1.05c.2.23.39.47.58.71-.26-.34-.29-.38-.08-.1a39.7,39.7,0,0,1,2.65,4c.37.65.73,1.31,1.07,2l.57,1.22c.23.53.24.54,0,0,.11.28.21.56.31.83a28.27,28.27,0,0,1,1.2,4.2c.09.43.16.85.23,1.28-.17-1.08,0-.12,0,.16a23.13,23.13,0,0,1,.08,2.76c0,.29,0,.57,0,.85s-.2,1.59,0,.36c-.11.7-.25,1.4-.43,2.09s-.47,1.52-.73,2.27.55-1-.11.22c-.31.57-.59,1.16-.93,1.71a19.36,19.36,0,0,1-1.34,2c.59-.77-.41.45-.44.48l-.65.72c-.67.7-1.37,1.38-2.1,2-.24.22-.49.43-.74.64s-.5.42-.76.62l-.16.12a85.51,85.51,0,0,1-9.53,5.91,121.88,121.88,0,0,1-21.41,9.28A153.36,153.36,0,0,1,358.41,395c-7.93,1.3-16,2.71-23.14,6.62-6.58,3.6-12.14,9.32-14.63,16.48A20.91,20.91,0,0,0,323,436.52c7.16,10.44,21.66,14.91,33.33,9.85,12.32-5.35,18.62-19.32,18.72-32.16.11-15-8.35-28.39-18.62-38.63A141.47,141.47,0,0,0,320.26,350c-26.73-13.47-57.38-19.55-87.22-16.45-7.89.82-16.25,1.74-22.68,6.83-5.63,4.45-8.32,11.86-8,18.91.8,16,14.54,26.08,28.34,31.22,27.26,10.17,58.12,1.91,81.87-13.17a133.41,133.41,0,0,0,17-12.87,5,5,0,0,0,0-7.07,5.12,5.12,0,0,0-7.07,0c-1.3,1.15-2.63,2.29-4,3.39-.61.5-1.24,1-1.86,1.49a4.78,4.78,0,0,1-.5.39l-1.15.86q-4.26,3.15-8.76,5.95t-9.26,5.18q-2.15,1.08-4.34,2.07c-.73.33-1.46.65-2.2,1l-.57.24-1.56.62a98.86,98.86,0,0,1-19.81,5.49l-1.39.21c-.17,0-1,.15-.05,0-.77.1-1.55.19-2.32.27q-2.76.29-5.55.39a77.91,77.91,0,0,1-9.9-.29l-1.15-.12c-.12,0-1.64-.21-.5,0-.76-.1-1.51-.22-2.27-.35q-2.51-.44-5-1.05c-1.65-.41-3.29-.89-4.9-1.42-.74-.25-1.48-.51-2.21-.78l-1.09-.42c-.18-.07-1.65-.69-.77-.31a50,50,0,0,1-9.15-5l-.77-.56c-1.24-.9.68.61-.48-.38-.6-.51-1.2-1-1.78-1.55s-1.23-1.2-1.81-1.84c-.26-.29-.52-.58-.77-.88l-.6-.72c.31.39.29.35-.06-.11a41.2,41.2,0,0,1-2.35-4c-.63-1.22.27.93-.16-.38-.09-.27-.19-.53-.28-.8a21.75,21.75,0,0,1-.66-2.49c-.09-.43-.17-.85-.23-1.28.16,1.08,0,.11,0-.16a23.24,23.24,0,0,1-.06-2.36c0-.35.23-2.42,0-1.22a19.06,19.06,0,0,1,.53-2.47c.11-.41.25-.8.38-1.2.28-.88,0-.15,0,0a15.54,15.54,0,0,1,1.06-2c.18-.3.38-.58.57-.87.73-1.1-.67.66.25-.29a16.64,16.64,0,0,1,1.87-1.79c-.65.5.2-.1.37-.21.33-.22.68-.42,1-.62s.85-.45,1.29-.66c.89-.43.34-.14.14-.06a32.58,32.58,0,0,1,5.66-1.59q1.22-.24,2.43-.42c.4-.07.81-.12,1.21-.18.93-.13-1.19.14.4-.06,1.82-.22,3.63-.43,5.46-.59,3.64-.33,7.3-.52,10.95-.58a154.16,154.16,0,0,1,21.9,1.25c-.83-.1,0,0,.15,0l1.48.22c.83.12,1.65.25,2.47.39q2.83.46,5.64,1,5.26,1.07,10.43,2.51c3.53,1,7,2.07,10.47,3.3q2.48.87,4.91,1.83l2.55,1c.11,0,.88.37.19.07l1.83.79a154.36,154.36,0,0,1,19,10q4.67,2.89,9.1,6.13c1.53,1.12,2.52,1.87,3.56,2.69,1.47,1.17,2.93,2.37,4.35,3.6a96.27,96.27,0,0,1,7.78,7.47q1.67,1.8,3.21,3.69a42.47,42.47,0,0,1,2.69,3.66c1,1.47,1.92,3,2.76,4.53.39.7.75,1.41,1.1,2.14.21.43.41.87.61,1.3.45.95-.17-.5.25.58a47,47,0,0,1,1.67,5c.18.69.35,1.38.49,2.08.05.26.11.54.15.81s.26,2,.13.71c.14,1.38.24,2.76.25,4.15,0,.83,0,1.66-.07,2.49,0,.28,0,.56-.07.83s-.25,2-.06.74a35.16,35.16,0,0,1-.82,4.06c-.17.66-.37,1.32-.58,2-.13.39-.26.77-.4,1.16-.05.13-.63,1.53-.36.92s-.24.51-.24.52l-.54,1.09c-.32.6-.65,1.18-1,1.76s-.71,1.13-1.1,1.68c-.11.16-.95,1.19-.18.27l-.77.91a26,26,0,0,1-3.17,3c.14-.11.82-.58.06-.05-.33.23-.66.46-1,.68-.68.44-1.38.85-2.1,1.22l-1,.49c.15-.07,1-.37.18-.09-.58.19-1.15.39-1.73.54a8.4,8.4,0,0,1-2.14.44c.12,0,1.18-.11.24-.05-.48,0-1,.07-1.45.08s-1.22,0-1.83,0c-.39,0-2.24-.36-.86-.06a36.07,36.07,0,0,1-4.1-1l-.87-.32c-1.18-.4,1,.48-.16-.06-.55-.26-1.1-.52-1.63-.81s-1.06-.6-1.56-.93c-.31-.2-.6-.41-.9-.61-1-.68.79.69-.13-.1a27.35,27.35,0,0,1-2.76-2.73c-.58-.65.05.07.13.19-.2-.28-.4-.56-.59-.85a17.88,17.88,0,0,1-1-1.8c-.13-.27-.5-1.33-.05-.06-.08-.22-.17-.43-.24-.65a14.29,14.29,0,0,1-.51-1.84,2.61,2.61,0,0,1-.16-.86l.09.64c0-.24,0-.48-.05-.71a16.87,16.87,0,0,1,0-2.25c.06-1,0-.19,0,0,.08-.43.16-.85.27-1.28a21.51,21.51,0,0,1,.64-2.07c.46-1.31-.48.82.18-.4.17-.32.32-.65.5-1a22.08,22.08,0,0,1,1.52-2.4c-.11.16-.58.7,0,0,.29-.34.58-.68.88-1,.5-.55,1-1.09,1.57-1.59s1.12-1,1.71-1.48c-.83.67.35-.24.43-.3.37-.26.75-.51,1.13-.76a31.17,31.17,0,0,1,9.3-4c7.72-2.21,15.79-2.89,23.63-4.6a136.46,136.46,0,0,0,22.47-7,126,126,0,0,0,21.66-11.09c6.45-4.27,12.12-9.71,14.61-17.23,4.52-13.64-3.78-28.65-14.19-37.16-11.8-9.63-29.65-15.64-43.49-6.5-6.31,4.17-10.86,10.56-11.7,18.17-.87,7.79,3.39,14.43,8.25,20.07,19.56,22.68,41.05,44.16,66.83,59.75,19.85,12,43.31,21,66.83,17.28A60.41,60.41,0,0,0,517,434.69c2.41-1,3.13-4.76,1.79-6.84-1.62-2.5-4.26-2.9-6.84-1.79Z"/><path class="cls-3" d="M1146.13,433.06c8.1,1.25,16,3.5,24.12,4.67a71.45,71.45,0,0,0,19.21.43c12-1.49,23.33-5.33,34.28-10.28a202.15,202.15,0,0,0,34.84-20.45,257.23,257.23,0,0,0,33.57-28.79c5-5.15,9.8-10.56,14.55-16s9.32-11.88,9-19.56S1311,328.94,1305,324.5c-6.35-4.66-14.24-5.95-21.91-4.87-14.33,2-28.2,12.36-34.47,25.38-3.14,6.52-4.62,13.85-2.82,21,1.92,7.62,7.43,13.33,13.68,17.73a110.57,110.57,0,0,0,20,10.73,141.77,141.77,0,0,0,23.57,7.87c7.94,1.86,16.1,2.57,24,4.61a36,36,0,0,1,9.65,3.72c.69.4,1.36.83,2,1.28.33.22.65.45,1,.69-.68-.51.14.12.3.25a32,32,0,0,1,3.5,3.49c1,1.12-.47-.75.35.47l.52.77a21.86,21.86,0,0,1,1.15,2c0,.1.62,1.48.24.48.11.28.22.57.31.86a18.86,18.86,0,0,1,.68,2.66c-.21-1.1,0,.37,0,.52s0,.51,0,.76a16.72,16.72,0,0,1-.09,1.87c.12-1.41-.11.42-.22.82s-.19.7-.31,1-.58,1.31,0,.15a23.59,23.59,0,0,1-1.8,3.12c-.69,1,.72-.75-.12.14-.17.18-.32.37-.49.55a19.39,19.39,0,0,1-1.59,1.55c-.23.21-.49.39-.71.6-.54.52,1-.65,0,0-.52.34-1,.71-1.58,1s-1.1.63-1.67.91c-.28.14-.59.26-.87.41s-.23.11.32-.13l-.72.28a23.9,23.9,0,0,1-3.7,1l-.76.14c-1.27.24,1.1-.06-.19,0-.77,0-1.53.11-2.29.1s-1.27-.05-1.91-.09c-.28,0-.93-.18.2,0l-1.13-.2c-.62-.14-1.23-.3-1.83-.49l-.72-.24c-1-.29.75.42-.4-.17s-2.4-1.48-3.63-2.16c-.69-.37.82.73-.16-.12l-.8-.68a22.78,22.78,0,0,1-1.64-1.62c-.48-.51-.93-1-1.37-1.59.72.9-.13-.21-.22-.34l-.48-.69a35.37,35.37,0,0,1-2.24-4.1c-.6-1.28.32.94-.16-.39-.1-.27-.21-.53-.31-.8-.24-.68-.46-1.37-.67-2.06a37,37,0,0,1-1-4.67c.17,1.06,0,.08,0-.19s-.08-.72-.1-1.09c-.06-.72-.1-1.45-.11-2.18a42.72,42.72,0,0,1,.21-4.8c.13-1.38-.13.66,0-.18.07-.35.11-.71.18-1.07.13-.71.29-1.41.47-2.11a44.67,44.67,0,0,1,1.71-5.29c.36-.94.16-.41.07-.21.2-.46.41-.92.62-1.37.36-.76.74-1.51,1.13-2.25a53.08,53.08,0,0,1,2.86-4.76c1-1.45,1.85-2.64,2.54-3.5,1.12-1.39,2.3-2.75,3.52-4.06a98.82,98.82,0,0,1,7.59-7.31q2-1.68,4-3.28c1.5-1.19,2.25-1.76,4-3q4.42-3.24,9.08-6.13a149.7,149.7,0,0,1,81.35-22.54c3.65.06,7.3.25,10.94.59q2.6.24,5.19.57c.11,0,1,.13.23,0l1.54.23c1,.15,1.9.32,2.85.51a33.32,33.32,0,0,1,5,1.43c.88.34-1-.52.47.21.38.19.76.38,1.14.59s.72.45,1.09.66.56.4.24.13l.4.33c.55.48,1,1,1.55,1.53.94,1-.46-.78.28.35.15.24.32.47.47.72a18.93,18.93,0,0,1,1,1.89c-.48-1,.08.26.13.41.14.41.27.83.38,1.25a19.33,19.33,0,0,1,.44,2.14c-.18-1.19,0,.25,0,.42s0,.59,0,.88a20.57,20.57,0,0,1-.06,2.22c0,.17-.22,1.61,0,.44-.08.44-.15.88-.25,1.31a20.06,20.06,0,0,1-.58,2.15c-.13.42-.29.83-.44,1.25.07-.19.4-.84,0,0a26.91,26.91,0,0,1-2.75,4.54c.5-.65-.15.17-.27.32-.26.31-.53.61-.81.91-.54.6-1.12,1.18-1.71,1.73s-1.22,1.09-1.84,1.62c-1.19,1,.4-.28-.34.28-.46.34-.93.68-1.41,1a46.72,46.72,0,0,1-4.23,2.57c-.72.39-1.46.77-2.2,1.12l-.89.42c-.16.07-1.86.81-1.07.48a65.93,65.93,0,0,1-9.5,3.11c-1.56.38-3.14.71-4.73,1l-1.19.2c.08,0-1.49.2-.77.11l-.77.09-1.43.15a76.16,76.16,0,0,1-10.13.24c-1.62-.07-3.24-.19-4.85-.35-.8-.08-1.61-.17-2.42-.28,1.07.14-.53-.08-.6-.09l-1.45-.24c-14.05-2.39-26-7.41-37.87-14.87q-4.26-2.68-8.31-5.69c-1.34-1-1.74-1.31-3.33-2.61q-2-1.65-4-3.38c-2-1.73-5.17-2.07-7.07,0-1.74,1.9-2.09,5.22,0,7.07,21.27,18.83,50.06,32.56,79,30.28a73.14,73.14,0,0,0,20.64-4.53c7-2.72,13.9-6.43,19.14-12a29.4,29.4,0,0,0,8.46-19.7,22.76,22.76,0,0,0-9.26-19.13c-6.41-4.59-15.08-5.26-22.68-6A149.52,149.52,0,0,0,1420,333a160,160,0,0,0-44.22,8.63,156.42,156.42,0,0,0-40,20.61c-11.94,8.6-23.79,19-30.1,32.61-5.82,12.56-6.44,27.56,1,39.66a29.79,29.79,0,0,0,15.48,12.81,26.67,26.67,0,0,0,17.65-.58c5.78-2.22,11.06-6,14.16-11.49,3.52-6.23,3.4-13.43.47-19.87s-8.81-11.56-15.08-14.57c-7.78-3.73-16.24-4.9-24.66-6.32a132.22,132.22,0,0,1-44.65-15.87,50.86,50.86,0,0,1-8.53-5.86,25.74,25.74,0,0,1-3.41-3.59c.45.59-.05-.08-.1-.18-.27-.41-.56-.81-.81-1.24s-.34-.57-.49-.86-.89-1.91-.51-1a21.73,21.73,0,0,1-1.2-4.33c.18,1,0,.06,0-.21s-.06-.74-.07-1.11a21.65,21.65,0,0,1,.07-2.67s.17-1.42.06-.66.13-.7.12-.67c.15-.74.32-1.48.53-2.21s.44-1.46.7-2.18c0-.09.59-1.5.18-.53.18-.43.38-.86.58-1.28a37.91,37.91,0,0,1,2.33-4.12c.48-.74,1-1.46,1.51-2.16s-.74.85.25-.32c.31-.37.61-.74.93-1.1a42.6,42.6,0,0,1,3.51-3.6c.65-.58,1.31-1.14,2-1.69.12-.09.76-.57.11-.08.48-.36,1-.71,1.47-1.06a41.62,41.62,0,0,1,9.64-5.05,25.36,25.36,0,0,1,10.22-1.66,18.89,18.89,0,0,1,8,2.18q1,.56,2,1.2c.08.06,1.26,1,.46.32.24.19.47.39.7.59a20.26,20.26,0,0,1,1.63,1.58q.46.5.9,1c-.64-.75.18.25.3.42a20.67,20.67,0,0,1,1.16,1.91,13.25,13.25,0,0,1,.58,1.2c-.39-.9,0,0,.06.24.27.78.44,1.56.63,2.35.05.23.07.95,0,0,0,.53.08,1,.08,1.57s0,.77,0,1.16c0,1.43.27-.8-.08.56-.19.76-.4,1.51-.62,2.26,0,.15-.36.89,0,.11-.19.43-.4.86-.62,1.27a27.47,27.47,0,0,1-1.48,2.45c-.18.27-.37.53-.56.8,0,0-1,1.28-.39.54-.52.65-1,1.28-1.59,1.91-1.19,1.38-2.43,2.73-3.65,4.08-2.41,2.69-4.75,5.43-7.21,8.08q-7.59,8.17-15.91,15.64a226.67,226.67,0,0,1-34,25.46,192.85,192.85,0,0,1-18,9.8q-2.05,1-4.13,1.89l-2.06.89c.9-.38,0,0-.23.09l-1.43.58q-4.17,1.67-8.44,3.05a99.39,99.39,0,0,1-16.08,3.78c1.46-.21-.68.08-1,.11l-2,.19c-1.29.1-2.57.16-3.86.18a63.9,63.9,0,0,1-10-.67c-7.9-1.2-15.62-3.36-23.52-4.58-2.58-.4-5.51.65-6.15,3.49-.55,2.39.72,5.73,3.49,6.15Z"/><path class="cls-3" d="M515.77,435.2a80.92,80.92,0,0,0,35.08-18.36c10.2-9.07,19.67-21.76,21.21-35.66,1.45-13.08-8.67-28.09-23.09-25.84-11.72,1.82-18.23,15.6-15.05,26.39,3.9,13.23,18.08,19.69,30.89,20.16,8,.3,16-1.42,23.74-3.08l24.55-5.25,24.55-5.25c1.6-.34,3.19-.7,4.79-1,1-.19-.13-.06-.48-.16-1.74-.5.16.12.87.39a16.85,16.85,0,0,0,3.21.84c6.16,1.07,12.11,2,17.21,6a16.68,16.68,0,0,1,6.79,13c0,9.83-7.88,19.37-17.9,19.93a24,24,0,0,1-15.37-4.8c-3.8-2.78-8.11-7.51-8.86-12.36-.55-3.53,1.68-7.93,3.72-11.21a78.8,78.8,0,0,1,10.47-12.86c8-8.27,16.2-16.53,27.65-19.55a45.57,45.57,0,0,1,19.2-.89c5.66,1,12.19,3.07,15.47,8.17,2.22,3.44,3,9.47-.86,12.12-3.36,2.32-8,.11-10.6-2.37-9.75-9.26,1.88-23.29,9.6-29.37a66.17,66.17,0,0,1,35.29-13.57c12.61-1,25.69,1.25,36.74,7.59,9.89,5.68,20.22,18.3,13.49,30.17-4.51,8-19.51,9-19.58-2.36a14.18,14.18,0,0,1,5.57-11.3c4.66-3.34,11-2.9,16.14-1.11,13,4.52,19.24,18.38,23.66,30.33,4.92,13.29,9.16,27.44,19.4,37.77,17.16,17.31,46.93,21.05,67,6.64a55,55,0,0,0,20.65-29.42c3.28-11.47,3.55-26-4.38-35.69-4-4.84-10.48-7.76-16.48-4.83-5.69,2.77-7.63,9.55-6.1,15.38,3.75,14.29,22.48,14.07,34.11,12.79a91.77,91.77,0,0,0,39.44-13.74c11.53-7.38,22.62-17.65,27.2-30.89,4.09-11.81.84-26.09-9.79-33.39s-23.88-2.57-31.08,7.17c-7.92,10.7-7.11,24.47-.44,35.55,7.23,12,19.22,19.67,31.09,26.48s24.74,13.69,31.33,26.38c4.88,9.39,4.85,21.89-5.74,27-3.35,1.63-7.71,2.43-11.28,1-4.49-1.8-6.08-6.83-5.41-11.32,2.06-13.87,18.53-18.19,30.12-20.37,28.94-5.46,57.83,4,85.22,12.36,14.08,4.31,28.2,8.51,42.69,11.19,6.29,1.16,9-8.48,2.66-9.65-30.42-5.62-59-18.39-89.57-23.42-14.87-2.44-29.92-2.89-44.76.09-13.45,2.69-28.4,8.05-34.24,21.6-4.89,11.35-1.16,26.25,12,29.55,10.65,2.67,23.11-3,28.4-12.54,6.81-12.35,1.86-27.52-6.23-37.91-9.14-11.72-22.83-18.2-35.31-25.65-11.1-6.64-23-15.5-26-28.89-2.07-9.42,5.12-24,16.46-22.2,5.1.82,8.82,5.27,10.49,9.92,2.13,5.94,1.07,12.27-1.77,17.79-6.34,12.29-18.86,21.27-31.13,27-12,5.56-27.07,9.11-40.27,7-2.64-.43-6-1.29-7.71-3.59-.9-1.24-1.8-4.18-.46-5.45,3.14-3,7.36,5.77,7.89,7.69,6.49,23.12-12,49.17-35.44,51.69a45.16,45.16,0,0,1-32.87-9.42c-11.2-9.12-15.27-23.31-20.09-36.33-5-13.39-11.54-27.57-24.68-34.7-11.5-6.23-27-6.29-35.47,4.94-6.83,9.1-6.86,23.57,3.42,30.2,11.23,7.24,26.52.51,31.28-11.17,5.4-13.21-1-27.87-11.65-36.32-10.93-8.68-24.95-13-38.78-13.74a78.54,78.54,0,0,0-39.92,8.62c-11.84,6.09-24.35,16.38-27.54,29.94-1.47,6.25-.89,12.94,2.9,18.27a22.53,22.53,0,0,0,13.9,9.2c13.68,2.48,22.41-11.18,18.08-23.49-4.83-13.73-21.11-18.11-34.22-18-14.16.15-26.37,5.62-36.66,15.11-8.27,7.63-16.9,15.82-22.37,25.78-2.49,4.53-4.38,9.7-3.81,14.94.62,5.82,4.16,11.28,8.1,15.46,8.47,9,22.49,13.81,34.41,9.34A30.87,30.87,0,0,0,680,408.14c.42-13.42-9.87-23.57-22-27.51a63.61,63.61,0,0,0-9.38-1.89,20.82,20.82,0,0,1-2.9-.72c1.5.49-.56-.35-1.17-.52-1.83-.51-3.69-.05-5.51.3-4.25.82-8.47,1.8-12.71,2.71-16.58,3.54-33.17,7.73-49.9,10.52-7.28,1.22-15.25,1.66-22.19-1.31-4.94-2.11-10-6.21-11-11.79-.76-4.22.92-9.27,4.58-11.7,4.77-3.17,10.2.7,12.62,5,3.35,5.9,1.44,13.33-1.39,19a63.67,63.67,0,0,1-12.44,16.85,70.79,70.79,0,0,1-33.54,18.48c-6.26,1.48-3.61,11.13,2.66,9.65Z"/><path class="cls-2" d="M572.3,88.05h-10v-3H585.8v97h9.9v3H562.25v-3h10Z"/><path class="cls-2" d="M668.75,156c0,16.79-13.8,30.59-30.3,30.59-17,0-30.45-13.8-30.45-31.05,0-16.94,13.65-30.89,30.3-30.89C655.4,124.65,668.75,138.45,668.75,156Zm-43-21.6c-1.5,3-1.65,5.1-1.65,21.14,0,17.4.15,19.05,2.4,22.35,2.4,3.6,6.15,5.25,12,5.25,6.15,0,10.35-2.1,12.6-6.45,1.5-2.85,1.65-5.1,1.65-20.85,0-17.54-.15-19.34-2.4-22.49-2.4-3.6-6.15-5.25-12.15-5.25S628,130.2,625.7,134.4Z"/><path class="cls-2" d="M742.4,182.09c-3.45,3.3-6.45,4.5-10.35,4.5-7.35,0-11.7-4.05-12.6-11.7-4.35,7.5-11.4,11.7-19.5,11.7-9.45,0-15.9-5.7-15.9-14,0-7.35,4.8-13.2,13.65-16.8,5.55-2.09,11.7-3.15,21.75-3.3V142.2c0-8.55-.3-10-2-12-1.5-1.8-4.8-3-8.1-3-5.4,0-11.4,3.3-11.4,6.3,0,.6.15.9.75,1.65,1.65,1.8,2.1,3,2.1,4.65a6.16,6.16,0,0,1-6.15,6.45,6.26,6.26,0,0,1-6.45-6.6c0-8,11.1-15,23.55-15,7.35,0,14.1,2.4,17.7,6.3,3.3,3.45,3.45,4.2,3.45,17.4v16.49c0,14.25,0,14.25.6,15.6a2.22,2.22,0,0,0,2.55,1.8c1.5,0,1.8-.15,4.5-2.4Zm-22.95-27c-8,.3-11.7,1.19-15.3,3.44-4.5,2.7-6.75,6.45-6.75,11.4,0,6.3,3.3,10.05,9,10.05,4.5,0,8.25-2.4,10.65-6.75,1.65-2.85,2.4-7.35,2.4-15.15Z"/><path class="cls-2" d="M811,182.09h10v3H797.45v-11.4c-3.3,8.25-9.6,12.9-17.55,12.9-13.8,0-25.2-14.1-25.2-31.19s11.25-30.75,24.9-30.75c7.5,0,12.9,3.75,17.85,12.15V88.05H787.4v-3H811Zm-37.8-49.34c-1.8,3-2.4,8.55-2.4,24.74,0,13.8.3,16.8,1.8,19.8a10.13,10.13,0,0,0,8.85,5.85c9,0,15.75-11.85,15.75-27.74,0-15.6-6.75-27.3-15.9-27.3A10,10,0,0,0,773.15,132.75Z"/><path class="cls-2" d="M842.45,129.15H832.4v-3H856v55.94h9.9v3H832.4v-3h10.05ZM857,95.55a8.42,8.42,0,0,1-8.4,8.55c-4.8,0-8.25-3.75-8.25-8.7A8.08,8.08,0,0,1,848.6,87,8.42,8.42,0,0,1,857,95.55Z"/><path class="cls-2" d="M887.45,129.15H877.4v-3H901V134c4.95-6.45,10.8-9.3,18.75-9.3,6.15,0,12.14,2.25,15.44,5.85,3.3,3.75,4.2,7.2,4.2,18.3v33.29h9.9v3H916.85v-3h9V159c0-17.84-.6-23.24-2.85-26.24a9,9,0,0,0-7.35-3.6,14.12,14.12,0,0,0-10.95,6c-3,4.2-3.75,10.65-3.75,29.09v17.85h9v3H877.4v-3h10.05Z"/><path class="cls-2" d="M1002.64,181.79c6.45,0,9.15.6,12.15,2.55,3.6,2.55,5.55,7.2,5.55,13.35,0,16.65-12.9,28.2-31.65,28.2-15,0-27-8.1-27-18,0-6,4.35-10.8,11.85-13.2-7.2-1.95-11.25-6.6-11.25-13.2,0-6.75,4.35-13.05,13.2-18.75-6.45-5.09-9.3-10.34-9.3-17.09,0-11.85,10.2-21,23.7-21,7.05,0,12.75,2.1,17.1,6.15,4.2-4.5,7.2-6.15,10.8-6.15,4.05,0,6.9,2.7,6.9,6.75a5.45,5.45,0,0,1-5.4,5.7c-2.85,0-4.5-1.5-5.1-4.5-.3-1.65-.75-2.4-1.65-2.4s-1.65.45-3.45,2.4a21.58,21.58,0,0,1,4.65,13.35c0,12.29-9.9,20.69-24.3,20.69a23.93,23.93,0,0,1-11.1-2.4c-6.6,4.2-10.05,8.4-10.05,12.3,0,4.2,2.55,5.55,10.2,5.55,1.5,0,1.5,0,11.7-.15.6-.15,3.75-.15,8.1-.15Zm-31.8,24.6c0,9.3,7.35,15.75,18.3,15.75,15,0,26.55-9.15,26.55-21.15,0-4.65-2.25-6.3-8.4-6.3-.6,0-3.45,0-7.2.15-3,.15-14,.3-15.75.3a49.84,49.84,0,0,1-8.4-.45C972.34,198.44,970.84,201.89,970.84,206.39ZM981.79,132c-1,2.4-1.35,7.35-1.35,17.4,0,10.94,2.1,14.09,9.3,14.09,3.75,0,6.45-1.2,8-3.75,1.35-2.25,1.8-5.84,1.8-15.59,0-9-.3-11.7-1.65-13.5-1.35-2.1-3.75-3-8-3S982.84,129,981.79,132Z"/><path class="cls-2" d="M1052.14,177.44a8.87,8.87,0,0,1-9,8.7,8.71,8.71,0,0,1-8.7-8.7,8.85,8.85,0,1,1,17.7,0Z"/><path class="cls-2" d="M1092.34,177.44a8.87,8.87,0,0,1-9,8.7,8.71,8.71,0,0,1-8.7-8.7,8.85,8.85,0,1,1,17.7,0Z"/><path class="cls-2" d="M1132.54,177.44a8.87,8.87,0,0,1-9,8.7,8.71,8.71,0,0,1-8.7-8.7,8.85,8.85,0,1,1,17.7,0Z"/></svg>