<svg id="Layer_1" data-name="Layer 1" xmlns="http://www.w3.org/2000/svg" viewBox="0 0 1383.78 1299.4"><defs><style>.cls-1{fill:#d6facb;}.cls-2,.cls-4{fill:#231f20;}.cls-3{fill:#006838;}.cls-4{font-size:150px;font-family:BodoniURW-Reg, Bodoni URW;letter-spacing:0.03em;}.cls-5{letter-spacing:0.04em;}.cls-6{letter-spacing:0.01em;}.cls-7{letter-spacing:0.03em;}</style></defs><rect class="cls-1" x="4.91" y="1023.53" width="1373.94" height="270.83" rx="135.41"/><path class="cls-2" d="M1386.07,514.33H284c-30.51-.07-60.4-10.15-84-29.74a131.91,131.91,0,0,1-46.82-114c4.19-43,30.87-81.85,68.93-102,19.77-10.47,41.47-15,63.73-15H1352.92c20.1,0,41.22-1.36,60.93,3,42,9.19,77.8,39.38,93.54,79.44a131.8,131.8,0,0,1-14.89,123.42c-24.29,34.46-64.45,54.71-106.43,55-6.43,0-6.45,10,0,10a140.4,140.4,0,0,0,57.73-268.41c-19.32-8.66-39.86-12.41-61-12.41H346.67q-30.56,0-61.13,0c-23.61,0-46.65,5-67.66,16C180.46,279,153,315.64,145.11,357.13a141.78,141.78,0,0,0,31.26,118.18c26.52,31.08,65.89,48.78,106.62,49,14.77.09,29.55,0,44.33,0H1386.07C1392.5,524.33,1392.51,514.33,1386.07,514.33Z" transform="translate(-142.63 775.03)"/><path class="cls-3" d="M511.92,426.06c1.39-.6-.64.25-1,.38-.53.2-1.05.39-1.58.57-1.21.42-2.44.8-3.68,1.13s-2.28.57-3.43.8l-1.66.31-1,.16-.67.1.49-.07a77.84,77.84,0,0,1-15.49,0c-.37,0-2.3-.16-.83-.09a15.83,15.83,0,0,1-1.81-.28q-2.2-.36-4.38-.84c-2.75-.6-5.48-1.33-8.16-2.17s-5.58-1.88-8.31-3l-1.15-.47c-.19-.08-.87-.37.05,0l-2.29-1q-2.13-1-4.23-2a164.15,164.15,0,0,1-17.09-9.77q-4.38-2.85-8.6-5.93c-3.23-2.35-5-3.7-8-6.11A290.6,290.6,0,0,1,385,365c-2.53-2.82-5-5.68-7.54-8.5-1.06-1.18-2.11-2.38-3.1-3.63.62.79-.31-.43-.35-.49-.27-.37-.54-.76-.79-1.14-.5-.77-1-1.56-1.39-2.37,0,0-.61-1.29-.32-.63s-.25-.7-.24-.66c-.27-.79-.42-1.59-.62-2.4s0,1.13,0-.27c0-.44,0-.88,0-1.33s.06-.71.05-1.07,0-.28-.05.28c0-.28.09-.56.14-.84a17.39,17.39,0,0,1,.56-2c.05-.17.6-1.44.11-.38.18-.39.36-.77.56-1.14a21.21,21.21,0,0,1,1.11-1.83s.82-1.09.37-.53.62-.7.72-.81a20.2,20.2,0,0,1,1.54-1.53l1-.85c-.86.69.28-.19.39-.26.6-.42,1.23-.8,1.86-1.16.39-.21.78-.42,1.17-.61.21-.1,1.4-.59.41-.2a18.88,18.88,0,0,1,9.52-1.37c.51,0,1,.08,1.53.14-.84-.11.25,0,.45.09.93.16,1.85.37,2.77.61s1.66.48,2.48.76c1,.35,1.77.64,2.21.83a49.61,49.61,0,0,1,5.1,2.69c.74.46,1.47.93,2.19,1.42.43.29.86.59,1.28.9.2.15,1.08.85.41.31a43.77,43.77,0,0,1,3.72,3.35c.54.55,1.07,1.11,1.57,1.68q.46.51.9,1.05c.2.23.39.47.58.71-.26-.34-.29-.38-.08-.1a39.7,39.7,0,0,1,2.65,4c.37.65.73,1.31,1.07,2l.57,1.22c.23.53.24.54,0,0,.11.28.21.56.31.83a28.27,28.27,0,0,1,1.2,4.2c.09.43.16.85.23,1.28-.17-1.08,0-.12,0,.16a23.13,23.13,0,0,1,.08,2.76c0,.29,0,.57,0,.85s-.2,1.59,0,.36c-.11.7-.25,1.4-.43,2.09s-.47,1.52-.73,2.27.55-1-.11.22c-.31.57-.59,1.16-.93,1.71a19.36,19.36,0,0,1-1.34,2c.59-.77-.41.45-.44.48l-.65.72c-.67.7-1.37,1.38-2.1,2-.24.22-.49.43-.74.64s-.5.42-.76.62l-.16.12a85.51,85.51,0,0,1-9.53,5.91,121.88,121.88,0,0,1-21.41,9.28A153.36,153.36,0,0,1,358.41,395c-7.93,1.3-16,2.71-23.14,6.62-6.58,3.6-12.14,9.32-14.63,16.48A20.91,20.91,0,0,0,323,436.52c7.16,10.44,21.66,14.91,33.33,9.85,12.32-5.35,18.62-19.32,18.72-32.16.11-15-8.35-28.39-18.62-38.63A141.47,141.47,0,0,0,320.26,350c-26.73-13.47-57.38-19.55-87.22-16.45-7.89.82-16.25,1.74-22.68,6.83-5.63,4.45-8.32,11.86-8,18.91.8,16,14.54,26.08,28.34,31.22,27.26,10.17,58.12,1.91,81.87-13.17a133.41,133.41,0,0,0,17-12.87,5,5,0,0,0,0-7.07,5.12,5.12,0,0,0-7.07,0c-1.3,1.15-2.63,2.29-4,3.39-.61.5-1.24,1-1.86,1.49a4.78,4.78,0,0,1-.5.39l-1.15.86q-4.26,3.15-8.76,5.95t-9.26,5.18q-2.15,1.08-4.34,2.07c-.73.33-1.46.65-2.2,1l-.57.24-1.56.62a98.86,98.86,0,0,1-19.81,5.49l-1.39.21c-.17,0-1,.15-.05,0-.77.1-1.55.19-2.32.27q-2.76.29-5.55.39a77.91,77.91,0,0,1-9.9-.29l-1.15-.12c-.12,0-1.64-.21-.5,0-.76-.1-1.51-.22-2.27-.35q-2.51-.44-5-1.05c-1.65-.41-3.29-.89-4.9-1.42-.74-.25-1.48-.51-2.21-.78l-1.09-.42c-.18-.07-1.65-.69-.77-.31a50,50,0,0,1-9.15-5l-.77-.56c-1.24-.9.68.61-.48-.38-.6-.51-1.2-1-1.78-1.55s-1.23-1.2-1.81-1.84c-.26-.29-.52-.58-.77-.88l-.6-.72c.31.39.29.35-.06-.11a41.2,41.2,0,0,1-2.35-4c-.63-1.22.27.93-.16-.38-.09-.27-.19-.53-.28-.8a21.75,21.75,0,0,1-.66-2.49c-.09-.43-.17-.85-.23-1.28.16,1.08,0,.11,0-.16a23.24,23.24,0,0,1-.06-2.36c0-.35.23-2.42,0-1.22a19.06,19.06,0,0,1,.53-2.47c.11-.41.25-.8.38-1.2.28-.88,0-.15,0,0a15.54,15.54,0,0,1,1.06-2c.18-.3.38-.58.57-.87.73-1.1-.67.66.25-.29a16.64,16.64,0,0,1,1.87-1.79c-.65.5.2-.1.37-.21.33-.22.68-.42,1-.62s.85-.45,1.29-.66c.89-.43.34-.14.14-.06a32.58,32.58,0,0,1,5.66-1.59q1.22-.24,2.43-.42c.4-.07.81-.12,1.21-.18.93-.13-1.19.14.4-.06,1.82-.22,3.63-.43,5.46-.59,3.64-.33,7.3-.52,10.95-.58a154.16,154.16,0,0,1,21.9,1.25c-.83-.1,0,0,.15,0l1.48.22c.83.12,1.65.25,2.47.39q2.83.46,5.64,1,5.26,1.07,10.43,2.51c3.53,1,7,2.07,10.47,3.3q2.48.87,4.91,1.83l2.55,1c.11,0,.88.37.19.07l1.83.79a154.36,154.36,0,0,1,19,10q4.67,2.89,9.1,6.13c1.53,1.12,2.52,1.87,3.56,2.69,1.47,1.17,2.93,2.37,4.35,3.6a96.27,96.27,0,0,1,7.78,7.47q1.67,1.8,3.21,3.69a42.47,42.47,0,0,1,2.69,3.66c1,1.47,1.92,3,2.76,4.53.39.7.75,1.41,1.1,2.14.21.43.41.87.61,1.3.45.95-.17-.5.25.58a47,47,0,0,1,1.67,5c.18.69.35,1.38.49,2.08.05.26.11.54.15.81s.26,2,.13.71c.14,1.38.24,2.76.25,4.15,0,.83,0,1.66-.07,2.49,0,.28,0,.56-.07.83s-.25,2-.06.74a35.16,35.16,0,0,1-.82,4.06c-.17.66-.37,1.32-.58,2-.13.39-.26.77-.4,1.16-.05.13-.63,1.53-.36.92s-.24.51-.24.52l-.54,1.09c-.32.6-.65,1.18-1,1.76s-.71,1.13-1.1,1.68c-.11.16-.95,1.19-.18.27l-.77.91a26,26,0,0,1-3.17,3c.14-.11.82-.58.06-.05-.33.23-.66.46-1,.68-.68.44-1.38.85-2.1,1.22l-1,.49c.15-.07,1-.37.18-.09-.58.19-1.15.39-1.73.54a8.4,8.4,0,0,1-2.14.44c.12,0,1.18-.11.24-.05-.48,0-1,.07-1.45.08s-1.22,0-1.83,0c-.39,0-2.24-.36-.86-.06a36.07,36.07,0,0,1-4.1-1l-.87-.32c-1.18-.4,1,.48-.16-.06-.55-.26-1.1-.52-1.63-.81s-1.06-.6-1.56-.93c-.31-.2-.6-.41-.9-.61-1-.68.79.69-.13-.1a27.35,27.35,0,0,1-2.76-2.73c-.58-.65.05.07.13.19-.2-.28-.4-.56-.59-.85a17.88,17.88,0,0,1-1-1.8c-.13-.27-.5-1.33-.05-.06-.08-.22-.17-.43-.24-.65a14.29,14.29,0,0,1-.51-1.84,2.61,2.61,0,0,1-.16-.86l.09.64c0-.24,0-.48-.05-.71a16.87,16.87,0,0,1,0-2.25c.06-1,0-.19,0,0,.08-.43.16-.85.27-1.28a21.51,21.51,0,0,1,.64-2.07c.46-1.31-.48.82.18-.4.17-.32.32-.65.5-1a22.08,22.08,0,0,1,1.52-2.4c-.11.16-.58.7,0,0,.29-.34.58-.68.88-1,.5-.55,1-1.09,1.57-1.59s1.12-1,1.71-1.48c-.83.67.35-.24.43-.3.37-.26.75-.51,1.13-.76a31.17,31.17,0,0,1,9.3-4c7.72-2.21,15.79-2.89,23.63-4.6a136.46,136.46,0,0,0,22.47-7,126,126,0,0,0,21.66-11.09c6.45-4.27,12.12-9.71,14.61-17.23,4.52-13.64-3.78-28.65-14.19-37.16-11.8-9.63-29.65-15.64-43.49-6.5-6.31,4.17-10.86,10.56-11.7,18.17-.87,7.79,3.39,14.43,8.25,20.07,19.56,22.68,41.05,44.16,66.83,59.75,19.85,12,43.31,21,66.83,17.28A60.41,60.41,0,0,0,517,434.69c2.41-1,3.13-4.76,1.79-6.84-1.62-2.5-4.26-2.9-6.84-1.79Z" transform="translate(-142.63 775.03)"/><path class="cls-3" d="M1146.13,433.06c8.1,1.25,16,3.5,24.12,4.67a71.45,71.45,0,0,0,19.21.43c12-1.49,23.33-5.33,34.28-10.28a202.15,202.15,0,0,0,34.84-20.45,257.23,257.23,0,0,0,33.57-28.79c5-5.15,9.8-10.56,14.55-16s9.32-11.88,9-19.56S1311,328.94,1305,324.5c-6.35-4.66-14.24-5.95-21.91-4.87-14.33,2-28.2,12.36-34.47,25.38-3.14,6.52-4.62,13.85-2.82,21,1.92,7.62,7.43,13.33,13.68,17.73a110.57,110.57,0,0,0,20,10.73,141.77,141.77,0,0,0,23.57,7.87c7.94,1.86,16.1,2.57,24,4.61a36,36,0,0,1,9.65,3.72c.69.4,1.36.83,2,1.28.33.22.65.45,1,.69-.68-.51.14.12.3.25a32,32,0,0,1,3.5,3.49c1,1.12-.47-.75.35.47l.52.77a21.86,21.86,0,0,1,1.15,2c0,.1.62,1.48.24.48.11.28.22.57.31.86a18.86,18.86,0,0,1,.68,2.66c-.21-1.1,0,.37,0,.52s0,.51,0,.76a16.72,16.72,0,0,1-.09,1.87c.12-1.41-.11.42-.22.82s-.19.7-.31,1-.58,1.31,0,.15a23.59,23.59,0,0,1-1.8,3.12c-.69,1,.72-.75-.12.14-.17.18-.32.37-.49.55a19.39,19.39,0,0,1-1.59,1.55c-.23.21-.49.39-.71.6-.54.52,1-.65,0,0-.52.34-1,.71-1.58,1s-1.1.63-1.67.91c-.28.14-.59.26-.87.41s-.23.11.32-.13l-.72.28a23.9,23.9,0,0,1-3.7,1l-.76.14c-1.27.24,1.1-.06-.19,0-.77,0-1.53.11-2.29.1s-1.27-.05-1.91-.09c-.28,0-.93-.18.2,0l-1.13-.2c-.62-.14-1.23-.3-1.83-.49l-.72-.24c-1-.29.75.42-.4-.17s-2.4-1.48-3.63-2.16c-.69-.37.82.73-.16-.12l-.8-.68a22.78,22.78,0,0,1-1.64-1.62c-.48-.51-.93-1-1.37-1.59.72.9-.13-.21-.22-.34l-.48-.69a35.37,35.37,0,0,1-2.24-4.1c-.6-1.28.32.94-.16-.39-.1-.27-.21-.53-.31-.8-.24-.68-.46-1.37-.67-2.06a37,37,0,0,1-1-4.67c.17,1.06,0,.08,0-.19s-.08-.72-.1-1.09c-.06-.72-.1-1.45-.11-2.18a42.72,42.72,0,0,1,.21-4.8c.13-1.38-.13.66,0-.18.07-.35.11-.71.18-1.07.13-.71.29-1.41.47-2.11a44.67,44.67,0,0,1,1.71-5.29c.36-.94.16-.41.07-.21.2-.46.41-.92.62-1.37.36-.76.74-1.51,1.13-2.25a53.08,53.08,0,0,1,2.86-4.76c1-1.45,1.85-2.64,2.54-3.5,1.12-1.39,2.3-2.75,3.52-4.06a98.82,98.82,0,0,1,7.59-7.31q2-1.68,4-3.28c1.5-1.19,2.25-1.76,4-3q4.42-3.24,9.08-6.13a149.7,149.7,0,0,1,81.35-22.54c3.65.06,7.3.25,10.94.59q2.6.24,5.19.57c.11,0,1,.13.23,0l1.54.23c1,.15,1.9.32,2.85.51a33.32,33.32,0,0,1,5,1.43c.88.34-1-.52.47.21.38.19.76.38,1.14.59s.72.45,1.09.66.56.4.24.13l.4.33c.55.48,1,1,1.55,1.53.94,1-.46-.78.28.35.15.24.32.47.47.72a18.93,18.93,0,0,1,1,1.89c-.48-1,.08.26.13.41.14.41.27.83.38,1.25a19.33,19.33,0,0,1,.44,2.14c-.18-1.19,0,.25,0,.42s0,.59,0,.88a20.57,20.57,0,0,1-.06,2.22c0,.17-.22,1.61,0,.44-.08.44-.15.88-.25,1.31a20.06,20.06,0,0,1-.58,2.15c-.13.42-.29.83-.44,1.25.07-.19.4-.84,0,0a26.91,26.91,0,0,1-2.75,4.54c.5-.65-.15.17-.27.32-.26.31-.53.61-.81.91-.54.6-1.12,1.18-1.71,1.73s-1.22,1.09-1.84,1.62c-1.19,1,.4-.28-.34.28-.46.34-.93.68-1.41,1a46.72,46.72,0,0,1-4.23,2.57c-.72.39-1.46.77-2.2,1.12l-.89.42c-.16.07-1.86.81-1.07.48a65.93,65.93,0,0,1-9.5,3.11c-1.56.38-3.14.71-4.73,1l-1.19.2c.08,0-1.49.2-.77.11l-.77.09-1.43.15a76.16,76.16,0,0,1-10.13.24c-1.62-.07-3.24-.19-4.85-.35-.8-.08-1.61-.17-2.42-.28,1.07.14-.53-.08-.6-.09l-1.45-.24c-14.05-2.39-26-7.41-37.87-14.87q-4.26-2.68-8.31-5.69c-1.34-1-1.74-1.31-3.33-2.61q-2-1.65-4-3.38c-2-1.73-5.17-2.07-7.07,0-1.74,1.9-2.09,5.22,0,7.07,21.27,18.83,50.06,32.56,79,30.28a73.14,73.14,0,0,0,20.64-4.53c7-2.72,13.9-6.43,19.14-12a29.4,29.4,0,0,0,8.46-19.7,22.76,22.76,0,0,0-9.26-19.13c-6.41-4.59-15.08-5.26-22.68-6A149.52,149.52,0,0,0,1420,333a160,160,0,0,0-44.22,8.63,156.42,156.42,0,0,0-40,20.61c-11.94,8.6-23.79,19-30.1,32.61-5.82,12.56-6.44,27.56,1,39.66a29.79,29.79,0,0,0,15.48,12.81,26.67,26.67,0,0,0,17.65-.58c5.78-2.22,11.06-6,14.16-11.49,3.52-6.23,3.4-13.43.47-19.87s-8.81-11.56-15.08-14.57c-7.78-3.73-16.24-4.9-24.66-6.32a132.22,132.22,0,0,1-44.65-15.87,50.86,50.86,0,0,1-8.53-5.86,25.74,25.74,0,0,1-3.41-3.59c.45.59-.05-.08-.1-.18-.27-.41-.56-.81-.81-1.24s-.34-.57-.49-.86-.89-1.91-.51-1a21.73,21.73,0,0,1-1.2-4.33c.18,1,0,.06,0-.21s-.06-.74-.07-1.11a21.65,21.65,0,0,1,.07-2.67s.17-1.42.06-.66.13-.7.12-.67c.15-.74.32-1.48.53-2.21s.44-1.46.7-2.18c0-.09.59-1.5.18-.53.18-.43.38-.86.58-1.28a37.91,37.91,0,0,1,2.33-4.12c.48-.74,1-1.46,1.51-2.16s-.74.85.25-.32c.31-.37.61-.74.93-1.1a42.6,42.6,0,0,1,3.51-3.6c.65-.58,1.31-1.14,2-1.69.12-.09.76-.57.11-.08.48-.36,1-.71,1.47-1.06a41.62,41.62,0,0,1,9.64-5.05,25.36,25.36,0,0,1,10.22-1.66,18.89,18.89,0,0,1,8,2.18q1,.56,2,1.2c.08.06,1.26,1,.46.32.24.19.47.39.7.59a20.26,20.26,0,0,1,1.63,1.58q.46.5.9,1c-.64-.75.18.25.3.42a20.67,20.67,0,0,1,1.16,1.91,13.25,13.25,0,0,1,.58,1.2c-.39-.9,0,0,.06.24.27.78.44,1.56.63,2.35.05.23.07.95,0,0,0,.53.08,1,.08,1.57s0,.77,0,1.16c0,1.43.27-.8-.08.56-.19.76-.4,1.51-.62,2.26,0,.15-.36.89,0,.11-.19.43-.4.86-.62,1.27a27.47,27.47,0,0,1-1.48,2.45c-.18.27-.37.53-.56.8,0,0-1,1.28-.39.54-.52.65-1,1.28-1.59,1.91-1.19,1.38-2.43,2.73-3.65,4.08-2.41,2.69-4.75,5.43-7.21,8.08q-7.59,8.17-15.91,15.64a226.67,226.67,0,0,1-34,25.46,192.85,192.85,0,0,1-18,9.8q-2.05,1-4.13,1.89l-2.06.89c.9-.38,0,0-.23.09l-1.43.58q-4.17,1.67-8.44,3.05a99.39,99.39,0,0,1-16.08,3.78c1.46-.21-.68.08-1,.11l-2,.19c-1.29.1-2.57.16-3.86.18a63.9,63.9,0,0,1-10-.67c-7.9-1.2-15.62-3.36-23.52-4.58-2.58-.4-5.51.65-6.15,3.49-.55,2.39.72,5.73,3.49,6.15Z" transform="translate(-142.63 775.03)"/><path class="cls-3" d="M515.77,435.2a80.92,80.92,0,0,0,35.08-18.36c10.2-9.07,19.67-21.76,21.21-35.66,1.45-13.08-8.67-28.09-23.09-25.84-11.72,1.82-18.23,15.6-15.05,26.39,3.9,13.23,18.08,19.69,30.89,20.16,8,.3,16-1.42,23.74-3.08l24.55-5.25,24.55-5.25c1.6-.34,3.19-.7,4.79-1,1-.19-.13-.06-.48-.16-1.74-.5.16.12.87.39a16.85,16.85,0,0,0,3.21.84c6.16,1.07,12.11,2,17.21,6a16.68,16.68,0,0,1,6.79,13c0,9.83-7.88,19.37-17.9,19.93a24,24,0,0,1-15.37-4.8c-3.8-2.78-8.11-7.51-8.86-12.36-.55-3.53,1.68-7.93,3.72-11.21a78.8,78.8,0,0,1,10.47-12.86c8-8.27,16.2-16.53,27.65-19.55a45.57,45.57,0,0,1,19.2-.89c5.66,1,12.19,3.07,15.47,8.17,2.22,3.44,3,9.47-.86,12.12-3.36,2.32-8,.11-10.6-2.37-9.75-9.26,1.88-23.29,9.6-29.37a66.17,66.17,0,0,1,35.29-13.57c12.61-1,25.69,1.25,36.74,7.59,9.89,5.68,20.22,18.3,13.49,30.17-4.51,8-19.51,9-19.58-2.36a14.18,14.18,0,0,1,5.57-11.3c4.66-3.34,11-2.9,16.14-1.11,13,4.52,19.24,18.38,23.66,30.33,4.92,13.29,9.16,27.44,19.4,37.77,17.16,17.31,46.93,21.05,67,6.64a55,55,0,0,0,20.65-29.42c3.28-11.47,3.55-26-4.38-35.69-4-4.84-10.48-7.76-16.48-4.83-5.69,2.77-7.63,9.55-6.1,15.38,3.75,14.29,22.48,14.07,34.11,12.79a91.77,91.77,0,0,0,39.44-13.74c11.53-7.38,22.62-17.65,27.2-30.89,4.09-11.81.84-26.09-9.79-33.39s-23.88-2.57-31.08,7.17c-7.92,10.7-7.11,24.47-.44,35.55,7.23,12,19.22,19.67,31.09,26.48s24.74,13.69,31.33,26.38c4.88,9.39,4.85,21.89-5.74,27-3.35,1.63-7.71,2.43-11.28,1-4.49-1.8-6.08-6.83-5.41-11.32,2.06-13.87,18.53-18.19,30.12-20.37,28.94-5.46,57.83,4,85.22,12.36,14.08,4.31,28.2,8.51,42.69,11.19,6.29,1.16,9-8.48,2.66-9.65-30.42-5.62-59-18.39-89.57-23.42-14.87-2.44-29.92-2.89-44.76.09-13.45,2.69-28.4,8.05-34.24,21.6-4.89,11.35-1.16,26.25,12,29.55,10.65,2.67,23.11-3,28.4-12.54,6.81-12.35,1.86-27.52-6.23-37.91-9.14-11.72-22.83-18.2-35.31-25.65-11.1-6.64-23-15.5-26-28.89-2.07-9.42,5.12-24,16.46-22.2,5.1.82,8.82,5.27,10.49,9.92,2.13,5.94,1.07,12.27-1.77,17.79-6.34,12.29-18.86,21.27-31.13,27-12,5.56-27.07,9.11-40.27,7-2.64-.43-6-1.29-7.71-3.59-.9-1.24-1.8-4.18-.46-5.45,3.14-3,7.36,5.77,7.89,7.69,6.49,23.12-12,49.17-35.44,51.69a45.16,45.16,0,0,1-32.87-9.42c-11.2-9.12-15.27-23.31-20.09-36.33-5-13.39-11.54-27.57-24.68-34.7-11.5-6.23-27-6.29-35.47,4.94-6.83,9.1-6.86,23.57,3.42,30.2,11.23,7.24,26.52.51,31.28-11.17,5.4-13.21-1-27.87-11.65-36.32-10.93-8.68-24.95-13-38.78-13.74a78.54,78.54,0,0,0-39.92,8.62c-11.84,6.09-24.35,16.38-27.54,29.94-1.47,6.25-.89,12.94,2.9,18.27a22.53,22.53,0,0,0,13.9,9.2c13.68,2.48,22.41-11.18,18.08-23.49-4.83-13.73-21.11-18.11-34.22-18-14.16.15-26.37,5.62-36.66,15.11-8.27,7.63-16.9,15.82-22.37,25.78-2.49,4.53-4.38,9.7-3.81,14.94.62,5.82,4.16,11.28,8.1,15.46,8.47,9,22.49,13.81,34.41,9.34A30.87,30.87,0,0,0,680,408.14c.42-13.42-9.87-23.57-22-27.51a63.61,63.61,0,0,0-9.38-1.89,20.82,20.82,0,0,1-2.9-.72c1.5.49-.56-.35-1.17-.52-1.83-.51-3.69-.05-5.51.3-4.25.82-8.47,1.8-12.71,2.71-16.58,3.54-33.17,7.73-49.9,10.52-7.28,1.22-15.25,1.66-22.19-1.31-4.94-2.11-10-6.21-11-11.79-.76-4.22.92-9.27,4.58-11.7,4.77-3.17,10.2.7,12.62,5,3.35,5.9,1.44,13.33-1.39,19a63.67,63.67,0,0,1-12.44,16.85,70.79,70.79,0,0,1-33.54,18.48c-6.26,1.48-3.61,11.13,2.66,9.65Z" transform="translate(-142.63 775.03)"/><path d="M1200.18-475.49c-1,.43,0,0,.22-.08l.94-.37c.52-.2,1-.39,1.57-.57,1.22-.42,2.44-.8,3.68-1.13s2.28-.57,3.44-.8l1.65-.31,1-.16.67-.1c-.52.07-.62.09-.3.05a78.6,78.6,0,0,1,15.49,0c.29,0,2.07.27,1,.11l1.81.28q2.2.36,4.38.84c2.75.6,5.47,1.33,8.16,2.17s5.58,1.88,8.31,3l1.14.47c.11,0,.76.31.12,0l2.3,1q2.13,1,4.23,2c26.37,13,48.51,32.92,68,54.76,2.53,2.82,5,5.68,7.54,8.5a34.41,34.41,0,0,1,5.74,7.78,13.85,13.85,0,0,1,1.26,3.86c.14.79,0-1,0,.45,0,.44.05.88,0,1.33s0,.71-.06,1.07,0,.28,0-.09l-.15.84a17.35,17.35,0,0,1-.55,2s-.52,1.31-.19.55c-.17.39-.36.77-.56,1.14a19.62,19.62,0,0,1-1.11,1.82c.07-.09-.76,1-.42.61.11-.15-.63.72-.78.88a20.2,20.2,0,0,1-1.54,1.53c-.32.29-.65.58-1,.85.6-.47-.55.38-.53.37a21.45,21.45,0,0,1-1.87,1.16c-.38.22-.77.42-1.16.61-.12.06-1.23.54-.58.28a20.67,20.67,0,0,1-9.7,1.39,32.15,32.15,0,0,1-9.8-2.53,42.77,42.77,0,0,1-5.1-2.69c-.75-.45-1.48-.93-2.2-1.42-.43-.29-.85-.59-1.28-.9,0,0-1.06-.82-.55-.42a40.76,40.76,0,0,1-3.72-3.35c-.54-.54-1.07-1.1-1.57-1.68q-.46-.51-.9-1.05c-.38-.45-.51-.61-.61-.75a38.07,38.07,0,0,1-2.65-4c-.38-.65-.73-1.31-1.07-2a17.72,17.72,0,0,1-1-2.25,29.53,29.53,0,0,1-1.2-4.2c-.08-.43-.16-.85-.22-1.28.11.75,0-.16,0-.35a23.13,23.13,0,0,1-.08-2.76c0-.28,0-.57,0-.85,0-.05.16-1.44,0-.55.1-.7.25-1.4.42-2.09a20,20,0,0,1,.74-2.27c.3-.74-.46.84.18-.39.31-.57.59-1.15.93-1.71,3.45-5.74,9.84-9.41,16-12.76A128.86,128.86,0,0,1,1330.4-439a153.36,153.36,0,0,1,23.46-5.49c7.87-1.29,15.89-2.67,23-6.55,6.42-3.51,11.88-9.08,14.31-16.05a20.27,20.27,0,0,0-2.3-17.91c-6.93-10.1-21.06-14.49-32.36-9.6-12.1,5.25-18.28,18.94-18.37,31.55-.11,14.78,8.27,28,18.41,38.13a141.13,141.13,0,0,0,36,25.46c26.64,13.42,57.16,19.44,86.87,16.35,7.68-.8,15.92-1.67,22.18-6.62,5.5-4.34,8.11-11.53,7.76-18.41-.78-15.62-14.33-25.51-27.81-30.54-27.11-10.1-57.72-1.88-81.33,13.1a133.77,133.77,0,0,0-16.91,12.76,4.33,4.33,0,0,0,0,6.07,4.37,4.37,0,0,0,6.07,0c19.86-17.58,46.78-30,73.7-27.44a62.13,62.13,0,0,1,9.08,1.59c1.65.41,3.28.89,4.9,1.42.74.25,1.47.51,2.2.78l1.1.42.93.38a49.18,49.18,0,0,1,9.16,5,31,31,0,0,1,6.52,6.3,18.56,18.56,0,0,1,3.53,7.85,14.92,14.92,0,0,1,.3,4c0,.29,0,.57,0,.86,0,.05-.16,1.44,0,.55a19.06,19.06,0,0,1-.53,2.47,11.52,11.52,0,0,1-4.28,6.45c-2.29,1.7-5.5,2.67-8.8,3.32a86,86,0,0,1-9.69,1.28c-3.64.33-7.3.52-11,.58a152.7,152.7,0,0,1-21.9-1.25c.48.06-.33-.05-.34-.05l-1.48-.21-2.47-.39q-2.82-.46-5.64-1.05-5.25-1.06-10.43-2.5t-10.47-3.3c-3.32-1.18-6.71-2.51-9.64-3.8A144.85,144.85,0,0,1,1368-426a78.9,78.9,0,0,1-13.79-15c-1-1.47-1.92-3-2.76-4.53-.39-.7-.75-1.42-1.1-2.14-.21-.43-.41-.87-.61-1.3a4.83,4.83,0,0,1-.32-.75,44.23,44.23,0,0,1-1.67-5c-.19-.69-.35-1.38-.49-2.08-.06-.26-.11-.54-.16-.81s-.25-1.78-.15-.9a41.06,41.06,0,0,1-.25-4.14c0-.84,0-1.67.08-2.5l.06-.83c0-.16.21-1.8.08-.93a35.6,35.6,0,0,1,.82-4.06,41.56,41.56,0,0,1,1.38-4.14c-.23.54.32-.67.28-.6l.54-1.1c.32-.59.65-1.18,1-1.75a17.37,17.37,0,0,1,2.16-3,26,26,0,0,1,3.17-3c-.15.12-.6.42.08-.06.33-.22.66-.46,1-.68a23.14,23.14,0,0,1,2.11-1.22c.34-.17.68-.34,1-.49-.16.07-.77.27,0,0,.58-.18,1.15-.39,1.74-.54a19.15,19.15,0,0,1,2.13-.44c-.17,0-.87.07,0,0,.48,0,1-.07,1.45-.08s1.22,0,1.83,0c.29,0,2,.25,1,.08a27.57,27.57,0,0,1,4.1,1l.87.32c1.13.39-.76-.39.33.13.55.26,1.1.52,1.63.81s1,.6,1.56.93l.9.61c1,.65-.61-.54.27.21a29.63,29.63,0,0,1,2.76,2.73c.53.59.07.09,0-.05.2.28.41.57.6.86a16.62,16.62,0,0,1,1,1.79c.08.17.49,1.22.13.24l.24.64a16.66,16.66,0,0,1,.5,1.84c.06.28.11.57.16.86-.17-1.09,0,.08,0,.27a18.81,18.81,0,0,1,0,2.25c-.06.88,0,.36,0,.17-.07.43-.16.85-.26,1.28a21.57,21.57,0,0,1-.65,2.07c-.44,1.25.37-.6-.24.57l-.5,1a22.17,22.17,0,0,1-1.53,2.4c.11-.15.42-.49-.14.18-.29.35-.57.69-.87,1-.51.56-1,1.09-1.58,1.6a18.86,18.86,0,0,1-3.41,2.64,34.7,34.7,0,0,1-9.47,4.11c-7.73,2.21-15.79,2.88-23.63,4.6a134.58,134.58,0,0,0-22.47,7,125.15,125.15,0,0,0-21.49,11c-6.29,4.17-11.86,9.48-14.29,16.81-4.44,13.41,3.79,28.12,14,36.47,11.56,9.44,29.08,15.34,42.64,6.39,6.09-4,10.52-10.21,11.35-17.56.85-7.59-3.31-14.07-8-19.57-19.52-22.63-41-44.08-66.68-59.64-19.67-11.89-43-20.88-66.29-17.21a59.27,59.27,0,0,0-14.22,4.24c-2.13.91-2.61,4-1.54,5.87,1.29,2.21,3.74,2.46,5.87,1.54Z" transform="translate(-142.63 775.03)"/><path d="M566.14-481.2c-8.1-1.24-16-3.49-24.12-4.66a70.86,70.86,0,0,0-19-.41c-11.82,1.48-23.09,5.29-33.92,10.18-25.57,11.54-48.72,29.15-68.27,49.14-5,5.14-9.8,10.56-14.55,16s-9.1,11.58-8.76,19.06,4.53,13.71,10.35,18c6.18,4.55,13.87,5.85,21.36,4.8,14.18-2,27.85-12.18,34.05-25.06,3.05-6.33,4.5-13.49,2.75-20.42-1.88-7.44-7.26-13-13.36-17.3a110.28,110.28,0,0,0-20-10.74,140.57,140.57,0,0,0-23.4-7.79c-7.93-1.86-16.1-2.58-24-4.62-6.63-1.71-12.5-4.47-16.74-9.61a16.08,16.08,0,0,1-3.43-7.54c.13.76-.06-.73-.06-.71,0-.25,0-.5,0-.76a16.55,16.55,0,0,1,.09-1.86c-.1,1,.16-.7.24-1s.2-.69.32-1c0-.12.49-1.22.09-.31a19.08,19.08,0,0,1,1.8-3.13c.67-1-.57.58.23-.28.17-.18.32-.37.49-.55a21.17,21.17,0,0,1,1.59-1.55c.23-.21.47-.4.71-.6.56-.45-.82.54.18-.12.53-.35,1-.71,1.58-1s1.11-.63,1.67-.91l.87-.41-.14.06.71-.28a24.21,24.21,0,0,1,3.7-1l.76-.14c1.23-.23-.86,0,.38,0,.77-.05,1.53-.11,2.3-.11s1.26.06,1.9.09c.18,0,.84.12,0,0l1.12.2c.62.14,1.24.3,1.84.49l.72.24c.47.19.48.18,0,0,.18.07.35.15.53.24a18.88,18.88,0,0,1,6.37,4.69c.48.51.94,1,1.37,1.59-.5-.64.32.47.33.48.17.23.32.46.48.7a33.19,33.19,0,0,1,2.24,4.1c.59,1.24-.24-.74.24.55l.3.81c.25.68.47,1.36.67,2.05a37.42,37.42,0,0,1,1,4.67c-.12-.72,0,.2,0,.38,0,.36.07.72.1,1.09.06.72.1,1.45.11,2.18a40.49,40.49,0,0,1-.22,4.8c-.13,1.38.08-.44,0,.37-.05.35-.11.71-.18,1.07-.13.71-.29,1.41-.46,2.11a42.41,42.41,0,0,1-1.72,5.29,49.58,49.58,0,0,1-4.75,8.76c-7.59,11.33-19.31,20.34-30.9,27.56A150.27,150.27,0,0,1,282-390.91a113.5,113.5,0,0,1-20.94-1.95c-3.18-.66-6.33-1.59-8.66-3.53a17.21,17.21,0,0,1-1.55-1.53c-.87-.92.31.56-.39-.49-.16-.24-.32-.47-.47-.72a16.21,16.21,0,0,1-1-1.89c.32.73-.2-.57-.21-.58-.13-.41-.26-.83-.37-1.25a17.55,17.55,0,0,1-.16-7.79,18.35,18.35,0,0,1,3.86-8.12c3.58-4.64,9.73-8.49,15.19-10.78,25.24-10.59,53.7-3.11,76.26,11a117.29,117.29,0,0,1,15.75,11.79,4.39,4.39,0,0,0,6.07,0,4.32,4.32,0,0,0,0-6.07c-21.14-18.71-49.74-32.34-78.54-30.07a72.44,72.44,0,0,0-20.45,4.5c-6.93,2.68-13.68,6.34-18.83,11.8a28.73,28.73,0,0,0-8.26,19.2,22.06,22.06,0,0,0,8.91,18.52c6.31,4.53,14.85,5.18,22.33,5.89a149.51,149.51,0,0,0,21.89.45,159,159,0,0,0,44-8.6,155.85,155.85,0,0,0,39.82-20.54c11.84-8.53,23.58-18.87,29.84-32.35,5.72-12.33,6.3-27.07-1-38.95a29,29,0,0,0-15.05-12.48,26,26,0,0,0-17.28.57c-5.61,2.15-10.74,5.85-13.74,11.16a20.9,20.9,0,0,0-.47,19.16c2.88,6.32,8.65,11.36,14.83,14.32,7.72,3.7,16.14,4.84,24.49,6.25A133.93,133.93,0,0,1,442.72-428a51.3,51.3,0,0,1,8.67,6,26.3,26.3,0,0,1,3.41,3.59c-.24-.32.23.34.22.32.28.41.55.82.8,1.24s.34.57.49.86.76,1.56.58,1.13a18.64,18.64,0,0,1,1.2,4.34c-.11-.71,0,.22,0,.4,0,.36.06.73.07,1.1a21.65,21.65,0,0,1-.07,2.67,20.53,20.53,0,0,1-.73,3.73,23.25,23.25,0,0,1-1.54,4.16,37.91,37.91,0,0,1-2.33,4.12,29.45,29.45,0,0,1-2.79,3.73,40.59,40.59,0,0,1-7.22,6.53c-6,4.15-13,7.08-20.22,6.81a17.87,17.87,0,0,1-4.35-.64,14.94,14.94,0,0,1-4.06-1.64,18.55,18.55,0,0,1-6.19-5.38,20.67,20.67,0,0,1-1.16-1.91,13.25,13.25,0,0,1-.58-1.2c.25.6-.09-.27-.13-.41a22.06,22.06,0,0,1-.63-2.35c0-.11-.11-.83,0-.18,0-.52-.08-1-.08-1.57a11.46,11.46,0,0,1,.77-4.17,21.24,21.24,0,0,1,2.19-4,75,75,0,0,1,6.3-7.47c2.41-2.69,4.76-5.43,7.21-8.08q7.59-8.18,15.91-15.64a233.39,233.39,0,0,1,34.1-25.57,190.34,190.34,0,0,1,18-9.8A125.74,125.74,0,0,1,507-473.91a96.21,96.21,0,0,1,16.07-3.78c-1,.14.92-.11,1.22-.14.66-.07,1.31-.13,2-.18,1.29-.1,2.57-.16,3.86-.19a62.65,62.65,0,0,1,10.24.7c7.9,1.2,15.62,3.36,23.52,4.58,2.29.35,4.62-.58,5.28-3,.56-2-.69-4.92-3-5.28Z" transform="translate(-142.63 775.03)"/><path d="M1196.88-483.33a80.16,80.16,0,0,0-34.77,18.17c-10,8.91-19.53,21.48-21,35.16-1.35,12.61,8.16,27.27,22.2,25.16,11.35-1.7,17.62-15.1,14.55-25.52-3.81-12.92-17.73-19.18-30.21-19.64-7.93-.3-15.84,1.4-23.55,3.05l-24.55,5.25L1075-436.45c-1.58.34-3.25.56-4.8,1-.76.22-.41.1.11.16,1.19.14,0-.08-.87-.4a16.75,16.75,0,0,0-3.2-.84c-6.25-1.07-12.21-2-17.39-6a17.41,17.41,0,0,1-7.14-13.61c0-10.19,8.21-20.1,18.61-20.64a24.74,24.74,0,0,1,15.73,4.9c3.93,2.86,8.43,7.77,9.18,12.78.63,4.14-1.7,8.38-3.79,11.76a79.54,79.54,0,0,1-10.58,13c-8.08,8.36-16.39,16.68-28,19.73a46.37,46.37,0,0,1-19.58.9c-5.85-1-12.51-3.24-15.89-8.51-2.43-3.77-3.08-10.22,1.11-13.08,3.65-2.49,8.63-.21,11.46,2.48,10.12,9.6-1.59,24.08-9.67,30.43a67.08,67.08,0,0,1-35.72,13.72c-12.73,1-26-1.29-37.1-7.69-10.26-5.89-20.65-18.9-13.74-31.14,4.86-8.61,20.83-9.35,20.9,2.73a14.87,14.87,0,0,1-5.92,11.9c-4.83,3.42-11.36,3-16.69,1.18-13.26-4.62-19.63-18.61-24.15-30.82-4.88-13.17-9.07-27.22-19.22-37.46-17-17.1-46.32-20.76-66.15-6.53a54.18,54.18,0,0,0-20.32,29c-3.2,11.15-3.6,25.61,4.19,35,3.77,4.55,9.91,7.55,15.62,4.72,5.4-2.66,7.24-9,5.78-14.58-3.65-13.92-22.17-13.51-33.43-12.27A90.85,90.85,0,0,0,745.3-431c-11.36,7.28-22.36,17.42-26.88,30.47-4,11.51-.9,25.45,9.47,32.59S751-365.44,758-374.88c7.78-10.49,7-23.95.44-34.83-7.16-11.9-19.07-19.48-30.84-26.23-12-6.9-24.93-13.83-31.58-26.63-5-9.73-4.94-22.65,6-28,3.58-1.75,8.2-2.58,12-1,4.77,2,6.49,7.32,5.74,12.12-2.19,14.14-18.7,18.62-30.61,20.87-29.08,5.48-58.07-3.94-85.6-12.36-14.07-4.31-28.2-8.51-42.69-11.19-5.4-1-7.71,7.27-2.28,8.28,30.41,5.62,59,18.39,89.57,23.41,14.74,2.43,29.68,2.87,44.39-.08,13.24-2.65,28.1-7.88,33.81-21.28,4.68-11,1.13-25.32-11.56-28.5-10.35-2.6-22.47,2.91-27.6,12.21-6.65,12.06-1.75,26.91,6.13,37.05,9.08,11.69,22.73,18.12,35.16,25.54,11.24,6.72,23.33,15.75,26.28,29.31,2.15,9.91-5.37,25-17.24,23.09-5.38-.86-9.34-5.51-11.08-10.43-2.17-6.14-1.1-12.63,1.84-18.34,6.39-12.38,19-21.47,31.38-27.23,12.13-5.64,27.43-9.23,40.82-7.05,2.79.46,6.23,1.39,8,3.77,1.15,1.53,2,4.68.57,6.31-3.6,4-8.51-5.45-9.19-7.86-6.61-23.58,12.2-50,36.13-52.58a45.79,45.79,0,0,1,33.37,9.62c11.29,9.21,15.41,23.5,20.27,36.64S901-413,914-406c11.13,6,26.3,6.21,34.5-4.68,6.6-8.78,6.79-22.79-3.17-29.24-10.82-7-25.61-.5-30.24,10.75-5.36,13,1.06,27.29,11.47,35.63,10.72,8.59,24.69,12.8,38.28,13.53a77.83,77.83,0,0,0,39.57-8.51c11.68-6,24.05-16.14,27.21-29.52,1.43-6.08.86-12.56-2.83-17.73a21.78,21.78,0,0,0-13.48-8.87c-13.17-2.37-21.36,10.85-17.21,22.61,4.74,13.4,20.77,17.6,33.54,17.46,14-.15,26-5.54,36.16-14.9,8.22-7.59,16.82-15.73,22.26-25.63,2.43-4.43,4.27-9.46,3.72-14.58-.61-5.62-4.1-10.94-7.9-15-8.3-8.82-22-13.56-33.72-9.15a30.14,30.14,0,0,0-19,26.82c-.41,13.1,9.64,23,21.44,26.83a63.74,63.74,0,0,0,9.37,1.89,19,19,0,0,1,2.91.71c-1.15-.38.72.4,1.17.53a11.16,11.16,0,0,0,5.13-.3c4.25-.82,8.48-1.8,12.71-2.71,16.59-3.54,33.17-7.73,49.9-10.52,7.43-1.24,15.48-1.68,22.57,1.31,5.18,2.19,10.44,6.47,11.52,12.28.85,4.52-1,9.93-4.91,12.51-5.11,3.34-11-.61-13.58-5.22-7-12.39,5.51-28.42,13.94-36.74A71.53,71.53,0,0,1,1199.16-475c5.37-1.27,3.1-9.55-2.28-8.28Z" transform="translate(-142.63 775.03)"/><path d="M409.51-444.29a208.39,208.39,0,0,0,10.05-49.91,220.77,220.77,0,0,0-2.06-50.91,218.43,218.43,0,0,0-13.33-48.52,212.48,212.48,0,0,0-24.41-44.62c-5-6.92-10.27-13.9-16.46-19.8s-14.06-11.58-22.73-13.48c-8.12-1.78-17.13.06-22.86,6.42a26,26,0,0,0-6.11,20.42A27.74,27.74,0,0,0,323.06-625c6.61,4.83,15.37,6.68,23.44,6,18.28-1.45,32.23-14.42,42.16-28.89a133.66,133.66,0,0,0,20.58-49.28,139.38,139.38,0,0,0,.19-54.15,126.58,126.58,0,0,0-3.15-12.59,4.38,4.38,0,0,0-5.28-3,4.36,4.36,0,0,0-3,5.28,129.41,129.41,0,0,1-9,96.55c-7.35,14.09-17.39,28.59-32.34,35a40,40,0,0,1-4.24,1.44,34.91,34.91,0,0,1-5.2,1,37.53,37.53,0,0,1-5.51.13,21,21,0,0,1-4.72-.66,23.71,23.71,0,0,1-9.56-4.28c-1.12-.81.5.49-.54-.44l-.68-.59a21.18,21.18,0,0,1-1.83-1.84c-.06-.06-.87-1.06-.32-.34-.24-.31-.46-.63-.68-1A22.27,22.27,0,0,1,322-639c-.18-.35-.35-.71-.5-1.07.37.85-.12-.34-.16-.43-.26-.74-.5-1.49-.69-2.25s-.3-1.28-.41-1.92c0-.12-.17-1.4-.07-.42-.05-.52-.1-1-.13-1.56a23,23,0,0,1,0-2.35c0-.39,0-.78.08-1.17,0-.13.21-1.38,0-.39a24,24,0,0,1,1.31-4.8c-.35.89.14-.25.19-.36s.22-.45.34-.67c.36-.66.78-1.28,1.19-1.91.65-1-.55.56.25-.32.25-.28.49-.57.75-.84s.54-.54.81-.79,1.35-1,.62-.53a14.88,14.88,0,0,1,8.69-2.89,23.5,23.5,0,0,1,9.89,2.41A47.72,47.72,0,0,1,353.8-655c6.07,5,11.41,11.58,15.92,17.56a208.41,208.41,0,0,1,38,85.93,208.27,208.27,0,0,1-3,93.68q-1.55,5.7-3.43,11.3a4.34,4.34,0,0,0,3,5.28,4.38,4.38,0,0,0,5.28-3Z" transform="translate(-142.63 775.03)"/><path d="M1344.41-454.54a205.36,205.36,0,0,1-8.42-93.33,210.77,210.77,0,0,1,33.38-88.36,180.87,180.87,0,0,1,14.23-18.67c5.23-6,11.08-11.18,18.31-14.52a27.55,27.55,0,0,1,4.77-1.64c.45-.11.89-.21,1.35-.3,0,0,1.46-.22.65-.12a20.5,20.5,0,0,1,3.13-.14c.45,0,.89,0,1.33.09.9.07.38,0,.19,0a18.2,18.2,0,0,1,2.62.64,8.59,8.59,0,0,1,2,.82c.4.21.79.43,1.17.67.14.08,1.43,1,.71.43a15.25,15.25,0,0,1,1.68,1.53c.26.27.5.56.76.84.8.88-.41-.68.24.32.38.58.76,1.14,1.1,1.75.15.28.3.55.44.84s.21.45.32.68q-.28-.68,0,0a27.12,27.12,0,0,1,1.17,4.44c-.17-1,0,.27,0,.4,0,.38.07.77.09,1.16a25,25,0,0,1,0,2.74c0,.39-.06.78-.1,1.18.08-.86,0,0,0,.22-.13.71-.27,1.41-.45,2.11a21.84,21.84,0,0,1-.69,2.26c0,.08-.52,1.28-.15.43-.21.48-.44.95-.68,1.41a20.5,20.5,0,0,1-1.2,2c-.22.33-.44.65-.68,1,.55-.72-.26.28-.31.34a24.44,24.44,0,0,1-1.83,1.84l-.68.6c-.41.32-.47.38-.19.17l-.72.52a23.68,23.68,0,0,1-9.64,4.13c-.44.09-.89.18-1.33.25,0,0-1.46.2-.67.11-.75.09-1.51.15-2.28.19a41.07,41.07,0,0,1-6-.17c-1.47-.15.77.15-.69-.1-.45-.07-.91-.15-1.36-.24-.9-.18-1.8-.39-2.69-.63a35.34,35.34,0,0,1-4.69-1.64,47.42,47.42,0,0,1-10.1-6.23A76.94,76.94,0,0,1,1363-662.3a129.54,129.54,0,0,1-18.39-95.21q1.23-6.12,3.05-12.08a4.36,4.36,0,0,0-3-5.29,4.38,4.38,0,0,0-5.28,3,135.19,135.19,0,0,0-5,53.28,139.08,139.08,0,0,0,15.87,51.72c8.4,15.47,20.16,30.73,37,37.31,14.75,5.75,35.28,2.56,43.45-12.36,7.39-13.51,2.8-32.93-13.15-37.42-8.45-2.37-17.34.52-24.56,5-7.57,4.69-13.7,11.07-19.29,17.92a209,209,0,0,0-27.1,43,221.49,221.49,0,0,0-16.27,48.25,223,223,0,0,0-4.88,50.74,211.39,211.39,0,0,0,7.09,50.41q1.59,5.94,3.56,11.77a4.39,4.39,0,0,0,5.28,3,4.34,4.34,0,0,0,3-5.28Z" transform="translate(-142.63 775.03)"/><text class="cls-4" transform="translate(417.07 960.12)">loadi<tspan class="cls-5" x="313.19" y="0">n</tspan><tspan class="cls-6" x="398.24" y="0">g</tspan><tspan class="cls-7" x="465.74" y="0">...</tspan></text></svg>