<svg xmlns="http://www.w3.org/2000/svg" viewBox="0 0 2915.8 949.23"><defs><style>.a{fill:#d6facb;}.b{fill:#231f20;}.c{fill:#006838;}</style></defs><rect class="a" x="5" y="163.46" width="1373.94" height="270.83"/><path class="b" d="M1521.48,514.33H168.25c-6,0-12.35-.52-18.38,0-.76.07-1.56,0-2.33,0l5,5V248.51l-5,5H1500.77c6,0,12.35.52,18.37,0,.77-.07,1.57,0,2.34,0l-5-5V519.33c0,6.44,10,6.45,10,0V248.51a5.07,5.07,0,0,0-5-5H203.31c-17.8,0-35.64-.33-53.44,0-.77,0-1.55,0-2.33,0a5.07,5.07,0,0,0-5,5V519.33a5.07,5.07,0,0,0,5,5H1465.71c17.8,0,35.64.33,53.43,0h2.34C1527.91,524.33,1527.93,514.33,1521.48,514.33Z" transform="translate(-142.54 -85.05)"/><path class="b" d="M1897,1011.82c1.39-.6-.39.15-.67.26l-1.41.53c-1.06.37-2.12.71-3.19,1a56.12,56.12,0,0,1-6.39,1.43c-.25,0-1.83.24-1,.16s-.77.09-1,.11q-1.71.18-3.42.27a67.07,67.07,0,0,1-6.8,0c-1.13-.06-2.25-.15-3.38-.27l-1.43-.15c-.29,0-1.49-.07-.11,0-.36,0-.73-.11-1.08-.16-2.34-.36-4.66-.83-6.95-1.38a104.69,104.69,0,0,1-14.44-4.65l-1.72-.71c1,.41.11,0-.14-.06l-.95-.42q-1.94-.85-3.84-1.77c-2.49-1.19-4.93-2.45-7.34-3.78a176.48,176.48,0,0,1-15.21-9.43c-2.51-1.73-5-3.53-7.43-5.37l-.78-.59-.55-.42-1.57-1.23q-2-1.54-3.9-3.15c-5.21-4.29-10.25-8.8-15.13-13.48q-7.59-7.27-14.66-15.06c-2.41-2.63-4.73-5.34-7.1-8-2-2.27-4.1-4.46-6-6.83.5.63,0,0-.07-.11-.28-.38-.55-.75-.81-1.14s-.68-1-1-1.56-.71-1.33-1-2c.39.79,0,.14,0-.05-.15-.43-.3-.85-.43-1.28s-.2-.88-.31-1.32c0-.21-.09-.95,0,0a18.23,18.23,0,0,1-.07-2.22c0-.28,0-.57.06-.85,0,1-.06.34,0,.07a18.73,18.73,0,0,1,.63-2.45c.09-.27.19-.53.29-.8-.33.91-.1.23,0,0,.33-.63.64-1.25,1-1.86.15-.24.31-.48.47-.72,0,0,.82-1.09.37-.53s.45-.51.43-.49c.29-.33.58-.64.89-1,.46-.46.94-.91,1.43-1.33.19-.16,1-.74.19-.17.23-.18.47-.35.71-.51a23.56,23.56,0,0,1,3.83-2.14c-.91.4,0,0,.22-.06s.69-.25,1-.35c.62-.19,1.25-.36,1.89-.5a18.47,18.47,0,0,1,4.18-.36c.77,0,1.54,0,2.31.11-.13,0,1.54.17.86.08s1,.17.86.15a35.75,35.75,0,0,1,5,1.33,22.55,22.55,0,0,1,3.63,1.5,47.78,47.78,0,0,1,4.57,2.58c.73.46,1.45.95,2.16,1.46.24.17,1.56,1.2.83.61a43.09,43.09,0,0,1,3.56,3.19c1,1,2,2.13,2.93,3.24.1.12.58.75.07.08l.54.73c.54.75,1.05,1.51,1.54,2.28a36.5,36.5,0,0,1,2,3.57c.13.27.25.55.38.82.59,1.28-.17-.56.1.24s.56,1.52.79,2.29a27.64,27.64,0,0,1,.87,3.81c-.17-1.08,0-.12,0,.16s.06.71.07,1.06q0,1.07,0,2.13c0,.35-.07.7-.08,1.06,0,.82.23-1.19,0,.14-.12.63-.24,1.26-.41,1.88s-.38,1.24-.6,1.86c-.46,1.28.31-.49-.1.22-.24.42-.42.86-.65,1.28-.36.64-.74,1.25-1.15,1.85.06-.09-.88,1.16-.47.65s-.6.69-.53.61a31.83,31.83,0,0,1-3.49,3.38c-.25.21-.5.42-.76.62.63-.5-.2.15-.35.26-.6.44-1.21.87-1.82,1.28-1.36.92-2.76,1.77-4.17,2.6q-4.62,2.7-9.44,5c-1.57.75-3.14,1.48-4.74,2.17l-1,.43c.54-.23-.29.12-.33.13l-3,1.22a136,136,0,0,1-20,5.93c-7,1.5-14.09,2.2-21,3.92-12.77,3.19-25.75,11.53-27.48,25.65-1.4,11.38,7.31,20.67,17.45,24.21a27.09,27.09,0,0,0,16,.6,27.68,27.68,0,0,0,13.63-9.22c7.51-9.3,9.9-21.93,7.33-33.51-2.83-12.76-11.32-23.69-20.8-32.33a147.13,147.13,0,0,0-32.09-22.06,160.2,160.2,0,0,0-75.67-17.67,151.68,151.68,0,0,0-20.18,1.75c-6.4,1-13.14,3.13-17.47,8.24a23.83,23.83,0,0,0-5.34,17.8,30,30,0,0,0,8.29,17.6,47,47,0,0,0,15.26,10.41c2.39,1.06,5.49.77,6.84-1.79,1.15-2.18.76-5.71-1.79-6.85a51.5,51.5,0,0,1-7.93-4.31c-.66-.45-1.31-.9-1.94-1.38.64.48,0,0-.1-.1-.3-.26-.61-.51-.9-.77a32.42,32.42,0,0,1-3.31-3.32c-.25-.3-.51-.6-.75-.9.14.17.49.68-.06-.11s-.87-1.29-1.27-2-.62-1.09-.9-1.65c0,0-.56-1.26-.27-.57s-.24-.66-.28-.8a22.53,22.53,0,0,1-1-4c.16,1.07,0-.43,0-.81a21.87,21.87,0,0,1,0-2.56c0-.29.06-.57.08-.85-.07,1-.06.31,0,.06.14-.69.27-1.37.47-2.05.07-.27.16-.54.24-.8,0,0,.46-1.29.19-.58s.26-.53.26-.54c.19-.37.39-.74.6-1.09a15.91,15.91,0,0,1,.92-1.39c-.62.82,0,.08.15-.11s.48-.51.73-.75.42-.38.63-.57c1.13-1-.4.24.33-.25a22.82,22.82,0,0,1,2.29-1.34,18.68,18.68,0,0,1,3.36-1.19,46.37,46.37,0,0,1,4.82-1l1-.15.79-.11.83-.11,1-.12c1.65-.19,3.3-.36,5-.5a149.66,149.66,0,0,1,18.94-.36q4.74.21,9.45.71l2.48.29,1,.12c-.88-.11.19,0,.4.06,1.65.23,3.29.49,4.93.77a155.43,155.43,0,0,1,18.44,4.39q4.65,1.41,9.22,3.11c3.28,1.22,5.24,2,8,3.28a151.15,151.15,0,0,1,16.77,8.8,145.72,145.72,0,0,1,14.91,10.38,98.33,98.33,0,0,1,13.43,12.85c.53.62,1,1.25,1.55,1.89l.11.14.72,1q1.42,1.95,2.69,4,1.13,1.85,2.1,3.78c.33.64.63,1.3.93,2,.65,1.39-.19-.49.16.35.18.45.35.9.52,1.35a41.86,41.86,0,0,1,1.36,4.38c.14.53.26,1.07.37,1.61.07.33.13.67.19,1s.22,1.77.09.51a40,40,0,0,1,.08,7.89c0,.27-.07.55-.1.82.11-1.06,0-.32,0-.09-.11.68-.23,1.36-.37,2a36.47,36.47,0,0,1-1.1,4c-.2.59-.42,1.16-.64,1.73-.29.76.52-1.06-.06.12-.12.24-.23.49-.35.74a29.61,29.61,0,0,1-2,3.5c-.14.22-.3.44-.45.66,0,0-.8,1.05-.33.45s-.35.42-.36.43l-.53.6a31.31,31.31,0,0,1-2.9,2.74c.87-.74-.51.34-.77.52-.5.33-1,.65-1.55.94s-1.16.61-1.76.88c1.14-.52-.45.13-.85.25a17.64,17.64,0,0,1-1.77.45l-.71.13c-1,.18.18,0,.25,0-.76.45-2.81.13-3.65.08-.32,0-2.29-.32-.86,0-.48-.09-1-.17-1.45-.27a33.86,33.86,0,0,1-3.52-1.06c-1.13-.38.67.37,0,0-.27-.15-.56-.26-.83-.39-.49-.24-1-.5-1.45-.77s-.93-.56-1.39-.86l-.59-.41c-.83-.55.7.64-.26-.21a26.67,26.67,0,0,1-2.29-2.22l-.56-.67c.09.11.63.9.15.18-.36-.53-.71-1-1-1.61s-.47-.92-.7-1.38c.63,1.24-.1-.37-.21-.75s-.25-.89-.34-1.35c0-.15-.06-1.18-.07-.37s0-.4,0-.57c0-.55,0-1.09,0-1.63,0,0,.17-1.42.05-.65s.14-.64.14-.63a16,16,0,0,1,.45-1.68c.11-.35.25-.68.37-1s.1-.27-.09.19c.12-.26.25-.53.38-.78.26-.52.55-1,.85-1.53l.6-.92c.14-.19.71-1,.14-.23a25.31,25.31,0,0,1,3-3.25q.67-.6,1.38-1.17c-.83.66.35-.24.43-.3l.75-.51a28.38,28.38,0,0,1,7.6-3.64c1.72-.57,3.47-1,5.24-1.46,3.38-.79,6.81-1.35,10.23-1.9A149.74,149.74,0,0,0,1786.83,978c11.54-5.5,25.56-12.94,28.78-26.47,2.94-12.34-3.46-25-12.28-33.39-9.74-9.27-24.61-15.85-38.13-12.11-12.28,3.4-22.52,16.08-18.79,29.17,1.8,6.3,6.35,11.23,10.63,16,4.62,5.1,9.09,10.32,13.86,15.29,17.49,18.26,37.39,35.15,60,46.68,17.88,9.12,38.27,15.16,58.4,11.37a60.39,60.39,0,0,0,12.73-4c2.41-1,3.13-4.76,1.79-6.84-1.62-2.5-4.26-2.9-6.84-1.79Z" transform="translate(-142.54 -85.05)"/><path class="c" d="M302.79,461.49A145.21,145.21,0,0,0,363,433.58c16.67-13.16,34.4-32.65,36.58-54.7,2-20.19-15.35-39.65-36.24-36.83-17.68,2.38-29.67,22.16-23.34,39,7.82,20.72,33,28.25,53.07,28.34,13.66.06,27.19-2.64,40.56-5.17l41.24-7.8,40.16-7.6c4.32-.82,8.92-2.18,13.33-2.36-.36,0-1.09-.34-.49-.14,1.42.48,2.65,1.06,4.12,1.42,5.1,1.24,10.41,1.29,15.53,2.45a58.79,58.79,0,0,1,15.73,5.79c8.59,4.75,16.15,12.42,17.08,22.63,1.74,19.1-16.37,34.67-34.22,36A50.11,50.11,0,0,1,517,447.43c-7.52-4.48-16-12.05-18.34-20.87-1.86-7.07,2.55-14.41,6.4-20,5.37-7.8,12.27-14.58,19.21-21,14.8-13.6,30-26.48,50-31.34a97,97,0,0,1,34.72-1.9c10.85,1.34,23.46,4.59,30.87,13.23,6.09,7.1,6.92,19.74-2.67,24.35-7.73,3.71-17.57.12-23.56-5.28-19-17.13,6.05-41.52,20.63-51,18.59-12.05,40.51-18.77,62.56-20.29,22.64-1.56,46.34,1.95,66.72,12.3,10.2,5.19,20.17,12.39,25.52,22.8,5.06,9.84,5.23,22.89-2.74,31.3C774.73,392,744.22,391,747,369c3-23.3,31.64-24.83,48.71-17.44,22.41,9.7,33,32.63,41.62,53.94,8.39,20.65,17.29,41.31,35.5,55.25,31.88,24.41,81.1,26.83,113.77,2.65,15.49-11.47,27.31-28.18,31.62-47.1,4-17.55,2.54-39.83-13.26-51.26-7.32-5.3-17.82-6.29-24.66.45-6,6-6,15.61-1.79,22.58,5.34,8.86,16.39,12,26,13.08,11.46,1.33,23.27.61,34.68-.89a169.06,169.06,0,0,0,65.54-22.75c18.22-11.08,37.62-27,43.68-48.33,5.12-18-3-38.59-20.3-46.76-18.09-8.55-38.47-.23-49.18,15.74-11.51,17.16-7.13,37.5,5,53,14.4,18.42,35.82,28.88,56.2,39.22,20.8,10.55,44.35,22.48,54.16,45.09,3.89,8.95,5.1,20.11-.11,28.82-4.09,6.83-11.58,11.23-19.08,13.33-7.28,2.05-15.92,2.31-22.56-1.81-8.87-5.52-9.94-16.57-5.77-25.47,9.84-21,40.16-25.91,60.63-28.5,50.38-6.37,99.9,7.87,148,20.89,24.26,6.56,48.6,12.88,73.43,16.94,6.29,1,9-8.6,2.65-9.64-52.3-8.56-102.18-27.81-154.53-36.05-24.84-3.9-50-5.06-74.9-1.43-21.45,3.13-47.89,8.78-61.08,27.81-11,15.94-8,39,11.36,46.42,15.14,5.8,34.53.28,45.6-11.18,14.8-15.32,10.57-38.8-.58-54.88-14.13-20.37-37-31.21-58.42-42.11-20.3-10.31-44.36-22.6-54-44.67-4.07-9.34-4.09-19.24,1-28.19s14.13-16,24.5-16.79,19.93,4.69,25.22,13.48c5.5,9.12,5.4,19.67,1.2,29.29-9.39,21.49-33,36.41-53.51,45.76A159.29,159.29,0,0,1,1010,391.57c-8.36-.44-26.34-3-24.48-15.3.77-5,6.1-6.62,10.41-4.95,5.09,2,9,6.88,11.17,11.74,8.17,18.13.43,41.77-10.73,56.77-12.84,17.27-33,27.93-54.27,30-21,2-42.94-3-60.46-15-20.27-13.9-28.38-37.11-37.45-58.82-8.87-21.23-20.81-42.7-42.64-52.76-18.1-8.34-43.08-9.46-56.86,7.34C733.59,364.14,734,385.84,751,394.46c17.4,8.81,41.17.45,48.8-17.49,9.16-21.56-4.87-43.06-22.53-54.84-19-12.64-42.86-18.22-65.4-19A149.32,149.32,0,0,0,645,316.4c-19.1,8.74-40.93,23.57-46.72,45-5.17,19.15,8.24,36.73,27.43,39.58C645.47,404,660,385.59,652.2,367c-8.6-20.64-36.21-25.41-56-25.34a95.59,95.59,0,0,0-61,21.49c-14.52,11.78-29.73,24.22-40,40.09-4.09,6.34-7.55,13.92-7,21.65.62,8.56,6.41,16.58,12.31,22.44,14.29,14.18,36.66,21.08,56.26,15.48,17.66-5,32.12-21,33.53-39.56,1.61-21.17-16.6-35.75-35.07-41.39a97.17,97.17,0,0,0-16.23-3.06c-3.57-.46-5.93-1.48-8.25-2a16.67,16.67,0,0,0-6.67.21c-6.46,1.05-12.89,2.41-19.32,3.63-28.57,5.4-57.08,11.18-85.72,16.16-13.85,2.41-28.56,4.2-42.4.79C366.3,395,355,389.34,350.14,379.27c-4.06-8.35-.87-18.83,6.58-24.18,9.22-6.62,21.62-2.61,28.2,5.78,16,20.35-8.72,48.15-23.61,61.19-17.33,15.19-38.71,25.08-61.18,29.79-6.3,1.32-3.63,11,2.66,9.64Z" transform="translate(-142.54 -85.05)"/><path class="b" d="M572.3,88.05h-10v-3H585.8v97h9.9v3H562.25v-3h10Z" transform="translate(-142.54 -85.05)"/><path class="b" d="M668.75,156c0,16.79-13.8,30.59-30.3,30.59-17,0-30.45-13.8-30.45-31.05,0-16.94,13.65-30.89,30.3-30.89C655.4,124.65,668.75,138.45,668.75,156Zm-43-21.6c-1.5,3-1.65,5.1-1.65,21.14,0,17.4.15,19.05,2.4,22.35,2.4,3.6,6.15,5.25,12,5.25,6.15,0,10.35-2.1,12.6-6.45,1.5-2.85,1.65-5.1,1.65-20.85,0-17.54-.15-19.34-2.4-22.49-2.4-3.6-6.15-5.25-12.15-5.25S628,130.2,625.7,134.4Z" transform="translate(-142.54 -85.05)"/><path class="b" d="M742.4,182.09c-3.45,3.3-6.45,4.5-10.35,4.5-7.35,0-11.7-4.05-12.6-11.7-4.35,7.5-11.4,11.7-19.5,11.7-9.45,0-15.9-5.7-15.9-14,0-7.35,4.8-13.2,13.65-16.8,5.55-2.09,11.7-3.15,21.75-3.3V142.2c0-8.55-.3-10-2-12-1.5-1.8-4.8-3-8.1-3-5.4,0-11.4,3.3-11.4,6.3,0,.6.15.9.75,1.65,1.65,1.8,2.1,3,2.1,4.65a6.16,6.16,0,0,1-6.15,6.45,6.26,6.26,0,0,1-6.45-6.6c0-8,11.1-15,23.55-15,7.35,0,14.1,2.4,17.7,6.3,3.3,3.45,3.45,4.2,3.45,17.4v16.49c0,14.25,0,14.25.6,15.6a2.22,2.22,0,0,0,2.55,1.8c1.5,0,1.8-.15,4.5-2.4Zm-22.95-27c-8,.3-11.7,1.19-15.3,3.44-4.5,2.7-6.75,6.45-6.75,11.4,0,6.3,3.3,10.05,9,10.05,4.5,0,8.25-2.4,10.65-6.75,1.65-2.85,2.4-7.35,2.4-15.15Z" transform="translate(-142.54 -85.05)"/><path class="b" d="M811,182.09h10v3H797.45v-11.4c-3.3,8.25-9.6,12.9-17.55,12.9-13.8,0-25.2-14.1-25.2-31.19s11.25-30.75,24.9-30.75c7.5,0,12.9,3.75,17.85,12.15V88.05H787.4v-3H811Zm-37.8-49.34c-1.8,3-2.4,8.55-2.4,24.74,0,13.8.3,16.8,1.8,19.8a10.13,10.13,0,0,0,8.85,5.85c9,0,15.75-11.85,15.75-27.74,0-15.6-6.75-27.3-15.9-27.3A10,10,0,0,0,773.15,132.75Z" transform="translate(-142.54 -85.05)"/><path class="b" d="M842.45,129.15H832.4v-3H856v55.94h9.9v3H832.4v-3h10.05ZM857,95.55a8.42,8.42,0,0,1-8.4,8.55c-4.8,0-8.25-3.75-8.25-8.7A8.08,8.08,0,0,1,848.6,87,8.42,8.42,0,0,1,857,95.55Z" transform="translate(-142.54 -85.05)"/><path class="b" d="M887.45,129.15H877.4v-3H901V134c4.95-6.45,10.8-9.3,18.75-9.3,6.15,0,12.14,2.25,15.44,5.85,3.3,3.75,4.2,7.2,4.2,18.3v33.29h9.9v3H916.85v-3h9V159c0-17.84-.6-23.24-2.85-26.24a9,9,0,0,0-7.35-3.6,14.12,14.12,0,0,0-10.95,6c-3,4.2-3.75,10.65-3.75,29.09v17.85h9v3H877.4v-3h10.05Z" transform="translate(-142.54 -85.05)"/><path class="b" d="M1002.64,181.79c6.45,0,9.15.6,12.15,2.55,3.6,2.55,5.55,7.2,5.55,13.35,0,16.65-12.9,28.2-31.65,28.2-15,0-27-8.1-27-18,0-6,4.35-10.8,11.85-13.2-7.2-1.95-11.25-6.6-11.25-13.2,0-6.75,4.35-13.05,13.2-18.75-6.45-5.09-9.3-10.34-9.3-17.09,0-11.85,10.2-21,23.7-21,7.05,0,12.75,2.1,17.1,6.15,4.2-4.5,7.2-6.15,10.8-6.15,4.05,0,6.9,2.7,6.9,6.75a5.45,5.45,0,0,1-5.4,5.7c-2.85,0-4.5-1.5-5.1-4.5-.3-1.65-.75-2.4-1.65-2.4s-1.65.45-3.45,2.4a21.58,21.58,0,0,1,4.65,13.35c0,12.29-9.9,20.69-24.3,20.69a23.93,23.93,0,0,1-11.1-2.4c-6.6,4.2-10.05,8.4-10.05,12.3,0,4.2,2.55,5.55,10.2,5.55,1.5,0,1.5,0,11.7-.15.6-.15,3.75-.15,8.1-.15Zm-31.8,24.6c0,9.3,7.35,15.75,18.3,15.75,15,0,26.55-9.15,26.55-21.15,0-4.65-2.25-6.3-8.4-6.3-.6,0-3.45,0-7.2.15-3,.15-14,.3-15.75.3a49.84,49.84,0,0,1-8.4-.45C972.34,198.44,970.84,201.89,970.84,206.39ZM981.79,132c-1,2.4-1.35,7.35-1.35,17.4,0,10.94,2.1,14.09,9.3,14.09,3.75,0,6.45-1.2,8-3.75,1.35-2.25,1.8-5.84,1.8-15.59,0-9-.3-11.7-1.65-13.5-1.35-2.1-3.75-3-8-3S982.84,129,981.79,132Z" transform="translate(-142.54 -85.05)"/><path class="b" d="M1052.14,177.44a8.87,8.87,0,0,1-9,8.7,8.71,8.71,0,0,1-8.7-8.7,8.85,8.85,0,1,1,17.7,0Z" transform="translate(-142.54 -85.05)"/><path class="b" d="M1092.34,177.44a8.87,8.87,0,0,1-9,8.7,8.71,8.71,0,0,1-8.7-8.7,8.85,8.85,0,1,1,17.7,0Z" transform="translate(-142.54 -85.05)"/><path class="b" d="M1132.54,177.44a8.87,8.87,0,0,1-9,8.7,8.71,8.71,0,0,1-8.7-8.7,8.85,8.85,0,1,1,17.7,0Z" transform="translate(-142.54 -85.05)"/><path class="c" d="M2810.07,405.29c25.23,5.95,51.42,10.42,77.42,8.3,12.57-1,25.2-3.45,36.94-8.15a103.54,103.54,0,0,0,28.08-16.82c16.23-13.6,28.19-32.61,30.76-53.83a59.49,59.49,0,0,0-5.24-33.1c-5.47-11.15-16.16-19.46-28.78-20.19-10.81-.62-20.5,5.69-25.6,15-4.73,8.58-6.21,18.85-5.82,28.54.77,19.37,8.86,43.71,29.5,49.78,18.41,5.4,35-7.26,49.79-16.25a106.87,106.87,0,0,1,11.73-6.33,6.42,6.42,0,0,0,.85-.37c-.83.56-.72.3-.34.14l1.57-.62c1-.38,2-.72,3-1,2-.62,4.08-.95,6.15-1.38-1.65.34.18,0,.61,0l1.5-.09a31.35,31.35,0,0,1,3.36.06l.88.08c1.18.09-.85-.16-.11,0,.58.1,1.16.2,1.73.32a29.33,29.33,0,0,1,3.68,1.09,4.24,4.24,0,0,1,.82.32c-.91-.62-.43-.18-.07,0,.58.27,1.16.56,1.72.86a31.45,31.45,0,0,1,3.14,1.93l.71.52c1,.68-.61-.51,0,0s1,.83,1.47,1.26a32.39,32.39,0,0,1,2.6,2.64l.57.67c.17.2,1,1.05.09.09a11,11,0,0,1,1,1.43,29.41,29.41,0,0,1,2,3.33c.27.52.52,1.05.76,1.58s.42.43-.09-.23a4.13,4.13,0,0,1,.37,1,27.94,27.94,0,0,1,1.07,3.7c.09.37.48,1.39.32,1.72,0-.05-.13-1.27,0-.29,0,.35.08.69.1,1a25.77,25.77,0,0,1,0,3.83c0,.32-.32,1.43-.16,1.65,0-.06.21-1.26,0-.35-.06.32-.11.65-.18,1a29.14,29.14,0,0,1-.9,3.45c-.17.52-.35,1-.55,1.52a5,5,0,0,0-.24.6l.25-.6c-.08.19-.17.39-.26.58a30.32,30.32,0,0,1-1.68,3.13c-.56.92-1.18,1.81-1.82,2.68s.19-.21.19-.24c0,.13-.53.65-.62.76-.42.51-.85,1-1.3,1.48-.75.8-1.54,1.58-2.36,2.32l-1.25,1.1-.65.53c-1,.8.63-.46-.18.14a48.83,48.83,0,0,1-6,3.82c-1,.53-2,1-3.08,1.5-.09,0-1.13.48-.35.16s-.28.11-.36.14c-.64.26-1.29.5-1.94.73a51,51,0,0,1-7,1.89c-.56.11-1.12.21-1.69.3-.11,0-1.2.25-.35.06s-.23,0-.35,0c-1.24.14-2.49.23-3.74.27a61.61,61.61,0,0,1-8.48-.42c-1.39-.15.67.11-.18,0l-1.07-.16c-.72-.11-1.43-.24-2.14-.38-1.57-.3-3.12-.65-4.66-1a89.47,89.47,0,0,1-8.74-2.76q-2.05-.76-4.08-1.62c1,.44-.31-.14-.43-.19l-.8-.36-2.42-1.1c-2.81-1.32-5.58-2.74-8.32-4.21-5.35-2.88-10.57-6-15.77-9.12a5,5,0,0,0-5,8.64c20.57,12.35,43.78,25.77,68.73,22.1,19.55-2.88,39.3-18,40-39,.35-10.66-5.09-21.31-13.35-27.92a35,35,0,0,0-14.4-7.17,37.32,37.32,0,0,0-15.18.07c-8.79,1.74-16.87,6.29-24.42,10.93-3.75,2.3-7.45,4.69-11.23,7-1.89,1.13-3.79,2.23-5.74,3.26-.9.48-1.81.94-2.74,1.39l-1.37.64-.69.31c-.37.16-1.43.4,0,0-2,.55-3.84,1.47-5.83,2-.88.23-1.76.43-2.66.6-.24,0-1.83.28-.88.16s0,0-.18,0l-.85.08a27.13,27.13,0,0,1-2.85.09c-.48,0-1,0-1.44-.07l-.86-.07c-.43-.05-1.18-.32.17,0-1-.25-2-.34-2.91-.58-.51-.14-1-.28-1.53-.45-.34-.11-1.67-.37-1.89-.68.19.26.88.4.28.11l-.89-.43c-.49-.24-1-.5-1.44-.77s-.93-.56-1.39-.86l-.54-.36-.53-.38c-.42-.32-.35-.25.24.2-.39-.09-1-.78-1.25-1s-.81-.72-1.2-1.1a31,31,0,0,1-2.34-2.53l-.53-.64c-.71-.86.5.68.07.09l-.88-1.22c-.7-1-1.36-2.07-2-3.15s-1.1-2-1.59-3c-.25-.52-.49-1-.73-1.57-.14-.33-.72-1.14,0-.09a5.78,5.78,0,0,1-.39-1,70.43,70.43,0,0,1-3.77-14c-.09-.57-.17-1.14-.26-1.71-.11-.75.16,1.29,0,.14,0-.28-.07-.57-.1-.85-.13-1.13-.24-2.26-.31-3.39a64.65,64.65,0,0,1-.08-7c0-1.12.11-2.23.22-3.34,0-.56.12-1.11.18-1.66.13-1.14-.16.9,0,.17.07-.38.11-.77.17-1.15a48.69,48.69,0,0,1,1.54-6.55c.32-1,.68-2,1.07-3,.26-.69.42-.23-.08.17.14-.11.24-.54.32-.71.24-.52.49-1,.76-1.54a28.28,28.28,0,0,1,1.56-2.65c.28-.42.57-.83.87-1.24.63-.88-.75.89,0,.06.19-.22.38-.46.58-.68a24.72,24.72,0,0,1,2.1-2.12l.57-.48c.43-.38.68-.19-.19.13a10.36,10.36,0,0,0,1.49-1c.43-.27.86-.52,1.31-.76s1.19-.4,1.38-.67c-.25.34-.92.36-.33.14.3-.11.59-.23.89-.33.71-.24,1.42-.45,2.15-.62l.75-.16c.28-.05,1.44-.41.18-.05a7.46,7.46,0,0,1,1.89-.14c.64,0,1.27,0,1.91,0l.76.05c.58,0,1,0,.19,0a16.72,16.72,0,0,1,3.74.84c.62.18,1.23.39,1.83.62l.36.14q.78.31-.12-.06a4.77,4.77,0,0,1,1,.49,29.4,29.4,0,0,1,3.36,1.95l.95.67c.2.14.79.47-.08-.08a13.24,13.24,0,0,1,1.75,1.52,32,32,0,0,1,2.75,3c.18.21.35.42.51.64-.73-1,.09.14.19.28.47.66.91,1.34,1.34,2a39.83,39.83,0,0,1,1.94,3.58c.11.24.23.49.34.74s.6,1.43.15.3c.28.7.55,1.4.8,2.1a51.8,51.8,0,0,1,2.12,8.14c0,.08.35,2,.32,2l-.08-.6.09.72c0,.24,0,.48.08.72.14,1.32.23,2.64.28,4a60.28,60.28,0,0,1-.19,7.48c0,.58-.11,1.17-.18,1.76a4.29,4.29,0,0,1-.08.7c.41-1.21,0-.32,0,.07-.18,1.23-.4,2.45-.65,3.66a67.5,67.5,0,0,1-1.88,7c-.36,1.13-.76,2.24-1.18,3.35-.21.55-.44,1.1-.66,1.65-.46,1.15.45-1-.05.12-.15.33-.29.66-.43,1q-1.56,3.43-3.44,6.7c-1.26,2.2-2.63,4.33-4.09,6.4-.34.5-.7,1-1.06,1.48l-.43.58-.28.37c.49-.65-.24.31-.28.36l-.57.71-1.28,1.56A94,94,0,0,1,2946,381.07c-1,.8-1.91,1.58-2.87,2.35-.71.56,0,0,.13-.1l-.88.67-1.8,1.32q-3.09,2.2-6.34,4.17c-2.16,1.31-4.38,2.53-6.64,3.66-1.09.54-2.2,1.07-3.32,1.58-.35.15-1.44.42-1.68.74l.52-.22-.68.28-1,.41a112.35,112.35,0,0,1-17.23,5.17c-3,.66-6,1.21-9.08,1.65-.14,0-1.63.23-.46.07l-.89.12-2.24.26c-1.64.18-3.29.33-4.94.46a168.65,168.65,0,0,1-18.81.33c-6.33-.23-12.64-.77-18.93-1.54l-2.27-.3c1,.14,0,0-.27,0l-1.14-.16c-1.67-.24-3.34-.5-5-.77q-4.77-.76-9.52-1.68c-6-1.15-12-2.46-17.92-3.86a5,5,0,1,0-2.66,9.64Z" transform="translate(-142.54 -85.05)"/></svg>