<svg xmlns="http://www.w3.org/2000/svg" viewBox="0 0 1658.45 638.89"><defs><style>.a{fill:#d6facb;}.b{fill:#231f20;}.c{fill:#006838;}</style></defs><rect class="a" x="147.54" y="248.51" width="1373.94" height="270.83" rx="135.41"/><path class="b" d="M1386.07,514.33H284c-30.51-.07-60.4-10.15-84-29.74a131.91,131.91,0,0,1-46.82-114c4.19-43,30.87-81.85,68.93-102,19.77-10.47,41.47-15,63.73-15H1352.92c20.1,0,41.22-1.36,60.93,3,42,9.19,77.8,39.38,93.54,79.44a131.8,131.8,0,0,1-14.89,123.42c-24.29,34.46-64.45,54.71-106.43,55-6.43,0-6.45,10,0,10a140.4,140.4,0,0,0,57.73-268.41c-19.32-8.66-39.86-12.41-61-12.41H346.67q-30.56,0-61.13,0c-23.61,0-46.65,5-67.66,16C180.46,279,153,315.64,145.11,357.13a141.78,141.78,0,0,0,31.26,118.18c26.52,31.08,65.89,48.78,106.62,49,14.77.09,29.55,0,44.33,0H1386.07C1392.5,524.33,1392.51,514.33,1386.07,514.33Z"/><path class="c" d="M541.94,429.06c1.39-.6-.63.25-1,.38-.52.2-1.05.39-1.58.57-1.21.42-2.44.8-3.68,1.13s-2.28.57-3.43.8c-.55.11-1.1.22-1.66.31l-1,.16-.67.1c.72-.09.88-.12.49-.07a77.1,77.1,0,0,1-15.49,0c-.36,0-2.3-.16-.83-.09a16.54,16.54,0,0,1-1.81-.28c-1.46-.24-2.92-.52-4.38-.83-2.75-.6-5.47-1.34-8.16-2.18s-5.58-1.88-8.31-3l-1.14-.46c-.2-.08-.88-.38.05,0-.77-.33-1.54-.66-2.3-1-1.42-.63-2.83-1.3-4.22-2a164,164,0,0,1-17.09-9.78q-4.38-2.85-8.61-5.93c-3.23-2.35-5-3.69-8-6.11A292.08,292.08,0,0,1,415,368c-2.52-2.83-5-5.69-7.54-8.51-1.06-1.18-2.11-2.38-3.09-3.63.62.79-.32-.43-.36-.48-.27-.38-.53-.76-.79-1.15a24.38,24.38,0,0,1-1.38-2.37c0,.05-.62-1.29-.32-.63s-.26-.7-.24-.66c-.27-.79-.43-1.59-.63-2.4s0,1.13,0-.26c0-.45,0-.89,0-1.33s.06-.72.06-1.07,0-.29-.06.27c0-.28.09-.56.15-.83a18.06,18.06,0,0,1,.55-2c.06-.17.6-1.44.12-.38.17-.39.36-.77.56-1.14a17.59,17.59,0,0,1,1.1-1.82s.82-1.1.37-.53.62-.71.72-.82c.49-.53,1-1,1.55-1.53.32-.29.65-.57,1-.85-.85.69.29-.19.4-.26.6-.41,1.22-.8,1.86-1.16.38-.21.77-.41,1.16-.61.21-.1,1.41-.58.41-.2a19,19,0,0,1,9.52-1.37c.51,0,1,.08,1.53.14-.84-.1.25,0,.45.09.93.16,1.86.37,2.77.61s1.67.48,2.49.76c1,.35,1.76.64,2.2.84a46.79,46.79,0,0,1,5.1,2.69c.74.45,1.48.92,2.2,1.41l1.27.9c.21.15,1.09.85.42.31a45.35,45.35,0,0,1,3.72,3.35c.54.55,1.06,1.11,1.57,1.68l.9,1.05.58.71c-.27-.34-.29-.38-.08-.1a40.77,40.77,0,0,1,2.64,4c.38.65.74,1.32,1.07,2,.2.4.38.81.57,1.22s.24.55,0,0c.11.27.22.55.32.83A28.8,28.8,0,0,1,451,359c.08.42.16.84.22,1.27-.17-1.08,0-.12,0,.16a21.31,21.31,0,0,1,.09,2.77c0,.28,0,.56,0,.84s-.2,1.59,0,.36a21.11,21.11,0,0,1-.43,2.1c-.2.77-.47,1.51-.74,2.26s.55-1-.11.23c-.31.57-.59,1.15-.92,1.7a19.45,19.45,0,0,1-1.35,2c.6-.77-.41.45-.44.48-.21.25-.43.48-.65.72-.66.71-1.37,1.38-2.09,2l-.75.64-.75.62-.16.12a85,85,0,0,1-9.53,5.91,122,122,0,0,1-21.42,9.28,154.73,154.73,0,0,1-23.45,5.5c-7.94,1.29-16,2.7-23.15,6.61-6.58,3.6-12.14,9.33-14.63,16.48A20.91,20.91,0,0,0,353,439.53c7.15,10.43,21.65,14.91,33.32,9.84,12.32-5.35,18.63-19.32,18.72-32.16.11-15-8.34-28.38-18.62-38.63A141.39,141.39,0,0,0,350.29,353c-26.74-13.48-57.39-19.56-87.23-16.46-7.89.83-16.25,1.75-22.68,6.83-5.63,4.45-8.32,11.86-8,18.92.8,16,14.55,26.07,28.34,31.21,27.27,10.17,58.12,1.91,81.88-13.17a134.83,134.83,0,0,0,17.05-12.87,5,5,0,0,0,0-7.07,5.13,5.13,0,0,0-7.07,0c-1.31,1.16-2.63,2.29-4,3.39-.62.5-1.24,1-1.87,1.49-1.23,1,.76-.55-.5.39l-1.15.86c-2.83,2.11-5.76,4.09-8.76,5.95s-6.09,3.59-9.25,5.18c-1.44.72-2.88,1.41-4.34,2.07l-2.2,1c.93-.4-.53.21-.58.23l-1.56.62a98.49,98.49,0,0,1-19.81,5.49l-1.38.22c-.18,0-1,.14-.06,0-.77.11-1.54.19-2.31.27-1.85.19-3.7.33-5.56.39a74.38,74.38,0,0,1-9.9-.29l-1.14-.12c-.13,0-1.64-.2-.5,0-.76-.1-1.52-.22-2.28-.35-1.66-.29-3.32-.64-5-1.05s-3.29-.88-4.91-1.42c-.74-.25-1.47-.51-2.2-.78l-1.1-.42c-.17-.07-1.65-.68-.76-.3a50.32,50.32,0,0,1-9.15-5.05l-.77-.56c-1.24-.9.67.62-.49-.38-.59-.51-1.2-1-1.77-1.55s-1.24-1.2-1.82-1.84c-.26-.29-.52-.58-.77-.88l-.59-.72c.31.39.29.36-.06-.11a41.14,41.14,0,0,1-2.36-4c-.62-1.22.28.92-.15-.38-.09-.27-.2-.54-.29-.81a21.75,21.75,0,0,1-.66-2.49c-.09-.42-.16-.85-.22-1.27.15,1.07,0,.1,0-.17a20.61,20.61,0,0,1-.06-2.36c0-.34.22-2.42,0-1.21a20.62,20.62,0,0,1,.53-2.48c.12-.4.26-.8.38-1.2.29-.88,0-.15,0,0a17.67,17.67,0,0,1,1.06-2c.18-.29.38-.58.57-.87.73-1.1-.67.67.25-.29a16.73,16.73,0,0,1,1.88-1.79c-.65.5.19-.1.36-.21.34-.21.68-.42,1-.62s.85-.45,1.29-.66c.9-.42.34-.14.14-.06a33.75,33.75,0,0,1,5.66-1.59c.81-.16,1.62-.29,2.43-.42l1.22-.18c.93-.13-1.19.15.39,0q2.73-.35,5.46-.6c3.64-.33,7.3-.52,11-.57A152.55,152.55,0,0,1,297.9,347c-.83-.1,0,0,.16,0l1.48.21q1.23.18,2.46.39,2.83.46,5.65,1,5.25,1.08,10.43,2.51c3.53,1,7,2.08,10.47,3.3,1.65.58,3.28,1.19,4.91,1.83l2.54,1c.11,0,.88.37.19.07l1.83.8a151.6,151.6,0,0,1,19,10q4.66,2.89,9.1,6.13c1.54,1.12,2.52,1.86,3.56,2.69,1.48,1.17,2.93,2.36,4.36,3.59a99.76,99.76,0,0,1,7.78,7.47q1.65,1.8,3.2,3.69a44.53,44.53,0,0,1,2.7,3.66q1.49,2.2,2.76,4.53c.38.7.75,1.42,1.1,2.14.21.43.4.87.6,1.3.45.95-.16-.49.25.58a49.44,49.44,0,0,1,1.68,5c.18.69.34,1.38.48,2.08.06.27.11.54.16.81s.26,2,.12.71a38.36,38.36,0,0,1,.25,4.15c0,.83,0,1.66-.07,2.49l-.06.84c0,.23-.25,2-.06.73a36.94,36.94,0,0,1-.82,4.06c-.18.67-.37,1.33-.59,2-.12.39-.26.78-.4,1.16-.05.13-.62,1.53-.35.92s-.24.51-.25.52c-.17.37-.35.73-.54,1.09-.31.6-.64,1.19-1,1.76s-.72,1.13-1.11,1.68c-.11.16-.94,1.19-.18.27-.25.31-.5.62-.77.92a27.41,27.41,0,0,1-3.16,3c.14-.11.81-.58,0-.05-.33.23-.65.46-1,.68-.68.44-1.39.85-2.11,1.22l-1,.49c.14-.06,1-.37.18-.09-.58.19-1.15.39-1.74.55a8.84,8.84,0,0,1-2.14.43c.12,0,1.18-.11.25-.05-.49,0-1,.07-1.46.08s-1.22,0-1.83,0c-.39,0-2.23-.35-.86-.06a36.07,36.07,0,0,1-4.1-1l-.86-.31c-1.18-.41,1,.48-.16-.06-.55-.27-1.1-.53-1.64-.82s-1.05-.6-1.56-.93l-.89-.61c-1-.68.79.69-.13-.09a28.56,28.56,0,0,1-2.77-2.73c-.58-.66.05.07.14.18-.2-.28-.41-.56-.6-.85a16.07,16.07,0,0,1-1-1.8c-.14-.26-.51-1.33-.06-.06l-.24-.65a16.54,16.54,0,0,1-.51-1.83,2.64,2.64,0,0,1-.15-.86l.09.63c0-.24-.05-.47-.06-.71a18.78,18.78,0,0,1,0-2.25c.07-1,0-.18,0,0,.08-.43.16-.86.26-1.29.17-.7.4-1.38.64-2.07.46-1.31-.48.82.18-.4.17-.32.32-.65.5-1a26.29,26.29,0,0,1,1.53-2.4c-.12.16-.59.7,0,0,.28-.34.57-.68.87-1,.5-.55,1-1.08,1.57-1.59s1.12-1,1.71-1.47c-.83.66.35-.25.43-.31.37-.26.75-.51,1.13-.75a31.16,31.16,0,0,1,9.3-4c7.73-2.21,15.8-2.88,23.64-4.6a136.11,136.11,0,0,0,22.47-7,126.29,126.29,0,0,0,21.65-11.09c6.45-4.27,12.13-9.71,14.61-17.22,4.52-13.65-3.77-28.66-14.19-37.17-11.8-9.63-29.65-15.64-43.49-6.5-6.31,4.17-10.86,10.56-11.7,18.17-.86,7.79,3.39,14.44,8.26,20.08,19.55,22.67,41,44.16,66.82,59.74,19.85,12,43.32,21,66.84,17.28A60.17,60.17,0,0,0,547,437.7c2.41-1,3.13-4.77,1.79-6.85-1.61-2.5-4.26-2.9-6.84-1.79Z"/><path class="b" d="M572.3,88.05h-10v-3H585.8v97h9.9v3H562.25v-3h10Z"/><path class="b" d="M668.75,156c0,16.79-13.8,30.59-30.3,30.59-17,0-30.45-13.8-30.45-31.05,0-16.94,13.65-30.89,30.3-30.89C655.4,124.65,668.75,138.45,668.75,156Zm-43-21.6c-1.5,3-1.65,5.1-1.65,21.14,0,17.4.15,19.05,2.4,22.35,2.4,3.6,6.15,5.25,12,5.25,6.15,0,10.35-2.1,12.6-6.45,1.5-2.85,1.65-5.1,1.65-20.85,0-17.54-.15-19.34-2.4-22.49-2.4-3.6-6.15-5.25-12.15-5.25S628,130.2,625.7,134.4Z"/><path class="b" d="M742.4,182.09c-3.45,3.3-6.45,4.5-10.35,4.5-7.35,0-11.7-4.05-12.6-11.7-4.35,7.5-11.4,11.7-19.5,11.7-9.45,0-15.9-5.7-15.9-14,0-7.35,4.8-13.2,13.65-16.8,5.55-2.09,11.7-3.15,21.75-3.3V142.2c0-8.55-.3-10-2-12-1.5-1.8-4.8-3-8.1-3-5.4,0-11.4,3.3-11.4,6.3,0,.6.15.9.75,1.65,1.65,1.8,2.1,3,2.1,4.65a6.16,6.16,0,0,1-6.15,6.45,6.26,6.26,0,0,1-6.45-6.6c0-8,11.1-15,23.55-15,7.35,0,14.1,2.4,17.7,6.3,3.3,3.45,3.45,4.2,3.45,17.4v16.49c0,14.25,0,14.25.6,15.6a2.22,2.22,0,0,0,2.55,1.8c1.5,0,1.8-.15,4.5-2.4Zm-22.95-27c-8,.3-11.7,1.19-15.3,3.44-4.5,2.7-6.75,6.45-6.75,11.4,0,6.3,3.3,10.05,9,10.05,4.5,0,8.25-2.4,10.65-6.75,1.65-2.85,2.4-7.35,2.4-15.15Z"/><path class="b" d="M811,182.09h10v3H797.45v-11.4c-3.3,8.25-9.6,12.9-17.55,12.9-13.8,0-25.2-14.1-25.2-31.19s11.25-30.75,24.9-30.75c7.5,0,12.9,3.75,17.85,12.15V88.05H787.4v-3H811Zm-37.8-49.34c-1.8,3-2.4,8.55-2.4,24.74,0,13.8.3,16.8,1.8,19.8a10.13,10.13,0,0,0,8.85,5.85c9,0,15.75-11.85,15.75-27.74,0-15.6-6.75-27.3-15.9-27.3A10,10,0,0,0,773.15,132.75Z"/><path class="b" d="M842.45,129.15H832.4v-3H856v55.94h9.9v3H832.4v-3h10.05ZM857,95.55a8.42,8.42,0,0,1-8.4,8.55c-4.8,0-8.25-3.75-8.25-8.7A8.08,8.08,0,0,1,848.6,87,8.42,8.42,0,0,1,857,95.55Z"/><path class="b" d="M887.45,129.15H877.4v-3H901V134c4.95-6.45,10.8-9.3,18.75-9.3,6.15,0,12.14,2.25,15.44,5.85,3.3,3.75,4.2,7.2,4.2,18.3v33.29h9.9v3H916.85v-3h9V159c0-17.84-.6-23.24-2.85-26.24a9,9,0,0,0-7.35-3.6,14.12,14.12,0,0,0-10.95,6c-3,4.2-3.75,10.65-3.75,29.09v17.85h9v3H877.4v-3h10.05Z"/><path class="b" d="M1002.64,181.79c6.45,0,9.15.6,12.15,2.55,3.6,2.55,5.55,7.2,5.55,13.35,0,16.65-12.9,28.2-31.65,28.2-15,0-27-8.1-27-18,0-6,4.35-10.8,11.85-13.2-7.2-1.95-11.25-6.6-11.25-13.2,0-6.75,4.35-13.05,13.2-18.75-6.45-5.09-9.3-10.34-9.3-17.09,0-11.85,10.2-21,23.7-21,7.05,0,12.75,2.1,17.1,6.15,4.2-4.5,7.2-6.15,10.8-6.15,4.05,0,6.9,2.7,6.9,6.75a5.45,5.45,0,0,1-5.4,5.7c-2.85,0-4.5-1.5-5.1-4.5-.3-1.65-.75-2.4-1.65-2.4s-1.65.45-3.45,2.4a21.58,21.58,0,0,1,4.65,13.35c0,12.29-9.9,20.69-24.3,20.69a23.93,23.93,0,0,1-11.1-2.4c-6.6,4.2-10.05,8.4-10.05,12.3,0,4.2,2.55,5.55,10.2,5.55,1.5,0,1.5,0,11.7-.15.6-.15,3.75-.15,8.1-.15Zm-31.8,24.6c0,9.3,7.35,15.75,18.3,15.75,15,0,26.55-9.15,26.55-21.15,0-4.65-2.25-6.3-8.4-6.3-.6,0-3.45,0-7.2.15-3,.15-14,.3-15.75.3a49.84,49.84,0,0,1-8.4-.45C972.34,198.44,970.84,201.89,970.84,206.39ZM981.79,132c-1,2.4-1.35,7.35-1.35,17.4,0,10.94,2.1,14.09,9.3,14.09,3.75,0,6.45-1.2,8-3.75,1.35-2.25,1.8-5.84,1.8-15.59,0-9-.3-11.7-1.65-13.5-1.35-2.1-3.75-3-8-3S982.84,129,981.79,132Z"/><path class="b" d="M1052.14,177.44a8.87,8.87,0,0,1-9,8.7,8.71,8.71,0,0,1-8.7-8.7,8.85,8.85,0,1,1,17.7,0Z"/><path class="b" d="M1092.34,177.44a8.87,8.87,0,0,1-9,8.7,8.71,8.71,0,0,1-8.7-8.7,8.85,8.85,0,1,1,17.7,0Z"/><path class="b" d="M1132.54,177.44a8.87,8.87,0,0,1-9,8.7,8.71,8.71,0,0,1-8.7-8.7,8.85,8.85,0,1,1,17.7,0Z"/></svg>